if (_typeface_js && _typeface_js.loadFace) _typeface_js.loadFace({"glyphs":{"0":{"ha":840,"x_min":75,"x_max":764,"o":"m 764 461 q 743 246 764 336 q 680 97 722 156 q 573 12 638 39 q 419 -15 508 -15 q 158 97 242 -15 q 75 458 75 210 q 96 676 75 585 q 159 825 117 767 q 266 910 201 883 q 419 938 331 938 q 573 910 508 938 q 680 825 638 883 q 743 676 722 767 q 764 461 764 586 m 619 460 q 608 633 619 563 q 573 747 597 703 q 511 809 549 790 q 419 828 474 828 q 328 809 365 828 q 266 747 290 790 q 231 633 242 703 q 219 460 219 563 q 231 288 219 358 q 266 175 242 218 q 328 113 290 132 q 419 94 365 94 q 511 113 474 94 q 573 175 549 132 q 608 288 597 218 q 619 460 619 358 z "},"1":{"ha":840,"x_min":176,"x_max":528,"o":"m 414 924 l 528 924 l 528 0 l 388 0 l 388 799 l 176 744 l 176 861 l 414 924 z "},"2":{"ha":840,"x_min":82,"x_max":700,"o":"m 108 910 q 226 931 158 925 q 354 938 293 938 q 486 924 425 938 q 592 881 547 911 q 663 803 638 851 q 689 683 689 754 q 672 576 689 625 q 625 484 654 528 q 556 399 596 440 q 472 313 517 357 l 265 111 l 700 111 l 700 0 l 82 0 l 82 104 l 363 386 q 434 461 401 425 q 490 533 467 497 q 525 605 513 568 q 538 683 538 642 q 487 794 538 761 q 344 828 436 828 q 289 825 319 828 q 227 818 258 822 q 168 808 196 814 q 122 799 140 803 l 108 910 z "},"3":{"ha":840,"x_min":92,"x_max":713,"o":"m 686 924 l 686 826 l 413 540 l 414 540 q 519 526 465 540 q 615 481 572 513 q 685 401 658 450 q 713 282 713 353 q 686 142 713 199 q 613 51 660 85 q 499 1 565 17 q 356 -14 433 -14 q 216 -6 283 -14 q 92 17 149 3 l 104 126 q 219 103 157 113 q 346 94 282 94 q 436 103 396 94 q 505 133 476 113 q 549 189 533 154 q 564 276 564 224 q 508 401 564 363 q 356 440 453 440 l 250 440 l 250 535 l 508 813 l 99 813 l 99 924 l 686 924 z "},"4":{"ha":840,"x_min":39,"x_max":779,"o":"m 661 924 l 661 328 l 779 328 l 779 221 l 661 221 l 661 0 l 525 0 l 525 221 l 39 221 l 39 317 l 471 924 l 661 924 m 525 328 l 525 801 l 183 328 l 525 328 z "},"5":{"ha":840,"x_min":117,"x_max":715,"o":"m 129 125 q 243 103 188 111 q 358 94 299 94 q 443 102 404 94 q 510 131 482 110 q 553 188 538 151 q 568 281 568 224 q 553 368 568 333 q 510 423 538 403 q 445 451 483 443 q 361 460 407 460 q 263 453 317 460 q 164 440 208 447 l 129 476 l 169 924 l 688 924 l 688 808 l 285 808 l 263 561 q 317 567 283 564 q 382 569 351 569 q 518 556 457 569 q 623 509 579 542 q 691 422 667 476 q 715 285 715 367 q 690 144 715 201 q 618 51 664 86 q 508 0 572 15 q 367 -15 444 -15 q 235 -8 294 -15 q 117 15 176 0 l 129 125 l 129 125 z "},"6":{"ha":840,"x_min":97,"x_max":760,"o":"m 701 804 q 595 821 651 814 q 488 828 539 828 q 385 813 431 828 q 309 762 340 797 q 261 669 278 726 q 244 526 244 611 q 342 550 289 540 q 453 560 396 560 q 582 544 525 560 q 678 497 639 529 q 739 413 718 464 q 760 289 760 361 q 677 67 760 149 q 442 -15 594 -15 q 293 10 357 -15 q 185 92 229 36 q 119 238 142 149 q 97 454 97 326 q 124 684 97 592 q 201 833 151 776 q 323 913 251 889 q 485 938 394 938 q 540 936 510 938 q 602 931 571 935 q 663 924 633 928 q 717 915 693 919 l 701 804 m 244 413 q 251 297 244 354 q 278 195 257 240 q 338 122 299 150 q 442 94 376 94 q 569 146 522 94 q 615 285 615 197 q 573 413 615 376 q 440 449 531 449 q 342 439 394 449 q 244 413 290 429 z "},"7":{"ha":840,"x_min":103,"x_max":736,"o":"m 736 924 l 736 828 l 318 0 l 156 0 l 576 810 l 103 810 l 103 924 l 736 924 z "},"8":{"ha":840,"x_min":79,"x_max":758,"o":"m 419 417 q 276 377 328 417 q 224 250 224 338 q 274 135 224 175 q 419 94 324 94 q 564 135 514 94 q 614 250 614 175 q 562 377 614 338 q 419 417 510 417 m 586 475 q 653 447 621 465 q 708 401 685 429 q 744 335 731 374 q 758 247 758 297 q 669 54 758 124 q 419 -15 581 -15 q 169 54 258 -15 q 79 247 79 124 q 93 335 79 297 q 131 401 107 374 q 185 447 154 429 q 251 475 217 465 q 137 551 176 499 q 97 690 97 603 q 122 799 97 753 q 188 876 146 844 q 290 922 231 907 q 419 938 349 938 q 548 922 489 938 q 649 876 607 907 q 716 799 692 844 q 740 690 740 753 q 701 551 740 603 q 586 475 661 499 m 419 535 q 551 572 506 535 q 596 689 596 610 q 549 792 596 757 q 419 828 503 828 q 288 792 335 828 q 242 689 242 757 q 287 572 242 610 q 419 535 332 535 z "},"9":{"ha":840,"x_min":81,"x_max":743,"o":"m 139 121 q 240 102 186 110 q 342 94 293 94 q 449 109 401 94 q 528 158 496 124 q 578 251 561 193 q 596 396 596 310 q 498 372 551 382 q 388 363 444 363 q 162 426 243 363 q 81 633 81 489 q 165 856 81 774 q 401 938 249 938 q 550 912 486 938 q 657 830 614 886 q 722 685 700 774 q 743 468 743 596 q 715 238 743 331 q 635 88 688 144 q 508 8 583 32 q 340 -15 433 -15 q 230 -8 288 -15 q 124 10 172 -1 l 139 121 m 596 510 q 590 625 596 568 q 565 727 585 682 q 506 800 544 772 q 401 828 467 828 q 273 776 321 828 q 225 638 225 725 q 267 510 225 546 q 400 474 310 474 q 498 483 446 474 q 596 510 550 493 z "},"\u0000":{"ha":0,"x_min":0,"x_max":0,"o":""},"\r":{"ha":374,"x_min":0,"x_max":0,"o":""}," ":{"ha":374,"x_min":0,"x_max":0,"o":""},"!":{"ha":417,"x_min":122,"x_max":294,"o":"m 285 924 l 265 233 l 154 233 l 135 924 l 285 924 m 122 63 q 146 119 122 99 q 210 139 169 139 q 272 119 249 139 q 294 63 294 99 q 272 6 294 26 q 210 -14 249 -14 q 146 6 169 -14 q 122 63 122 26 z "},"\"":{"ha":642,"x_min":132,"x_max":517,"o":"m 517 924 l 493 628 l 394 628 l 372 924 l 517 924 m 276 924 l 253 628 l 154 628 l 132 924 l 276 924 z "},"#":{"ha":993,"x_min":58,"x_max":933,"o":"m 483 924 l 431 653 l 631 653 l 685 924 l 801 924 l 749 653 l 933 653 l 914 554 l 729 554 l 693 365 l 878 365 l 858 267 l 672 267 l 622 0 l 506 0 l 557 267 l 356 267 l 304 0 l 193 0 l 243 267 l 58 267 l 76 365 l 263 365 l 300 554 l 114 554 l 133 653 l 319 653 l 372 924 l 483 924 m 374 365 l 576 365 l 613 554 l 411 554 l 374 365 z "},"$":{"ha":840,"x_min":111,"x_max":726,"o":"m 388 21 q 233 39 308 24 q 111 72 158 54 l 132 181 q 253 149 185 165 q 397 133 322 133 q 467 137 435 133 q 524 151 500 140 q 563 183 549 163 q 576 235 576 203 q 542 310 576 278 q 457 371 508 342 q 345 428 406 400 q 233 492 285 457 q 148 574 182 528 q 114 682 114 619 q 134 777 114 739 q 190 840 154 815 q 273 876 225 864 q 376 893 321 889 l 376 1013 l 479 1013 l 479 896 q 590 888 535 894 q 686 875 646 882 l 674 764 q 624 772 651 768 q 567 780 596 776 q 508 785 538 783 q 456 786 479 786 q 380 783 415 786 q 318 769 344 779 q 276 740 292 758 q 261 689 261 721 q 296 622 261 651 q 382 565 331 593 q 494 508 433 538 q 606 442 554 479 q 692 356 657 404 q 726 242 726 307 q 708 149 726 188 q 659 86 690 111 q 585 47 628 61 q 490 26 542 32 l 490 -118 l 388 -118 l 388 21 z "},"%":{"ha":1194,"x_min":65,"x_max":1128,"o":"m 286 856 q 244 848 264 856 q 210 822 225 840 q 185 774 194 804 q 176 696 176 743 q 185 617 176 649 q 210 567 194 586 q 244 540 225 549 q 286 532 264 532 q 327 540 308 532 q 360 567 346 549 q 383 617 375 586 q 392 694 392 649 q 383 773 392 742 q 360 822 375 804 q 327 848 346 840 q 286 856 308 856 m 286 938 q 374 924 333 938 q 443 883 414 911 q 489 808 472 854 q 506 694 506 761 q 489 583 506 629 q 443 507 472 536 q 374 464 414 478 q 286 450 333 450 q 197 464 238 450 q 128 508 157 478 q 82 584 99 538 q 65 696 65 631 q 82 808 65 763 q 128 883 99 854 q 197 924 157 911 q 286 938 238 938 m 908 394 q 867 387 888 394 q 833 360 847 379 q 809 311 818 342 q 800 233 800 281 q 809 156 800 188 q 833 106 818 125 q 867 79 847 88 q 908 71 888 71 q 950 78 931 71 q 984 105 969 86 q 1007 155 999 124 q 1015 232 1015 186 q 1007 310 1015 279 q 984 360 999 342 q 950 387 969 379 q 908 394 931 394 m 908 476 q 996 463 956 476 q 1065 421 1036 450 q 1111 345 1094 392 q 1128 232 1128 299 q 1066 45 1128 103 q 908 -12 1004 -12 q 821 1 861 -12 q 751 45 781 15 q 706 122 722 75 q 689 233 689 168 q 706 347 689 300 q 751 422 722 393 q 821 463 781 450 q 908 476 861 476 m 949 924 l 351 0 l 235 0 l 831 924 l 949 924 z "},"&":{"ha":878,"x_min":57,"x_max":878,"o":"m 651 267 q 696 338 675 296 q 729 426 717 381 l 844 399 q 799 275 829 338 q 729 169 768 213 l 878 0 l 703 0 l 633 79 q 517 10 583 36 q 365 -15 451 -15 q 138 49 218 -15 q 57 240 57 113 q 72 328 57 289 q 113 399 86 367 q 175 460 139 432 q 254 513 211 488 q 210 562 232 536 q 172 615 189 588 q 145 672 156 642 q 135 736 135 703 q 202 887 135 836 q 385 938 269 938 q 565 890 496 938 q 633 743 633 842 q 584 599 633 661 q 461 489 535 538 l 651 267 m 342 419 q 281 381 307 399 q 237 342 254 363 q 210 298 219 322 q 201 240 201 274 q 250 126 201 158 q 376 93 299 93 q 479 114 432 93 q 563 167 526 135 l 342 419 m 376 574 q 463 648 429 610 q 497 742 497 686 q 466 815 497 794 q 386 835 435 835 q 308 815 340 835 q 275 742 275 796 q 306 657 275 696 q 376 574 336 618 z "},"'":{"ha":388,"x_min":121,"x_max":265,"o":"m 265 924 l 242 628 l 143 628 l 121 924 l 265 924 z "},"(":{"ha":450,"x_min":75,"x_max":431,"o":"m 431 1014 q 335 878 378 947 q 263 731 293 808 q 215 567 232 654 q 199 375 199 479 q 215 185 199 272 q 263 21 232 97 q 335 -125 293 -56 q 431 -261 378 -194 l 306 -261 q 133 31 190 -135 q 75 375 75 196 q 133 722 75 556 q 306 1014 190 888 l 431 1014 l 431 1014 z "},")":{"ha":450,"x_min":19,"x_max":375,"o":"m 144 1014 q 317 722 260 888 q 375 375 375 556 q 317 31 375 196 q 144 -261 260 -135 l 19 -261 q 114 -125 71 -194 q 188 21 157 -56 q 235 185 218 97 q 251 375 251 272 q 235 567 251 479 q 188 731 218 654 q 114 878 157 808 q 19 1014 71 947 l 144 1014 z "},"*":{"ha":593,"x_min":44,"x_max":549,"o":"m 254 763 l 240 924 l 353 924 l 339 763 l 515 825 l 549 735 l 367 692 l 492 572 l 410 506 l 296 646 l 183 506 l 103 572 l 226 692 l 44 735 l 78 825 l 254 763 z "},"+":{"ha":840,"x_min":93,"x_max":746,"o":"m 364 492 l 364 728 l 475 728 l 475 492 l 746 492 l 746 394 l 475 394 l 475 157 l 364 157 l 364 394 l 93 394 l 93 492 l 364 492 z "},",":{"ha":382,"x_min":36,"x_max":281,"o":"m 281 142 l 144 -185 l 36 -185 l 136 142 l 281 142 z "},"-":{"ha":544,"x_min":86,"x_max":457,"o":"m 457 431 l 457 322 l 86 322 l 86 431 l 457 431 z "},".":{"ha":381,"x_min":100,"x_max":281,"o":"m 190 147 q 256 126 232 147 q 281 68 281 106 q 256 9 281 31 q 190 -12 232 -12 q 125 9 150 -12 q 100 68 100 31 q 125 126 100 106 q 190 147 150 147 z "},"/":{"ha":665,"x_min":31,"x_max":646,"o":"m 646 1014 l 150 -74 l 31 -74 l 525 1014 l 646 1014 z "},":":{"ha":382,"x_min":100,"x_max":281,"o":"m 190 683 q 256 663 232 683 q 281 604 281 642 q 256 545 281 567 q 190 524 232 524 q 125 545 150 524 q 100 604 100 567 q 125 663 100 642 q 190 683 150 683 m 190 149 q 256 128 232 149 q 281 69 281 107 q 256 10 281 32 q 190 -11 232 -11 q 125 10 150 -11 q 100 69 100 32 q 125 128 100 107 q 190 149 150 149 z "},";":{"ha":382,"x_min":36,"x_max":281,"o":"m 281 142 l 144 -185 l 36 -185 l 136 142 l 281 142 m 190 683 q 256 663 232 683 q 281 604 281 642 q 256 545 281 567 q 190 524 232 524 q 125 545 150 524 q 100 604 100 567 q 125 663 100 642 q 190 683 150 683 z "},"<":{"ha":840,"x_min":93,"x_max":746,"o":"m 746 738 l 746 633 l 232 443 l 746 251 l 746 147 l 93 396 l 93 490 l 746 738 z "},"=":{"ha":840,"x_min":93,"x_max":746,"o":"m 746 353 l 746 257 l 93 257 l 93 353 l 746 353 m 746 629 l 746 533 l 93 533 l 93 629 l 746 629 z "},">":{"ha":840,"x_min":93,"x_max":746,"o":"m 746 490 l 746 396 l 93 147 l 93 251 l 607 443 l 93 633 l 93 738 l 746 490 z "},"?":{"ha":600,"x_min":53,"x_max":560,"o":"m 53 896 q 156 926 93 914 q 289 938 218 938 q 397 924 347 938 q 483 884 447 911 q 540 816 519 857 q 560 718 560 775 q 544 626 560 665 q 503 557 528 588 q 451 501 479 526 q 399 449 424 476 q 359 389 375 421 q 343 314 343 357 l 343 232 l 222 232 l 222 319 q 237 417 222 375 q 274 491 251 458 q 322 549 296 524 q 369 600 347 575 q 406 651 392 625 q 421 710 421 676 q 385 801 421 774 q 276 828 350 828 q 170 816 225 828 q 79 789 115 804 l 53 896 m 196 63 q 219 119 196 99 q 283 139 243 139 q 344 119 321 139 q 368 63 368 99 q 344 6 368 26 q 283 -14 321 -14 q 219 6 243 -14 q 196 63 196 26 z "},"@":{"ha":1224,"x_min":67,"x_max":1157,"o":"m 700 475 q 658 482 681 479 q 618 485 635 485 q 527 443 557 485 q 497 311 497 401 q 506 219 497 254 q 527 165 514 185 q 558 138 540 144 q 596 131 576 131 q 654 144 629 131 q 700 176 679 157 l 700 475 m 822 238 q 826 191 822 213 q 840 155 829 169 q 869 132 850 140 q 918 124 888 124 q 1017 187 986 124 q 1049 397 1049 250 q 1025 550 1049 481 q 949 669 1001 619 q 815 747 897 719 q 615 775 732 775 q 410 740 494 775 q 274 643 326 704 q 199 498 222 582 q 176 317 176 414 q 196 126 176 213 q 265 -24 215 39 q 399 -121 314 -86 q 617 -156 485 -156 q 795 -137 713 -156 q 953 -90 878 -118 l 978 -181 q 808 -231 900 -211 q 615 -251 715 -251 q 353 -207 458 -251 q 184 -86 247 -162 q 94 94 121 -10 q 67 317 67 197 q 98 529 67 429 q 195 704 129 629 q 365 823 261 779 q 615 867 469 867 q 868 828 765 867 q 1035 726 971 790 q 1128 575 1100 661 q 1157 394 1157 489 q 1098 122 1157 218 q 914 25 1039 25 q 803 46 843 25 q 744 96 764 67 q 675 51 714 71 q 578 31 636 31 q 496 46 533 31 q 431 95 458 61 q 387 183 403 129 q 371 314 371 236 q 389 430 371 381 q 439 513 407 479 q 515 562 471 546 q 614 578 560 578 q 719 569 663 578 q 822 544 775 560 l 822 238 z "},"A":{"ha":940,"x_min":118,"x_max":822,"o":"m 261 0 l 118 0 l 118 600 q 135 737 118 675 q 194 844 153 799 q 302 913 235 889 q 469 938 369 938 q 638 913 569 938 q 747 844 706 889 q 805 737 788 799 q 822 600 822 675 l 822 0 l 676 0 l 676 342 l 261 342 l 261 0 m 676 451 l 676 604 q 667 694 676 653 q 633 765 657 735 q 569 811 608 794 q 469 828 529 828 q 369 811 408 828 q 305 765 329 794 q 271 694 281 735 q 261 604 261 653 l 261 451 l 676 451 z "},"B":{"ha":876,"x_min":139,"x_max":799,"o":"m 285 108 q 369 98 326 101 q 443 94 413 94 q 539 105 500 94 q 601 136 578 115 q 633 186 624 157 q 643 253 643 215 q 601 372 643 332 q 449 411 558 411 l 285 411 l 285 108 m 285 519 l 447 519 q 574 558 529 519 q 619 675 619 596 q 577 784 619 751 q 443 817 535 817 l 285 817 l 285 519 m 439 924 q 577 911 515 924 q 681 870 639 899 q 747 797 724 842 q 769 686 769 751 q 731 544 769 593 q 625 472 692 494 q 690 448 658 464 q 746 406 722 432 q 784 341 769 379 q 799 250 799 303 q 710 53 799 121 q 446 -15 622 -15 q 304 -6 388 -15 q 139 21 221 4 l 139 924 l 439 924 z "},"C":{"ha":801,"x_min":81,"x_max":733,"o":"m 713 803 q 603 821 664 814 q 490 828 543 828 q 377 810 425 828 q 297 751 329 793 q 249 640 265 710 q 233 464 233 569 q 250 283 233 354 q 299 169 267 211 q 381 111 332 128 q 496 94 431 94 q 609 103 549 94 q 722 124 669 113 l 733 14 q 614 -8 678 -1 q 492 -15 550 -15 q 319 8 396 -15 q 190 88 243 32 q 108 235 136 143 q 81 463 81 326 q 108 690 81 599 q 190 837 136 782 q 321 915 243 892 q 497 938 399 938 q 618 931 557 938 q 729 914 679 924 l 713 803 z "},"D":{"ha":946,"x_min":139,"x_max":865,"o":"m 451 924 q 627 897 550 924 q 757 815 704 871 q 838 674 810 760 q 865 471 865 589 q 843 267 865 357 q 769 114 821 176 q 635 18 718 51 q 432 -15 553 -15 q 290 -7 363 -15 q 139 19 217 1 l 139 924 l 451 924 m 285 107 q 436 94 353 94 q 649 185 582 94 q 715 469 715 275 q 697 628 715 563 q 646 735 679 694 q 563 795 613 776 q 451 814 514 814 l 285 814 l 285 107 z "},"E":{"ha":786,"x_min":132,"x_max":704,"o":"m 686 924 l 686 814 l 278 814 l 278 528 l 646 528 l 646 418 l 278 418 l 278 218 q 312 133 278 157 q 404 110 346 110 l 704 110 l 704 0 l 399 0 q 203 52 274 0 q 132 219 132 104 l 132 924 l 686 924 z "},"F":{"ha":771,"x_min":143,"x_max":704,"o":"m 704 924 l 704 814 l 289 814 l 289 511 l 653 511 l 653 401 l 289 401 l 289 0 l 143 0 l 143 924 l 704 924 z "},"G":{"ha":967,"x_min":81,"x_max":844,"o":"m 808 797 q 684 818 757 808 q 524 828 611 828 q 394 808 449 828 q 303 745 339 789 q 251 633 268 701 q 233 465 233 564 q 251 285 233 357 q 303 172 268 214 q 388 112 338 129 q 503 94 438 94 q 555 96 528 94 q 608 100 582 97 q 658 106 635 103 q 699 113 682 108 l 699 404 l 497 404 l 497 517 l 844 517 l 844 31 q 685 -2 776 11 q 507 -15 594 -15 q 328 8 407 -15 q 194 86 250 31 q 110 235 139 142 q 81 467 81 328 q 110 685 81 596 q 197 831 140 775 q 335 913 253 888 q 522 938 417 938 q 607 935 564 938 q 690 929 650 933 q 763 920 729 925 q 821 911 797 915 l 808 797 z "},"H":{"ha":1039,"x_min":143,"x_max":896,"o":"m 289 924 l 289 533 l 750 533 l 750 924 l 896 924 l 896 0 l 750 0 l 750 418 l 289 418 l 289 0 l 143 0 l 143 924 l 289 924 z "},"I":{"ha":432,"x_min":143,"x_max":289,"o":"m 289 924 l 289 0 l 143 0 l 143 924 l 289 924 z "},"J":{"ha":425,"x_min":-39,"x_max":289,"o":"m 289 924 l 289 106 q 270 -10 289 42 q 217 -108 251 -62 q 135 -194 183 -153 q 31 -276 88 -235 l -39 -189 q 43 -113 8 -149 q 100 -44 78 -78 q 133 26 122 -10 q 143 103 143 61 l 143 924 l 289 924 z "},"K":{"ha":869,"x_min":143,"x_max":868,"o":"m 289 924 l 289 432 l 706 924 l 867 924 l 508 503 q 597 461 558 488 q 666 399 636 435 q 721 319 696 364 q 769 221 746 274 l 868 0 l 706 0 l 625 186 q 538 329 589 269 q 408 399 486 389 l 289 267 l 289 0 l 143 0 l 143 924 l 289 924 z "},"L":{"ha":715,"x_min":143,"x_max":683,"o":"m 289 924 l 289 110 l 683 110 l 683 0 l 143 0 l 143 924 l 289 924 z "},"M":{"ha":1269,"x_min":143,"x_max":1126,"o":"m 303 924 l 635 425 l 968 924 l 1126 924 l 1126 0 l 983 0 l 983 726 l 693 290 l 576 290 l 288 726 l 288 0 l 143 0 l 143 924 l 303 924 z "},"N":{"ha":1049,"x_min":143,"x_max":906,"o":"m 260 924 l 764 383 l 764 924 l 906 924 l 906 0 l 764 0 l 764 208 l 283 717 l 283 0 l 143 0 l 143 924 l 260 924 z "},"O":{"ha":954,"x_min":81,"x_max":874,"o":"m 874 461 q 848 243 874 333 q 772 95 822 153 q 648 11 722 38 q 478 -15 574 -15 q 306 11 381 -15 q 182 95 232 38 q 106 243 132 153 q 81 461 81 333 q 106 679 81 589 q 182 827 132 769 q 306 911 232 885 q 478 938 381 938 q 648 911 574 938 q 772 827 722 885 q 848 679 822 769 q 874 461 874 589 m 721 461 q 706 634 721 564 q 660 747 690 704 q 583 809 629 790 q 478 828 538 828 q 372 809 417 828 q 295 747 326 790 q 249 634 264 704 q 233 461 233 564 q 249 288 233 358 q 295 175 264 218 q 372 113 326 132 q 478 94 417 94 q 583 113 538 94 q 660 175 629 132 q 706 288 690 218 q 721 461 721 358 z "},"P":{"ha":874,"x_min":143,"x_max":794,"o":"m 289 456 q 436 442 367 442 q 600 489 553 442 q 647 631 647 536 q 635 719 647 683 q 599 775 624 754 q 535 805 574 796 q 442 814 496 814 l 289 814 l 289 456 m 442 924 q 595 909 529 924 q 706 860 661 894 q 772 769 750 825 q 794 631 794 714 q 771 491 794 549 q 702 398 747 433 q 594 347 657 363 q 451 331 531 331 q 289 346 378 331 l 289 0 l 143 0 l 143 924 l 442 924 z "},"Q":{"ha":957,"x_min":81,"x_max":943,"o":"m 411 -86 q 497 -97 447 -86 q 598 -122 547 -108 q 693 -147 649 -136 q 764 -158 738 -158 q 831 -145 803 -158 q 885 -108 858 -132 l 943 -200 q 868 -254 913 -233 q 765 -275 824 -275 q 677 -262 726 -275 q 578 -235 628 -250 q 485 -207 529 -219 q 411 -194 440 -194 l 411 -86 m 874 461 q 848 243 874 333 q 772 95 822 153 q 648 11 722 38 q 478 -15 574 -15 q 306 11 381 -15 q 182 95 232 38 q 106 243 132 153 q 81 461 81 333 q 106 679 81 589 q 182 827 132 769 q 306 911 232 885 q 478 938 381 938 q 648 911 574 938 q 772 827 722 885 q 848 679 822 769 q 874 461 874 589 m 721 461 q 706 634 721 564 q 660 747 690 704 q 583 809 629 790 q 478 828 538 828 q 372 809 417 828 q 295 747 326 790 q 249 634 264 704 q 233 461 233 564 q 249 288 233 358 q 295 175 264 218 q 372 113 326 132 q 478 94 417 94 q 583 113 538 94 q 660 175 629 132 q 706 288 690 218 q 721 461 721 358 z "},"R":{"ha":890,"x_min":143,"x_max":828,"o":"m 442 924 q 595 910 529 924 q 706 863 661 896 q 772 774 750 829 q 794 638 794 719 q 781 541 794 582 q 743 471 767 500 q 687 422 719 442 q 615 390 654 403 q 694 332 667 371 q 746 228 722 293 l 828 0 l 676 0 l 604 196 q 578 256 592 229 q 544 303 564 283 q 497 335 525 324 q 431 346 469 346 q 362 348 397 346 q 289 357 326 350 l 289 0 l 143 0 l 143 924 l 442 924 m 289 467 q 366 457 329 460 q 436 454 403 454 q 600 499 553 454 q 647 638 647 543 q 635 724 647 690 q 599 778 624 758 q 535 806 574 799 q 442 814 496 814 l 289 814 l 289 467 z "},"S":{"ha":778,"x_min":79,"x_max":693,"o":"m 640 804 q 592 813 619 808 q 534 820 564 817 q 474 826 504 824 q 421 828 444 828 q 344 824 379 828 q 285 810 310 821 q 246 778 260 799 q 232 726 232 758 q 266 654 232 689 q 351 585 300 619 q 463 512 403 550 q 574 429 522 474 q 659 331 625 385 q 693 213 693 278 q 670 106 693 150 q 606 35 647 63 q 505 -3 564 8 q 375 -15 446 -15 q 213 1 288 -15 q 86 33 139 17 l 104 142 q 226 110 157 126 q 374 94 294 94 q 495 117 447 94 q 543 200 543 139 q 509 282 543 243 q 423 358 475 321 q 311 435 371 396 q 199 517 251 474 q 113 608 147 560 q 79 717 79 657 q 106 822 79 779 q 179 890 133 864 q 288 926 225 915 q 421 938 350 938 q 485 935 451 938 q 549 931 518 933 q 607 924 581 928 q 653 915 633 919 l 640 804 z "},"T":{"ha":799,"x_min":24,"x_max":775,"o":"m 775 924 l 775 814 l 472 814 l 472 0 l 326 0 l 326 814 l 24 814 l 24 924 l 775 924 z "},"U":{"ha":979,"x_min":126,"x_max":847,"o":"m 272 924 l 272 311 q 324 154 272 214 q 496 94 376 94 q 613 103 560 94 q 701 121 665 111 l 701 924 l 847 924 l 847 42 q 699 4 786 24 q 492 -15 613 -15 q 322 8 392 -15 q 209 76 253 32 q 146 181 165 119 q 126 317 126 242 l 126 924 l 272 924 z "},"V":{"ha":838,"x_min":0,"x_max":838,"o":"m 347 0 l 0 924 l 154 924 l 439 149 q 512 313 474 226 q 586 495 550 399 q 652 699 622 592 q 700 924 682 806 l 838 924 q 786 674 821 794 q 707 440 751 554 q 609 217 663 326 q 501 0 556 107 l 347 0 z "},"W":{"ha":1264,"x_min":14,"x_max":1250,"o":"m 268 0 l 14 924 l 163 924 l 357 163 l 568 744 l 704 744 l 911 157 q 1031 499 979 313 q 1113 924 1083 686 l 1250 924 q 1147 443 1214 667 q 976 0 1081 219 l 840 0 l 633 589 l 413 0 l 268 0 z "},"X":{"ha":824,"x_min":10,"x_max":813,"o":"m 28 924 l 196 924 l 419 581 l 653 924 l 808 924 l 496 472 l 813 0 l 642 0 l 406 361 l 164 0 l 10 0 l 329 468 l 28 924 z "},"Y":{"ha":828,"x_min":-14,"x_max":821,"o":"m 338 315 l -14 924 l 160 924 l 431 453 q 518 555 478 499 q 590 672 558 611 q 642 797 621 732 q 674 924 663 861 l 821 924 q 779 754 810 840 q 703 589 749 668 q 602 440 658 510 q 483 318 546 369 l 483 0 l 338 0 l 338 315 z "},"Z":{"ha":842,"x_min":69,"x_max":778,"o":"m 765 924 l 765 822 l 254 110 l 778 110 l 778 0 l 69 0 l 69 100 l 585 814 l 86 814 l 86 924 l 765 924 z "},"[":{"ha":450,"x_min":147,"x_max":429,"o":"m 429 1015 l 429 924 l 268 924 l 268 -169 l 429 -169 l 429 -261 l 147 -261 l 147 1015 l 429 1015 z "},"\\":{"ha":665,"x_min":17,"x_max":632,"o":"m 138 1014 l 632 -74 l 513 -74 l 17 1014 l 138 1014 z "},"]":{"ha":450,"x_min":19,"x_max":301,"o":"m 301 1015 l 301 -261 l 19 -261 l 19 -169 l 181 -169 l 181 924 l 19 924 l 19 1015 l 301 1015 z "},"^":{"ha":840,"x_min":128,"x_max":711,"o":"m 419 813 l 247 501 l 128 501 l 369 924 l 469 924 l 711 501 l 592 501 l 419 813 z "},"_":{"ha":953,"x_min":0,"x_max":953,"o":"m 953 -15 l 953 -104 l 0 -104 l 0 -15 l 953 -15 z "},"`":{"ha":764,"x_min":199,"x_max":474,"o":"m 354 1014 l 474 790 l 360 790 l 199 1014 l 354 1014 z "},"a":{"ha":718,"x_min":58,"x_max":618,"o":"m 478 294 q 414 303 449 300 q 343 307 379 307 q 285 303 313 307 q 238 287 258 299 q 206 253 218 275 q 194 197 194 232 q 235 109 194 133 q 335 85 276 85 q 413 90 376 85 q 478 103 450 96 l 478 294 m 124 660 q 222 676 168 669 q 326 683 275 683 q 438 673 385 683 q 531 637 492 663 q 594 569 571 611 q 618 465 618 528 l 618 33 q 491 2 565 18 q 332 -14 417 -14 q 224 -3 274 -14 q 137 34 174 8 q 79 101 100 60 q 58 206 58 143 q 81 303 58 264 q 142 365 104 342 q 229 399 179 389 q 333 408 279 408 q 413 405 378 408 q 478 396 449 401 l 478 461 q 433 555 478 531 q 319 579 388 579 q 222 571 272 579 q 133 554 172 563 l 124 660 z "},"b":{"ha":789,"x_min":114,"x_max":719,"o":"m 254 1014 l 254 663 q 335 677 293 671 q 417 683 376 683 q 536 666 481 683 q 633 608 592 649 q 697 503 674 568 q 719 340 719 438 q 694 168 719 236 q 627 59 669 100 q 527 2 585 18 q 404 -14 469 -14 q 333 -10 371 -14 q 256 -1 294 -7 q 181 11 218 4 q 114 26 144 18 l 114 1014 l 254 1014 m 254 108 q 328 97 290 101 q 401 92 365 92 q 474 102 442 92 q 528 141 506 113 q 562 217 550 169 q 574 340 574 265 q 562 456 574 411 q 528 528 550 501 q 476 566 506 556 q 410 576 446 576 q 332 570 372 576 q 254 556 292 564 l 254 108 z "},"c":{"ha":618,"x_min":69,"x_max":567,"o":"m 544 560 q 472 572 511 567 q 393 576 433 576 q 318 566 351 576 q 262 528 285 556 q 227 455 239 501 q 215 335 215 408 q 225 222 215 268 q 256 147 235 175 q 313 106 278 118 q 396 93 347 93 q 477 99 439 93 q 554 115 515 106 l 567 11 q 481 -7 526 0 q 388 -14 435 -14 q 258 4 317 -14 q 158 63 200 22 q 92 171 115 104 q 69 336 69 238 q 93 503 69 436 q 160 610 117 571 q 263 667 203 650 q 394 683 322 683 q 482 678 438 683 q 558 665 526 672 l 544 560 z "},"d":{"ha":789,"x_min":69,"x_max":675,"o":"m 535 556 q 460 571 497 565 q 385 576 422 576 q 319 566 350 576 q 265 528 288 556 q 228 456 242 501 q 215 340 215 411 q 227 217 215 265 q 261 141 239 169 q 315 102 283 113 q 388 92 347 92 q 461 97 424 92 q 535 108 499 101 l 535 556 m 675 1014 l 675 26 q 532 -1 613 11 q 385 -14 451 -14 q 261 2 318 -14 q 161 59 204 18 q 94 168 118 100 q 69 340 69 236 q 94 503 69 438 q 160 608 118 568 q 258 666 201 649 q 379 683 314 683 q 456 678 419 683 q 533 664 493 672 l 533 1014 l 675 1014 z "},"e":{"ha":719,"x_min":69,"x_max":653,"o":"m 217 294 q 229 206 218 244 q 265 143 240 168 q 332 106 290 118 q 438 93 374 93 q 486 95 460 93 q 538 101 513 97 q 587 110 564 106 q 625 118 610 114 l 638 15 q 540 -5 597 4 q 422 -14 482 -14 q 278 1 343 -14 q 167 56 213 17 q 95 163 121 96 q 69 335 69 231 q 91 499 69 432 q 153 606 113 565 q 251 665 193 647 q 379 683 308 683 q 501 663 450 683 q 587 607 553 643 q 637 519 621 571 q 653 404 653 468 l 653 294 l 217 294 m 518 392 q 375 585 518 585 q 260 536 296 585 q 218 392 224 488 l 518 392 z "},"f":{"ha":514,"x_min":40,"x_max":546,"o":"m 149 669 l 149 792 q 222 972 149 914 q 417 1029 294 1029 q 483 1026 449 1029 q 546 1018 518 1024 l 531 914 q 481 919 507 917 q 429 922 454 922 q 374 916 400 922 q 330 895 349 910 q 300 856 311 881 q 289 792 289 831 l 289 669 l 506 669 l 506 565 l 289 565 l 289 0 l 149 0 l 149 565 l 40 565 l 40 669 l 149 669 z "},"g":{"ha":794,"x_min":69,"x_max":676,"o":"m 676 -4 q 656 -132 676 -81 q 595 -215 635 -183 q 499 -261 556 -247 q 371 -275 443 -275 q 244 -265 311 -275 q 132 -243 178 -256 l 147 -137 q 254 -159 193 -149 q 367 -169 315 -169 q 496 -134 456 -169 q 536 -19 536 -99 l 536 18 q 457 6 500 11 q 374 0 414 0 q 257 14 313 0 q 160 66 201 28 q 94 171 118 104 q 69 343 69 238 q 96 504 69 439 q 167 609 122 569 q 272 666 211 649 q 399 683 332 683 q 540 668 469 683 q 676 632 611 653 l 676 -4 m 536 556 q 472 569 508 563 q 400 576 435 576 q 329 567 363 576 q 271 531 296 557 q 231 459 246 504 q 217 342 217 414 q 228 221 217 267 q 263 149 240 175 q 316 115 285 124 q 385 107 347 107 q 458 113 421 107 q 536 125 496 118 l 536 556 z "},"h":{"ha":815,"x_min":118,"x_max":710,"o":"m 118 1014 l 258 1014 l 258 661 q 342 676 299 669 q 429 683 386 683 q 539 672 488 683 q 628 632 590 660 q 688 559 665 604 q 710 447 710 514 l 710 0 l 569 0 l 569 442 q 558 507 569 481 q 524 549 546 533 q 474 570 503 564 q 413 576 446 576 q 332 569 374 576 q 258 556 290 563 l 258 0 l 118 0 l 118 1014 z "},"i":{"ha":379,"x_min":100,"x_max":278,"o":"m 260 669 l 260 0 l 119 0 l 119 669 l 260 669 m 278 919 q 255 861 278 882 q 189 840 232 840 q 124 861 147 840 q 100 919 100 882 q 124 979 100 958 q 189 1000 147 1000 q 278 919 278 1000 z "},"j":{"ha":379,"x_min":-35,"x_max":278,"o":"m 260 669 l 260 93 q 249 -17 260 31 q 211 -107 238 -65 q 140 -189 185 -149 q 31 -276 96 -229 l -35 -200 q 44 -123 14 -157 q 92 -56 75 -89 q 114 13 108 -22 q 119 92 119 47 l 119 669 l 260 669 m 278 919 q 255 861 278 882 q 189 840 232 840 q 124 861 147 840 q 100 919 100 882 q 124 979 100 958 q 189 1000 147 1000 q 278 919 278 1000 z "},"k":{"ha":749,"x_min":119,"x_max":721,"o":"m 260 1014 l 260 358 l 557 669 l 711 669 l 454 400 q 581 323 533 381 q 657 186 629 265 l 721 0 l 569 0 l 510 172 q 446 272 486 242 q 353 308 406 303 l 260 219 l 260 0 l 119 0 l 119 1014 l 260 1014 z "},"l":{"ha":379,"x_min":119,"x_max":260,"o":"m 260 1014 l 260 0 l 119 0 l 119 1014 l 260 1014 z "},"m":{"ha":1218,"x_min":118,"x_max":1113,"o":"m 118 632 q 249 666 172 649 q 406 683 325 683 q 518 669 467 683 q 607 625 569 656 q 724 667 658 650 q 851 683 789 683 q 955 672 907 683 q 1038 632 1003 660 q 1092 559 1072 604 q 1113 447 1113 514 l 1113 0 l 972 0 l 972 442 q 961 508 972 482 q 931 549 950 533 q 886 570 913 564 q 831 576 860 576 q 742 564 782 576 q 671 538 703 551 q 685 447 685 500 l 685 0 l 544 0 l 544 442 q 533 508 544 482 q 503 549 522 533 q 459 570 485 564 q 403 576 433 576 q 328 570 367 576 q 258 556 289 564 l 258 0 l 118 0 l 118 632 l 118 632 z "},"n":{"ha":815,"x_min":118,"x_max":710,"o":"m 118 632 q 178 649 144 640 q 251 666 213 658 q 333 678 290 674 q 417 683 375 683 q 533 672 479 683 q 626 633 586 660 q 688 560 665 606 q 710 447 710 514 l 710 0 l 569 0 l 569 442 q 558 507 569 481 q 525 549 546 533 q 475 570 504 564 q 413 576 446 576 q 332 570 374 576 q 258 556 290 564 l 258 0 l 118 0 l 118 632 l 118 632 z "},"o":{"ha":774,"x_min":69,"x_max":704,"o":"m 704 335 q 622 68 704 150 q 386 -14 539 -14 q 151 68 233 -14 q 69 335 69 150 q 151 601 69 519 q 386 683 233 683 q 622 601 539 683 q 704 335 704 519 m 558 335 q 547 452 558 406 q 514 526 536 499 q 460 565 492 554 q 388 576 429 576 q 314 565 346 576 q 260 526 282 554 q 226 452 238 499 q 215 335 215 406 q 226 217 215 264 q 260 143 238 171 q 314 104 282 115 q 388 93 346 93 q 460 104 429 93 q 514 143 492 115 q 547 217 536 171 q 558 335 558 264 z "},"p":{"ha":792,"x_min":117,"x_max":722,"o":"m 117 632 q 260 668 182 653 q 410 683 339 683 q 533 666 476 683 q 633 608 590 649 q 699 503 675 568 q 722 342 722 438 q 698 167 722 236 q 632 58 674 99 q 535 2 590 18 q 418 -14 481 -14 q 335 -8 378 -14 q 257 4 293 -3 l 257 -261 l 117 -261 l 117 632 m 257 111 q 333 99 296 104 q 408 93 371 93 q 477 103 446 93 q 531 142 508 114 q 565 217 553 169 q 576 340 576 265 q 565 458 576 413 q 531 531 553 504 q 477 567 508 557 q 407 576 446 576 q 370 574 390 576 q 329 569 350 572 q 290 563 308 567 q 257 556 271 560 l 257 111 z "},"q":{"ha":797,"x_min":69,"x_max":676,"o":"m 676 -261 l 536 -261 l 536 4 q 457 -8 500 -3 q 374 -14 414 -14 q 257 1 313 -14 q 160 56 201 17 q 94 163 118 94 q 69 336 69 231 q 96 498 69 432 q 167 606 122 564 q 272 665 211 647 q 399 683 332 683 q 540 668 469 683 q 676 632 611 653 l 676 -261 m 536 556 q 472 569 508 563 q 400 576 435 576 q 329 565 363 576 q 271 527 296 554 q 231 453 246 500 q 217 335 217 407 q 228 213 217 260 q 263 139 240 165 q 316 103 285 113 q 385 93 347 93 q 458 99 421 93 q 536 111 496 104 l 536 556 z "},"r":{"ha":507,"x_min":117,"x_max":481,"o":"m 117 632 q 290 670 203 658 q 481 682 376 682 l 481 571 q 449 572 465 572 q 415 572 432 572 q 329 567 371 572 q 257 553 288 561 l 257 0 l 117 0 l 117 632 z "},"s":{"ha":638,"x_min":68,"x_max":581,"o":"m 539 564 q 461 576 506 571 q 367 581 417 581 q 251 565 293 581 q 208 506 208 550 q 236 458 208 479 q 305 417 264 438 q 394 376 346 397 q 484 325 443 354 q 553 258 525 296 q 581 165 581 219 q 560 83 581 117 q 503 27 539 49 q 417 -4 467 6 q 310 -14 368 -14 q 181 -4 243 -14 q 76 21 119 6 l 92 126 q 137 114 111 119 q 192 103 163 108 q 250 96 221 99 q 307 93 279 93 q 403 108 371 93 q 435 165 435 122 q 408 220 435 197 q 340 264 381 243 q 251 306 299 285 q 163 353 204 326 q 95 415 122 379 q 68 501 68 451 q 92 591 68 556 q 156 647 115 626 q 252 675 197 667 q 368 683 307 683 q 469 678 419 683 q 551 668 519 674 l 539 564 z "},"t":{"ha":531,"x_min":36,"x_max":496,"o":"m 286 863 l 286 669 l 481 669 l 481 565 l 286 565 l 286 167 q 308 110 286 126 q 367 94 331 94 q 433 101 399 94 q 492 114 468 107 l 496 8 q 426 -8 464 -3 q 350 -14 389 -14 q 203 29 260 -14 q 146 171 146 72 l 146 565 l 36 565 l 36 669 l 146 669 l 178 863 l 286 863 z "},"u":{"ha":801,"x_min":106,"x_max":683,"o":"m 683 36 q 551 1 628 17 q 394 -14 474 -14 q 283 -2 336 -14 q 191 38 231 10 q 128 112 151 65 q 106 228 106 158 l 106 669 l 246 669 l 246 226 q 258 163 246 189 q 290 122 269 138 q 338 99 311 106 q 397 93 365 93 q 476 99 436 93 q 543 113 517 106 l 543 669 l 683 669 l 683 36 z "},"v":{"ha":685,"x_min":11,"x_max":674,"o":"m 11 669 l 157 669 l 360 119 q 465 360 411 225 q 546 669 518 496 l 674 669 q 582 319 647 482 q 426 0 517 156 l 269 0 l 11 669 z "},"w":{"ha":1163,"x_min":19,"x_max":1143,"o":"m 19 669 l 164 669 l 335 119 l 515 669 l 664 669 l 863 113 q 956 357 914 218 q 1017 669 997 496 l 1143 669 q 1069 319 1121 482 q 933 0 1018 157 l 775 0 l 589 525 l 413 0 l 239 0 l 19 669 z "},"x":{"ha":664,"x_min":7,"x_max":656,"o":"m 178 669 l 339 425 l 504 669 l 649 669 l 421 340 l 656 0 l 496 0 l 324 250 l 151 0 l 7 0 l 242 338 l 18 669 l 178 669 z "},"y":{"ha":803,"x_min":106,"x_max":683,"o":"m 683 669 l 683 -3 q 663 -131 683 -79 q 603 -215 642 -183 q 507 -261 564 -247 q 378 -275 450 -275 q 252 -265 318 -275 q 139 -242 186 -254 l 154 -137 q 261 -158 200 -149 q 374 -168 322 -168 q 503 -135 463 -168 q 543 -22 543 -101 l 543 17 q 469 5 507 10 q 394 0 431 0 q 283 12 336 0 q 191 51 231 24 q 128 126 151 79 q 106 242 106 172 l 106 669 l 246 669 l 246 240 q 258 176 246 203 q 290 135 269 150 q 338 113 311 119 q 397 106 365 106 q 476 112 436 106 q 543 126 517 118 l 543 669 l 683 669 z "},"z":{"ha":683,"x_min":57,"x_max":632,"o":"m 618 669 l 618 579 l 232 104 l 632 104 l 632 0 l 57 0 l 57 92 l 447 565 l 69 565 l 69 669 l 618 669 z "},"{":{"ha":517,"x_min":58,"x_max":492,"o":"m 481 914 q 442 921 464 918 q 400 924 419 924 q 308 894 332 924 q 285 811 285 864 q 288 740 285 778 q 297 664 292 703 q 305 588 301 625 q 308 518 308 550 q 299 458 308 482 q 274 417 289 433 q 238 390 258 400 q 196 376 218 381 q 240 361 219 371 q 276 335 261 351 q 300 293 292 318 q 308 231 308 268 q 305 162 308 199 q 297 86 301 125 q 288 10 292 47 q 285 -57 285 -26 q 308 -142 285 -114 q 399 -169 332 -169 q 441 -167 418 -169 q 481 -160 464 -164 l 492 -264 q 438 -273 467 -271 q 382 -275 410 -275 q 216 -217 269 -275 q 163 -50 163 -160 q 167 22 163 -17 q 176 97 171 60 q 185 169 181 135 q 189 233 189 204 q 156 303 189 286 q 58 321 122 319 l 58 432 q 156 449 124 433 q 189 518 189 465 q 185 583 189 547 q 176 656 181 618 q 167 731 171 693 q 163 804 163 769 q 216 972 163 914 q 382 1029 269 1029 q 444 1026 417 1029 q 492 1018 472 1022 l 481 914 z "},"|":{"ha":410,"x_min":147,"x_max":263,"o":"m 263 1111 l 263 -278 l 147 -278 l 147 1111 l 263 1111 z "},"}":{"ha":517,"x_min":24,"x_max":457,"o":"m 24 1018 q 71 1026 43 1022 q 133 1029 99 1029 q 299 972 246 1029 q 353 804 353 914 q 349 731 353 769 q 340 656 344 693 q 331 583 335 618 q 326 518 326 547 q 359 449 326 465 q 457 432 392 433 l 457 321 q 360 303 393 319 q 326 233 326 286 q 331 169 326 204 q 340 97 335 135 q 349 22 344 60 q 353 -50 353 -17 q 299 -217 353 -160 q 133 -275 246 -275 q 77 -273 106 -275 q 24 -264 49 -271 l 35 -160 q 74 -167 51 -164 q 117 -169 97 -169 q 207 -142 183 -169 q 231 -57 231 -114 q 227 10 231 -26 q 219 86 224 47 q 210 162 214 125 q 207 231 207 199 q 239 335 207 304 q 319 376 271 365 q 277 390 297 381 q 241 417 257 400 q 216 458 225 433 q 207 518 207 482 q 210 588 207 550 q 219 664 214 625 q 227 740 224 703 q 231 811 231 778 q 207 894 231 864 q 115 924 183 924 q 74 921 96 924 q 35 914 51 918 l 24 1018 z "},"~":{"ha":840,"x_min":74,"x_max":764,"o":"m 164 360 q 119 378 142 369 q 74 396 97 386 q 138 488 94 451 q 256 525 181 525 q 336 514 292 525 q 426 490 381 503 q 510 467 471 478 q 575 456 550 456 q 638 473 617 456 q 675 526 658 490 l 764 490 q 697 396 743 432 q 576 360 651 360 q 497 371 540 360 q 409 396 453 382 q 327 421 365 410 q 264 432 289 432 q 202 413 224 432 q 164 360 181 394 z "},"Ä":{"ha":940,"x_min":118,"x_max":822,"o":"m 261 0 l 118 0 l 118 600 q 135 737 118 675 q 194 844 153 799 q 302 913 235 889 q 469 938 369 938 q 638 913 569 938 q 747 844 706 889 q 805 737 788 799 q 822 600 822 675 l 822 0 l 676 0 l 676 342 l 261 342 l 261 0 m 676 451 l 676 604 q 667 694 676 653 q 633 765 657 735 q 569 811 608 794 q 469 828 529 828 q 369 811 408 828 q 305 765 329 794 q 271 694 281 735 q 261 604 261 653 l 261 451 l 676 451 m 433 1160 q 413 1110 433 1128 q 354 1092 393 1092 q 294 1110 314 1092 q 274 1160 274 1128 q 294 1210 274 1192 q 354 1228 314 1228 q 413 1210 393 1228 q 433 1160 433 1192 m 689 1160 q 668 1110 689 1128 q 608 1092 647 1092 q 549 1110 569 1092 q 529 1160 529 1128 q 549 1210 529 1192 q 608 1228 569 1228 q 668 1210 647 1228 q 689 1160 689 1192 z "},"Å":{"ha":940,"x_min":118,"x_max":822,"o":"m 261 0 l 118 0 l 118 600 q 135 737 118 675 q 194 844 153 799 q 302 913 235 889 q 469 938 369 938 q 638 913 569 938 q 747 844 706 889 q 805 737 788 799 q 822 600 822 675 l 822 0 l 676 0 l 676 342 l 261 342 l 261 0 m 676 451 l 676 604 q 667 694 676 653 q 633 765 657 735 q 569 811 608 794 q 469 828 529 828 q 369 811 408 828 q 305 765 329 794 q 271 694 281 735 q 261 604 261 653 l 261 451 l 676 451 m 618 1160 q 578 1072 618 1101 q 469 1042 539 1042 q 362 1072 401 1042 q 322 1160 322 1101 q 362 1249 322 1219 q 469 1279 401 1279 q 578 1249 539 1279 q 618 1160 618 1219 m 528 1160 q 515 1200 528 1188 q 469 1213 501 1213 q 413 1160 413 1213 q 469 1107 413 1107 q 515 1120 501 1107 q 528 1160 528 1133 z "},"Ç":{"ha":801,"x_min":81,"x_max":733,"o":"m 713 803 q 603 821 664 814 q 490 828 543 828 q 377 810 425 828 q 297 751 329 793 q 249 640 265 710 q 233 464 233 569 q 250 283 233 354 q 299 169 267 211 q 381 111 332 128 q 496 94 431 94 q 609 103 549 94 q 722 124 669 113 l 733 14 q 614 -8 678 -1 q 492 -15 550 -15 q 319 8 396 -15 q 190 88 243 32 q 108 235 136 143 q 81 463 81 326 q 108 690 81 599 q 190 837 136 782 q 321 915 243 892 q 497 938 399 938 q 618 931 557 938 q 729 914 679 924 l 713 803 m 504 -64 q 535 -116 522 -89 q 547 -169 547 -143 q 517 -247 547 -218 q 417 -275 488 -275 q 356 -269 389 -275 q 304 -257 324 -264 l 322 -174 q 357 -183 338 -179 q 390 -186 376 -186 q 425 -177 417 -186 q 433 -149 433 -168 q 424 -108 433 -129 q 401 -64 414 -86 l 504 -64 z "},"É":{"ha":786,"x_min":132,"x_max":704,"o":"m 686 924 l 686 814 l 278 814 l 278 528 l 646 528 l 646 418 l 278 418 l 278 218 q 312 133 278 157 q 404 110 346 110 l 704 110 l 704 0 l 399 0 q 203 52 274 0 q 132 219 132 104 l 132 924 l 686 924 m 617 1272 l 457 1049 l 342 1049 l 461 1272 l 617 1272 z "},"Ñ":{"ha":1049,"x_min":143,"x_max":906,"o":"m 260 924 l 764 383 l 764 924 l 906 924 l 906 0 l 764 0 l 764 208 l 283 717 l 283 0 l 143 0 l 143 924 l 260 924 m 307 1115 q 350 1192 318 1158 q 438 1226 382 1226 q 486 1219 464 1226 q 528 1203 508 1213 q 567 1188 549 1194 q 601 1181 585 1181 q 635 1197 626 1181 q 651 1232 643 1213 l 740 1204 q 692 1121 724 1154 q 608 1088 661 1088 q 565 1094 586 1088 q 523 1110 543 1101 q 485 1126 503 1119 q 451 1133 467 1133 q 413 1119 424 1133 q 396 1086 403 1106 l 307 1115 z "},"Ö":{"ha":957,"x_min":81,"x_max":874,"o":"m 874 461 q 848 243 874 333 q 772 95 822 153 q 648 11 722 38 q 478 -15 574 -15 q 306 11 381 -15 q 182 95 232 38 q 106 243 132 153 q 81 461 81 333 q 106 679 81 589 q 182 827 132 769 q 306 911 232 885 q 478 938 381 938 q 648 911 574 938 q 772 827 722 885 q 848 679 822 769 q 874 461 874 589 m 721 461 q 706 634 721 564 q 660 747 690 704 q 583 809 629 790 q 478 828 538 828 q 372 809 417 828 q 295 747 326 790 q 249 634 264 704 q 233 461 233 564 q 249 288 233 358 q 295 175 264 218 q 372 113 326 132 q 478 94 417 94 q 583 113 538 94 q 660 175 629 132 q 706 288 690 218 q 721 461 721 358 m 431 1160 q 410 1110 431 1128 q 351 1092 390 1092 q 291 1110 311 1092 q 271 1160 271 1128 q 291 1210 271 1192 q 351 1228 311 1228 q 410 1210 390 1228 q 431 1160 431 1192 m 686 1160 q 665 1110 686 1128 q 606 1092 644 1092 q 547 1110 567 1092 q 526 1160 526 1128 q 547 1210 526 1192 q 606 1228 567 1228 q 665 1210 644 1228 q 686 1160 686 1192 z "},"Ü":{"ha":979,"x_min":126,"x_max":847,"o":"m 272 924 l 272 311 q 324 154 272 214 q 496 94 376 94 q 613 103 560 94 q 701 121 665 111 l 701 924 l 847 924 l 847 42 q 699 4 786 24 q 492 -15 613 -15 q 322 8 392 -15 q 209 76 253 32 q 146 181 165 119 q 126 317 126 242 l 126 924 l 272 924 m 443 1160 q 423 1110 443 1128 q 364 1092 403 1092 q 303 1110 324 1092 q 283 1160 283 1128 q 303 1210 283 1192 q 364 1228 324 1228 q 423 1210 403 1228 q 443 1160 443 1192 m 699 1160 q 678 1110 699 1128 q 618 1092 657 1092 q 559 1110 579 1092 q 539 1160 539 1128 q 559 1210 539 1192 q 618 1228 579 1228 q 678 1210 657 1228 q 699 1160 699 1192 z "},"á":{"ha":718,"x_min":58,"x_max":618,"o":"m 478 294 q 414 303 449 300 q 343 307 379 307 q 285 303 313 307 q 238 287 258 299 q 206 253 218 275 q 194 197 194 232 q 235 109 194 133 q 335 85 276 85 q 413 90 376 85 q 478 103 450 96 l 478 294 m 124 660 q 222 676 168 669 q 326 683 275 683 q 438 673 385 683 q 531 637 492 663 q 594 569 571 611 q 618 465 618 528 l 618 33 q 491 2 565 18 q 332 -14 417 -14 q 224 -3 274 -14 q 137 34 174 8 q 79 101 100 60 q 58 206 58 143 q 81 303 58 264 q 142 365 104 342 q 229 399 179 389 q 333 408 279 408 q 413 405 378 408 q 478 396 449 401 l 478 461 q 433 555 478 531 q 319 579 388 579 q 222 571 272 579 q 133 554 172 563 l 124 660 m 560 1014 l 400 790 l 285 790 l 404 1014 l 560 1014 z "},"à":{"ha":718,"x_min":58,"x_max":618,"o":"m 478 294 q 414 303 449 300 q 343 307 379 307 q 285 303 313 307 q 238 287 258 299 q 206 253 218 275 q 194 197 194 232 q 235 109 194 133 q 335 85 276 85 q 413 90 376 85 q 478 103 450 96 l 478 294 m 124 660 q 222 676 168 669 q 326 683 275 683 q 438 673 385 683 q 531 637 492 663 q 594 569 571 611 q 618 465 618 528 l 618 33 q 491 2 565 18 q 332 -14 417 -14 q 224 -3 274 -14 q 137 34 174 8 q 79 101 100 60 q 58 206 58 143 q 81 303 58 264 q 142 365 104 342 q 229 399 179 389 q 333 408 279 408 q 413 405 378 408 q 478 396 449 401 l 478 461 q 433 555 478 531 q 319 579 388 579 q 222 571 272 579 q 133 554 172 563 l 124 660 m 317 1014 l 436 790 l 322 790 l 161 1014 l 317 1014 z "},"â":{"ha":718,"x_min":58,"x_max":618,"o":"m 478 294 q 414 303 449 300 q 343 307 379 307 q 285 303 313 307 q 238 287 258 299 q 206 253 218 275 q 194 197 194 232 q 235 109 194 133 q 335 85 276 85 q 413 90 376 85 q 478 103 450 96 l 478 294 m 124 660 q 222 676 168 669 q 326 683 275 683 q 438 673 385 683 q 531 637 492 663 q 594 569 571 611 q 618 465 618 528 l 618 33 q 491 2 565 18 q 332 -14 417 -14 q 224 -3 274 -14 q 137 34 174 8 q 79 101 100 60 q 58 206 58 143 q 81 303 58 264 q 142 365 104 342 q 229 399 179 389 q 333 408 279 408 q 413 405 378 408 q 478 396 449 401 l 478 461 q 433 555 478 531 q 319 579 388 579 q 222 571 272 579 q 133 554 172 563 l 124 660 m 431 1014 l 572 790 l 453 790 l 367 933 l 279 790 l 158 790 l 300 1014 l 431 1014 z "},"ä":{"ha":718,"x_min":58,"x_max":618,"o":"m 478 294 q 414 303 449 300 q 343 307 379 307 q 285 303 313 307 q 238 287 258 299 q 206 253 218 275 q 194 197 194 232 q 235 109 194 133 q 335 85 276 85 q 413 90 376 85 q 478 103 450 96 l 478 294 m 124 660 q 222 676 168 669 q 326 683 275 683 q 438 673 385 683 q 531 637 492 663 q 594 569 571 611 q 618 465 618 528 l 618 33 q 491 2 565 18 q 332 -14 417 -14 q 224 -3 274 -14 q 137 34 174 8 q 79 101 100 60 q 58 206 58 143 q 81 303 58 264 q 142 365 104 342 q 229 399 179 389 q 333 408 279 408 q 413 405 378 408 q 478 396 449 401 l 478 461 q 433 555 478 531 q 319 579 388 579 q 222 571 272 579 q 133 554 172 563 l 124 660 m 319 903 q 299 853 319 871 q 240 835 279 835 q 180 853 200 835 q 160 903 160 871 q 180 953 160 935 q 240 971 200 971 q 299 953 279 971 q 319 903 319 935 m 575 903 q 554 853 575 871 q 494 835 533 835 q 435 853 456 835 q 415 903 415 871 q 435 953 415 935 q 494 971 456 971 q 554 953 533 971 q 575 903 575 935 z "},"ã":{"ha":718,"x_min":58,"x_max":618,"o":"m 478 294 q 414 303 449 300 q 343 307 379 307 q 285 303 313 307 q 238 287 258 299 q 206 253 218 275 q 194 197 194 232 q 235 109 194 133 q 335 85 276 85 q 413 90 376 85 q 478 103 450 96 l 478 294 m 124 660 q 222 676 168 669 q 326 683 275 683 q 438 673 385 683 q 531 637 492 663 q 594 569 571 611 q 618 465 618 528 l 618 33 q 491 2 565 18 q 332 -14 417 -14 q 224 -3 274 -14 q 137 34 174 8 q 79 101 100 60 q 58 206 58 143 q 81 303 58 264 q 142 365 104 342 q 229 399 179 389 q 333 408 279 408 q 413 405 378 408 q 478 396 449 401 l 478 461 q 433 555 478 531 q 319 579 388 579 q 222 571 272 579 q 133 554 172 563 l 124 660 m 150 858 q 193 935 161 901 q 281 969 225 969 q 329 963 307 969 q 372 947 351 956 q 410 931 392 938 q 444 924 428 924 q 478 940 469 924 q 494 975 486 956 l 583 947 q 535 864 567 897 q 451 831 504 831 q 408 838 429 831 q 366 853 386 844 q 328 869 346 863 q 294 876 310 876 q 256 863 267 876 q 239 829 246 849 l 150 858 z "},"å":{"ha":718,"x_min":58,"x_max":618,"o":"m 478 294 q 414 303 449 300 q 343 307 379 307 q 285 303 313 307 q 238 287 258 299 q 206 253 218 275 q 194 197 194 232 q 235 109 194 133 q 335 85 276 85 q 413 90 376 85 q 478 103 450 96 l 478 294 m 124 660 q 222 676 168 669 q 326 683 275 683 q 438 673 385 683 q 531 637 492 663 q 594 569 571 611 q 618 465 618 528 l 618 33 q 491 2 565 18 q 332 -14 417 -14 q 224 -3 274 -14 q 137 34 174 8 q 79 101 100 60 q 58 206 58 143 q 81 303 58 264 q 142 365 104 342 q 229 399 179 389 q 333 408 279 408 q 413 405 378 408 q 478 396 449 401 l 478 461 q 433 555 478 531 q 319 579 388 579 q 222 571 272 579 q 133 554 172 563 l 124 660 m 515 900 q 476 812 515 842 q 367 782 436 782 q 259 812 299 782 q 219 900 219 842 q 259 990 219 960 q 367 1019 299 1019 q 476 990 436 1019 q 515 900 515 960 m 425 900 q 412 940 425 928 q 367 953 399 953 q 310 900 310 953 q 367 847 310 847 q 412 860 399 847 q 425 900 425 874 z "},"ç":{"ha":618,"x_min":69,"x_max":567,"o":"m 544 560 q 472 572 511 567 q 393 576 433 576 q 318 566 351 576 q 262 528 285 556 q 227 455 239 501 q 215 335 215 408 q 225 222 215 268 q 256 147 235 175 q 313 106 278 118 q 396 93 347 93 q 477 99 439 93 q 554 115 515 106 l 567 11 q 481 -7 526 0 q 388 -14 435 -14 q 258 4 317 -14 q 158 63 200 22 q 92 171 115 104 q 69 336 69 238 q 93 503 69 436 q 160 610 117 571 q 263 667 203 650 q 394 683 322 683 q 482 678 438 683 q 558 665 526 672 l 544 560 m 410 -64 q 440 -116 428 -89 q 453 -169 453 -143 q 423 -247 453 -218 q 322 -275 393 -275 q 262 -269 294 -275 q 210 -257 229 -264 l 228 -174 q 263 -183 243 -179 q 296 -186 282 -186 q 331 -177 322 -186 q 339 -149 339 -168 q 329 -108 339 -129 q 307 -64 319 -86 l 410 -64 z "},"é":{"ha":719,"x_min":69,"x_max":653,"o":"m 217 294 q 229 206 218 244 q 265 143 240 168 q 332 106 290 118 q 438 93 374 93 q 486 95 460 93 q 538 101 513 97 q 587 110 564 106 q 625 118 610 114 l 638 15 q 540 -5 597 4 q 422 -14 482 -14 q 278 1 343 -14 q 167 56 213 17 q 95 163 121 96 q 69 335 69 231 q 91 499 69 432 q 153 606 113 565 q 251 665 193 647 q 379 683 308 683 q 501 663 450 683 q 587 607 553 643 q 637 519 621 571 q 653 404 653 468 l 653 294 l 217 294 m 518 392 q 375 585 518 585 q 260 536 296 585 q 218 392 224 488 l 518 392 m 588 1014 l 428 790 l 313 790 l 432 1014 l 588 1014 z "},"è":{"ha":719,"x_min":69,"x_max":653,"o":"m 217 294 q 229 206 218 244 q 265 143 240 168 q 332 106 290 118 q 438 93 374 93 q 486 95 460 93 q 538 101 513 97 q 587 110 564 106 q 625 118 610 114 l 638 15 q 540 -5 597 4 q 422 -14 482 -14 q 278 1 343 -14 q 167 56 213 17 q 95 163 121 96 q 69 335 69 231 q 91 499 69 432 q 153 606 113 565 q 251 665 193 647 q 379 683 308 683 q 501 663 450 683 q 587 607 553 643 q 637 519 621 571 q 653 404 653 468 l 653 294 l 217 294 m 518 392 q 375 585 518 585 q 260 536 296 585 q 218 392 224 488 l 518 392 m 314 1014 l 433 790 l 319 790 l 158 1014 l 314 1014 z "},"ê":{"ha":719,"x_min":69,"x_max":653,"o":"m 217 294 q 229 206 218 244 q 265 143 240 168 q 332 106 290 118 q 438 93 374 93 q 486 95 460 93 q 538 101 513 97 q 587 110 564 106 q 625 118 610 114 l 638 15 q 540 -5 597 4 q 422 -14 482 -14 q 278 1 343 -14 q 167 56 213 17 q 95 163 121 96 q 69 335 69 231 q 91 499 69 432 q 153 606 113 565 q 251 665 193 647 q 379 683 308 683 q 501 663 450 683 q 587 607 553 643 q 637 519 621 571 q 653 404 653 468 l 653 294 l 217 294 m 518 392 q 375 585 518 585 q 260 536 296 585 q 218 392 224 488 l 518 392 m 439 1014 l 581 790 l 461 790 l 375 933 l 288 790 l 167 790 l 308 1014 l 439 1014 z "},"ë":{"ha":719,"x_min":69,"x_max":653,"o":"m 217 294 q 229 206 218 244 q 265 143 240 168 q 332 106 290 118 q 438 93 374 93 q 486 95 460 93 q 538 101 513 97 q 587 110 564 106 q 625 118 610 114 l 638 15 q 540 -5 597 4 q 422 -14 482 -14 q 278 1 343 -14 q 167 56 213 17 q 95 163 121 96 q 69 335 69 231 q 91 499 69 432 q 153 606 113 565 q 251 665 193 647 q 379 683 308 683 q 501 663 450 683 q 587 607 553 643 q 637 519 621 571 q 653 404 653 468 l 653 294 l 217 294 m 518 392 q 375 585 518 585 q 260 536 296 585 q 218 392 224 488 l 518 392 m 328 903 q 308 853 328 871 q 249 835 288 835 q 188 853 208 835 q 168 903 168 871 q 188 953 168 935 q 249 971 208 971 q 308 953 288 971 q 328 903 328 935 m 583 903 q 563 853 583 871 q 503 835 542 835 q 444 853 464 835 q 424 903 424 871 q 444 953 424 935 q 503 971 464 971 q 563 953 542 971 q 583 903 583 935 z "},"í":{"ha":379,"x_min":119,"x_max":404,"o":"m 404 1014 l 244 790 l 129 790 l 249 1014 l 404 1014 m 260 669 l 260 0 l 119 0 l 119 669 l 260 669 z "},"ì":{"ha":379,"x_min":-29,"x_max":260,"o":"m 126 1014 l 246 790 l 132 790 l -29 1014 l 126 1014 m 260 669 l 260 0 l 119 0 l 119 669 l 260 669 z "},"î":{"ha":379,"x_min":-21,"x_max":393,"o":"m 260 669 l 260 0 l 119 0 l 119 669 l 260 669 m 251 1014 l 393 790 l 274 790 l 188 933 l 100 790 l -21 790 l 121 1014 l 251 1014 z "},"ï":{"ha":379,"x_min":-18,"x_max":397,"o":"m 142 903 q 122 853 142 871 q 63 835 101 835 q 2 853 22 835 q -18 903 -18 871 q 2 953 -18 935 q 63 971 22 971 q 122 953 101 971 q 142 903 142 935 m 397 903 q 376 853 397 871 q 317 835 356 835 q 258 853 278 835 q 238 903 238 871 q 258 953 238 935 q 317 971 278 971 q 376 953 356 971 q 397 903 397 935 m 260 669 l 260 0 l 119 0 l 119 669 l 260 669 z "},"ñ":{"ha":815,"x_min":118,"x_max":710,"o":"m 118 632 q 178 649 144 640 q 251 666 213 658 q 333 678 290 674 q 417 683 375 683 q 533 672 479 683 q 626 633 586 660 q 688 560 665 606 q 710 447 710 514 l 710 0 l 569 0 l 569 442 q 558 507 569 481 q 525 549 546 533 q 475 570 504 564 q 413 576 446 576 q 332 570 374 576 q 258 556 290 564 l 258 0 l 118 0 l 118 632 m 199 858 q 242 935 210 901 q 329 969 274 969 q 378 963 356 969 q 420 947 400 956 q 458 931 440 938 q 493 924 476 924 q 526 940 518 924 q 543 975 535 956 l 632 947 q 584 864 615 897 q 500 831 553 831 q 456 838 478 831 q 415 853 435 844 q 376 869 394 863 q 343 876 358 876 q 305 863 315 876 q 288 829 294 849 l 199 858 z "},"ó":{"ha":774,"x_min":69,"x_max":704,"o":"m 704 335 q 622 68 704 150 q 386 -14 539 -14 q 151 68 233 -14 q 69 335 69 150 q 151 601 69 519 q 386 683 233 683 q 622 601 539 683 q 704 335 704 519 m 558 335 q 547 452 558 406 q 514 526 536 499 q 460 565 492 554 q 388 576 429 576 q 314 565 346 576 q 260 526 282 554 q 226 452 238 499 q 215 335 215 406 q 226 217 215 264 q 260 143 238 171 q 314 104 282 115 q 388 93 346 93 q 460 104 429 93 q 514 143 492 115 q 547 217 536 171 q 558 335 558 264 m 601 1014 l 442 790 l 326 790 l 446 1014 l 601 1014 z "},"ò":{"ha":774,"x_min":69,"x_max":704,"o":"m 704 335 q 622 68 704 150 q 386 -14 539 -14 q 151 68 233 -14 q 69 335 69 150 q 151 601 69 519 q 386 683 233 683 q 622 601 539 683 q 704 335 704 519 m 558 335 q 547 452 558 406 q 514 526 536 499 q 460 565 492 554 q 388 576 429 576 q 314 565 346 576 q 260 526 282 554 q 226 452 238 499 q 215 335 215 406 q 226 217 215 264 q 260 143 238 171 q 314 104 282 115 q 388 93 346 93 q 460 104 429 93 q 514 143 492 115 q 547 217 536 171 q 558 335 558 264 m 319 1014 l 439 790 l 325 790 l 164 1014 l 319 1014 z "},"ô":{"ha":774,"x_min":69,"x_max":704,"o":"m 704 335 q 622 68 704 150 q 386 -14 539 -14 q 151 68 233 -14 q 69 335 69 150 q 151 601 69 519 q 386 683 233 683 q 622 601 539 683 q 704 335 704 519 m 558 335 q 547 452 558 406 q 514 526 536 499 q 460 565 492 554 q 388 576 429 576 q 314 565 346 576 q 260 526 282 554 q 226 452 238 499 q 215 335 215 406 q 226 217 215 264 q 260 143 238 171 q 314 104 282 115 q 388 93 346 93 q 460 104 429 93 q 514 143 492 115 q 547 217 536 171 q 558 335 558 264 m 450 1014 l 592 790 l 472 790 l 386 933 l 299 790 l 178 790 l 319 1014 l 450 1014 z "},"ö":{"ha":774,"x_min":69,"x_max":704,"o":"m 704 335 q 622 68 704 150 q 386 -14 539 -14 q 151 68 233 -14 q 69 335 69 150 q 151 601 69 519 q 386 683 233 683 q 622 601 539 683 q 704 335 704 519 m 558 335 q 547 452 558 406 q 514 526 536 499 q 460 565 492 554 q 388 576 429 576 q 314 565 346 576 q 260 526 282 554 q 226 452 238 499 q 215 335 215 406 q 226 217 215 264 q 260 143 238 171 q 314 104 282 115 q 388 93 346 93 q 460 104 429 93 q 514 143 492 115 q 547 217 536 171 q 558 335 558 264 m 338 903 q 317 853 338 871 q 258 835 297 835 q 198 853 218 835 q 178 903 178 871 q 198 953 178 935 q 258 971 218 971 q 317 953 297 971 q 338 903 338 935 m 593 903 q 572 853 593 871 q 513 835 551 835 q 453 853 474 835 q 433 903 433 871 q 453 953 433 935 q 513 971 474 971 q 572 953 551 971 q 593 903 593 935 z "},"õ":{"ha":774,"x_min":69,"x_max":704,"o":"m 704 335 q 622 68 704 150 q 386 -14 539 -14 q 151 68 233 -14 q 69 335 69 150 q 151 601 69 519 q 386 683 233 683 q 622 601 539 683 q 704 335 704 519 m 558 335 q 547 452 558 406 q 514 526 536 499 q 460 565 492 554 q 388 576 429 576 q 314 565 346 576 q 260 526 282 554 q 226 452 238 499 q 215 335 215 406 q 226 217 215 264 q 260 143 238 171 q 314 104 282 115 q 388 93 346 93 q 460 104 429 93 q 514 143 492 115 q 547 217 536 171 q 558 335 558 264 m 169 858 q 213 935 181 901 q 300 969 244 969 q 349 963 326 969 q 391 947 371 956 q 429 931 411 938 q 464 924 447 924 q 497 940 489 924 q 514 975 506 956 l 603 947 q 555 864 586 897 q 471 831 524 831 q 427 838 449 831 q 385 853 406 844 q 347 869 365 863 q 314 876 329 876 q 276 863 286 876 q 258 829 265 849 l 169 858 z "},"ú":{"ha":801,"x_min":106,"x_max":683,"o":"m 683 36 q 551 1 628 17 q 394 -14 474 -14 q 283 -2 336 -14 q 191 38 231 10 q 128 112 151 65 q 106 228 106 158 l 106 669 l 246 669 l 246 226 q 258 163 246 189 q 290 122 269 138 q 338 99 311 106 q 397 93 365 93 q 476 99 436 93 q 543 113 517 106 l 543 669 l 683 669 l 683 36 m 603 1014 l 443 790 l 328 790 l 447 1014 l 603 1014 z "},"ù":{"ha":801,"x_min":106,"x_max":683,"o":"m 683 36 q 551 1 628 17 q 394 -14 474 -14 q 283 -2 336 -14 q 191 38 231 10 q 128 112 151 65 q 106 228 106 158 l 106 669 l 246 669 l 246 226 q 258 163 246 189 q 290 122 269 138 q 338 99 311 106 q 397 93 365 93 q 476 99 436 93 q 543 113 517 106 l 543 669 l 683 669 l 683 36 m 339 1014 l 458 790 l 344 790 l 183 1014 l 339 1014 z "},"û":{"ha":801,"x_min":106,"x_max":683,"o":"m 683 36 q 551 1 628 17 q 394 -14 474 -14 q 283 -2 336 -14 q 191 38 231 10 q 128 112 151 65 q 106 228 106 158 l 106 669 l 246 669 l 246 226 q 258 163 246 189 q 290 122 269 138 q 338 99 311 106 q 397 93 365 93 q 476 99 436 93 q 543 113 517 106 l 543 669 l 683 669 l 683 36 m 461 1014 l 603 790 l 483 790 l 397 933 l 310 790 l 189 790 l 331 1014 l 461 1014 z "},"ü":{"ha":801,"x_min":106,"x_max":683,"o":"m 683 36 q 551 1 628 17 q 394 -14 474 -14 q 283 -2 336 -14 q 191 38 231 10 q 128 112 151 65 q 106 228 106 158 l 106 669 l 246 669 l 246 226 q 258 163 246 189 q 290 122 269 138 q 338 99 311 106 q 397 93 365 93 q 476 99 436 93 q 543 113 517 106 l 543 669 l 683 669 l 683 36 m 349 903 q 328 853 349 871 q 269 835 308 835 q 209 853 229 835 q 189 903 189 871 q 209 953 189 935 q 269 971 229 971 q 328 953 308 971 q 349 903 349 935 m 604 903 q 583 853 604 871 q 524 835 563 835 q 465 853 485 835 q 444 903 444 871 q 465 953 444 935 q 524 971 485 971 q 583 953 563 971 q 604 903 604 935 z "},"†":{"ha":624,"x_min":46,"x_max":578,"o":"m 372 924 l 372 681 l 578 681 l 578 582 l 372 582 l 372 206 l 249 206 l 249 582 l 46 582 l 46 681 l 249 681 l 249 924 l 372 924 z "},"°":{"ha":535,"x_min":93,"x_max":443,"o":"m 268 868 q 199 844 224 868 q 174 779 174 819 q 199 715 174 739 q 268 690 224 690 q 337 715 311 690 q 363 779 363 739 q 337 844 363 819 q 268 868 311 868 m 268 938 q 394 893 344 938 q 443 779 443 849 q 394 665 443 710 q 268 621 344 621 q 142 665 192 621 q 93 779 93 710 q 142 893 93 849 q 268 938 192 938 z "},"¢":{"ha":840,"x_min":126,"x_max":721,"o":"m 700 697 q 659 706 683 701 q 606 715 635 711 q 548 722 578 719 q 492 725 518 725 q 401 714 442 725 q 330 674 360 703 q 284 593 300 644 q 268 461 268 542 q 283 333 268 383 q 328 251 299 282 q 402 207 358 219 q 503 194 446 194 q 610 204 554 194 q 707 228 667 214 l 721 121 q 625 96 681 106 q 511 83 569 86 l 511 -117 l 408 -117 l 408 90 q 291 123 343 99 q 203 192 239 147 q 147 303 167 238 q 126 461 126 369 q 147 617 126 551 q 203 726 167 682 q 290 794 239 769 q 404 826 342 818 l 404 1014 l 507 1014 l 507 835 q 622 824 564 833 q 717 807 681 815 l 700 697 l 700 697 z "},"£":{"ha":840,"x_min":64,"x_max":751,"o":"m 349 432 q 337 321 342 369 q 322 234 332 272 q 292 165 311 196 q 236 110 272 135 l 735 110 l 735 0 l 65 0 l 65 89 q 136 151 113 117 q 172 226 160 185 q 188 319 183 268 q 201 432 193 369 l 64 432 l 64 529 l 213 529 l 225 647 q 259 787 233 731 q 324 876 285 843 q 418 924 364 910 q 538 938 472 938 q 656 931 600 938 q 751 915 711 924 l 735 804 q 643 821 694 814 q 549 828 592 828 q 430 798 474 828 q 378 689 386 768 l 360 529 l 683 529 l 683 432 l 349 432 z "},"§":{"ha":782,"x_min":68,"x_max":708,"o":"m 89 390 q 115 497 89 457 q 186 561 142 538 q 133 627 153 590 q 113 713 113 664 q 138 821 113 778 q 208 890 164 864 q 312 927 253 917 q 439 938 371 938 q 557 931 494 938 q 663 915 619 924 l 650 810 q 602 817 629 814 q 547 824 575 821 q 491 829 519 828 q 440 831 463 831 q 369 826 403 831 q 310 808 335 821 q 270 774 285 796 q 256 719 256 753 q 289 653 256 682 q 373 599 322 625 q 482 544 424 572 q 591 478 540 515 q 675 393 642 442 q 708 278 708 344 q 681 167 708 210 q 604 101 654 125 q 644 36 629 72 q 658 -44 658 0 q 634 -153 658 -110 q 568 -224 610 -197 q 469 -263 526 -251 q 347 -275 413 -275 q 270 -271 310 -275 q 194 -260 231 -267 q 124 -244 157 -253 q 68 -225 92 -235 l 90 -119 q 206 -152 139 -136 q 346 -168 274 -168 q 413 -162 382 -168 q 467 -143 444 -157 q 503 -107 490 -129 q 517 -51 517 -85 q 485 25 517 -8 q 406 87 453 58 q 303 143 358 115 q 200 206 247 171 q 121 285 153 240 q 89 390 89 329 m 222 400 q 252 338 222 365 q 327 285 282 310 q 424 234 372 260 q 519 178 475 208 q 559 213 543 190 q 575 269 575 235 q 547 338 575 308 q 475 394 518 368 q 381 443 432 419 q 286 493 331 467 q 240 458 258 481 q 222 400 222 435 z "},"•":{"ha":535,"x_min":115,"x_max":418,"o":"m 268 515 q 376 481 335 515 q 418 376 418 446 q 376 272 418 308 q 268 236 335 236 q 158 272 201 236 q 115 376 115 308 q 158 481 115 446 q 268 515 201 515 z "},"¶":{"ha":933,"x_min":61,"x_max":790,"o":"m 578 -219 l 475 -219 l 475 321 q 438 319 458 319 q 393 319 417 319 q 243 335 306 319 q 140 388 181 351 q 81 483 100 424 q 61 628 61 542 q 80 769 61 713 q 139 860 99 825 q 242 909 179 894 q 396 924 306 924 l 578 924 l 578 -219 m 790 924 l 790 -219 l 688 -219 l 688 924 l 790 924 z "},"ß":{"ha":758,"x_min":117,"x_max":739,"o":"m 117 792 q 184 967 117 906 q 392 1029 251 1029 q 508 1012 458 1029 q 592 965 558 994 q 643 894 626 935 q 660 806 660 853 q 638 701 660 742 q 589 631 615 661 q 540 574 563 600 q 518 511 518 547 q 535 465 518 488 q 576 416 551 442 q 628 363 600 390 q 681 304 657 336 q 722 235 706 272 q 739 157 739 199 q 722 76 739 108 q 674 24 704 43 q 603 -5 644 4 q 517 -14 563 -14 q 437 -8 478 -14 q 361 6 396 -3 l 369 107 q 437 94 399 100 q 504 89 475 89 q 578 104 553 89 q 603 169 603 119 q 588 221 603 197 q 549 266 572 244 q 499 310 525 288 q 449 360 472 333 q 410 421 425 388 q 394 499 394 454 q 415 588 394 553 q 461 653 436 622 q 507 717 486 683 q 528 803 528 751 q 491 895 528 867 q 393 924 454 924 q 257 792 257 924 l 257 0 l 117 0 l 117 792 z "},"®":{"ha":871,"x_min":43,"x_max":826,"o":"m 379 607 q 396 604 385 606 q 422 603 407 603 q 482 614 458 603 q 506 665 506 625 q 488 711 506 699 q 431 724 471 724 l 379 724 l 379 607 m 436 786 q 550 757 507 786 q 593 669 593 728 q 573 599 593 621 q 524 567 553 578 q 554 540 543 556 q 575 497 565 524 l 614 393 l 522 393 l 482 497 q 458 531 471 525 q 424 539 444 538 q 402 539 414 539 q 379 542 390 539 l 379 393 l 293 393 l 293 786 l 436 786 m 826 579 q 724 315 826 407 q 435 222 621 222 q 145 315 247 222 q 43 579 43 407 q 145 844 43 753 q 435 936 247 936 q 724 844 621 936 q 826 579 826 753 m 747 579 q 669 797 747 725 q 435 868 590 868 q 122 579 122 868 q 435 290 122 290 q 669 363 590 290 q 747 579 747 435 z "},"©":{"ha":1004,"x_min":29,"x_max":967,"o":"m 274 461 q 290 583 274 533 q 338 665 307 633 q 415 710 369 696 q 518 725 460 725 q 602 718 558 725 q 671 703 646 711 l 660 618 q 597 631 633 625 q 525 638 560 638 q 465 630 490 638 q 424 603 440 622 q 399 549 407 583 q 390 461 390 515 q 399 371 390 406 q 425 316 407 336 q 469 289 443 296 q 531 282 494 282 q 601 288 564 282 q 665 306 638 294 l 676 219 q 605 201 649 208 q 521 194 561 194 q 417 208 463 194 q 339 253 371 222 q 290 336 307 285 q 274 461 274 388 m 967 461 q 499 -14 967 -14 q 29 461 29 -14 q 147 818 29 699 q 499 938 264 938 q 850 818 733 938 q 967 461 967 699 m 886 461 q 792 761 886 661 q 499 861 699 861 q 204 761 299 861 q 110 461 110 661 q 204 160 110 260 q 499 60 299 60 q 792 160 699 60 q 886 461 886 260 z "},"™":{"ha":1136,"x_min":42,"x_max":1024,"o":"m 428 924 l 428 847 l 290 847 l 290 508 l 181 508 l 181 847 l 42 847 l 42 924 l 428 924 m 807 596 l 724 596 l 607 796 l 607 508 l 508 508 l 508 924 l 626 924 l 765 688 l 904 924 l 1024 924 l 1024 508 l 926 508 l 926 796 l 807 596 z "},"´":{"ha":764,"x_min":288,"x_max":563,"o":"m 563 1014 l 403 790 l 288 790 l 407 1014 l 563 1014 z "},"¨":{"ha":764,"x_min":174,"x_max":589,"o":"m 333 903 q 313 853 333 871 q 254 835 293 835 q 194 853 214 835 q 174 903 174 871 q 194 953 174 935 q 254 971 214 971 q 313 953 293 971 q 333 903 333 935 m 589 903 q 568 853 589 871 q 508 835 547 835 q 449 853 469 835 q 429 903 429 871 q 449 953 429 935 q 508 971 469 971 q 568 953 547 971 q 589 903 589 935 z "},"≠":{"ha":840,"x_min":93,"x_max":746,"o":"m 457 629 l 540 806 l 635 806 l 553 629 l 746 629 l 746 533 l 508 533 l 424 353 l 746 353 l 746 257 l 379 257 l 297 81 l 203 81 l 285 257 l 93 257 l 93 353 l 329 353 l 413 533 l 93 533 l 93 629 l 457 629 z "},"Æ":{"ha":1333,"x_min":118,"x_max":1250,"o":"m 1231 924 l 1231 814 l 824 814 l 824 528 l 1190 528 l 1190 418 l 824 418 l 824 217 q 860 133 824 156 q 950 110 897 110 l 1250 110 l 1250 0 l 944 0 q 742 57 806 0 q 678 231 678 114 l 678 418 l 263 418 l 263 0 l 118 0 l 118 600 q 135 737 118 675 q 194 844 153 799 q 302 913 235 889 q 469 938 369 938 q 599 917 547 938 q 682 863 651 897 l 682 924 l 1231 924 m 678 528 l 678 588 q 669 686 678 642 q 636 762 660 731 q 572 810 613 793 q 469 828 532 828 q 367 810 407 828 q 304 762 328 793 q 272 686 281 731 q 263 588 263 642 l 263 528 l 678 528 z "},"Ø":{"ha":954,"x_min":81,"x_max":874,"o":"m 874 461 q 848 243 874 333 q 772 95 822 153 q 648 11 722 38 q 478 -15 574 -15 q 351 -2 408 -15 q 250 39 294 11 l 171 -82 l 99 -36 l 183 94 q 81 461 81 208 q 106 679 81 589 q 182 827 132 769 q 306 911 232 885 q 478 938 381 938 q 601 925 544 938 q 701 885 657 913 l 781 1008 l 853 963 l 768 832 q 847 683 821 774 q 874 461 874 592 m 721 461 q 710 599 721 540 q 681 697 700 657 l 319 146 q 390 106 350 118 q 478 94 429 94 q 583 113 538 94 q 660 175 629 132 q 706 288 690 218 q 721 461 721 358 m 233 461 q 272 228 233 307 l 631 779 q 478 828 574 828 q 372 809 417 828 q 295 747 326 790 q 249 634 264 704 q 233 461 233 564 z "},"∞":{"ha":947,"x_min":53,"x_max":894,"o":"m 414 442 q 333 509 368 486 q 257 532 297 532 q 188 512 217 532 q 160 444 160 492 q 188 376 160 396 q 257 357 217 357 q 333 377 297 357 q 414 442 368 397 m 533 446 q 615 379 579 401 q 690 357 650 357 q 759 376 731 357 q 788 444 788 396 q 759 512 788 492 q 690 532 731 532 q 615 511 650 532 q 533 446 579 490 m 474 515 q 578 592 526 565 q 692 619 629 619 q 838 574 781 619 q 894 444 894 529 q 838 313 894 358 q 692 268 781 268 q 578 295 629 268 q 474 372 526 322 q 369 295 421 322 q 256 268 318 268 q 110 313 167 268 q 53 444 53 358 q 110 574 53 529 q 256 619 167 619 q 369 592 318 619 q 474 515 421 565 z "},"±":{"ha":840,"x_min":93,"x_max":746,"o":"m 746 97 l 746 0 l 93 0 l 93 97 l 746 97 m 364 492 l 364 728 l 475 728 l 475 492 l 746 492 l 746 394 l 475 394 l 475 157 l 364 157 l 364 394 l 93 394 l 93 492 l 364 492 z "},"≤":{"ha":840,"x_min":93,"x_max":746,"o":"m 746 97 l 746 0 l 93 0 l 93 97 l 746 97 m 746 738 l 746 633 l 232 443 l 746 251 l 746 147 l 93 396 l 93 490 l 746 738 z "},"≥":{"ha":840,"x_min":93,"x_max":746,"o":"m 746 97 l 746 0 l 93 0 l 93 97 l 746 97 m 746 490 l 746 396 l 93 147 l 93 251 l 607 443 l 93 633 l 93 738 l 746 490 z "},"¥":{"ha":840,"x_min":36,"x_max":803,"o":"m 196 924 l 440 497 l 661 924 l 803 924 l 626 597 l 785 597 l 785 513 l 586 513 l 521 385 l 785 385 l 785 296 l 510 296 l 510 0 l 369 0 l 369 296 l 86 296 l 86 385 l 363 385 l 285 513 l 86 513 l 86 597 l 233 597 l 36 924 l 196 924 z "},"µ":{"ha":806,"x_min":110,"x_max":688,"o":"m 110 669 l 250 669 l 250 226 q 262 163 250 189 q 294 121 274 136 q 342 99 315 106 q 401 92 369 92 q 481 99 440 92 q 547 113 521 106 l 547 669 l 688 669 l 688 36 q 555 1 632 17 q 399 -14 478 -14 q 317 -6 354 -14 q 250 24 279 3 l 250 -261 l 110 -261 l 110 669 z "},"∂":{"ha":846,"x_min":60,"x_max":751,"o":"m 228 886 q 340 924 281 911 q 478 938 399 938 q 682 869 613 938 q 751 649 751 800 q 731 446 751 554 q 674 249 708 335 q 588 106 639 164 q 469 17 538 47 q 314 -12 401 -12 q 127 53 194 -12 q 60 229 60 118 q 145 466 60 379 q 396 553 231 553 q 522 537 471 553 q 608 501 574 521 q 619 583 615 544 q 622 650 622 622 q 577 794 622 753 q 451 836 532 836 q 339 822 388 836 q 240 788 290 807 l 228 886 m 585 401 q 504 435 549 421 q 397 450 460 450 q 313 439 351 450 q 247 403 275 428 q 203 336 218 378 q 188 235 188 294 q 226 129 188 168 q 331 90 264 90 q 493 167 435 90 q 585 401 551 244 z "},"∑":{"ha":840,"x_min":97,"x_max":772,"o":"m 736 924 l 736 821 l 275 821 l 581 482 l 269 103 l 772 103 l 772 0 l 97 0 l 97 85 l 417 481 l 97 840 l 97 924 l 736 924 z "},"∏":{"ha":993,"x_min":58,"x_max":946,"o":"m 946 924 l 946 822 l 838 822 l 838 0 l 697 0 l 697 822 l 306 822 l 306 0 l 167 0 l 167 822 l 58 822 l 58 924 l 946 924 z "},"π":{"ha":867,"x_min":33,"x_max":833,"o":"m 833 669 l 833 565 l 703 565 l 703 0 l 558 0 l 558 565 l 311 565 l 311 0 l 165 0 l 165 565 l 33 565 l 33 669 l 833 669 z "},"∫":{"ha":418,"x_min":-33,"x_max":451,"o":"m 446 922 q 426 923 439 922 q 408 924 414 924 q 306 892 338 924 q 275 793 275 860 l 275 -37 q 213 -211 275 -149 q 21 -274 151 -274 q -6 -274 7 -274 q -33 -271 -19 -274 l -26 -167 q -9 -167 -21 -167 q 10 -168 3 -168 q 112 -137 81 -168 q 143 -37 143 -106 l 143 793 q 205 967 143 904 q 397 1029 267 1029 q 424 1028 411 1029 q 451 1026 438 1028 l 446 922 z "},"ª":{"ha":497,"x_min":51,"x_max":406,"o":"m 82 918 q 153 933 117 928 q 231 938 189 938 q 300 930 268 938 q 356 906 332 922 q 392 863 379 889 q 406 800 406 836 l 406 543 q 329 519 379 532 q 222 506 279 506 q 155 513 186 506 q 101 535 124 519 q 65 576 78 550 q 51 638 51 601 q 66 701 51 676 q 104 740 81 726 q 157 760 128 754 q 215 765 186 765 q 260 763 238 765 q 303 756 283 760 l 303 796 q 280 848 303 833 q 221 863 257 863 q 153 856 185 863 q 96 843 122 850 l 82 918 m 303 688 q 262 694 283 692 q 219 697 240 697 q 170 685 192 697 q 149 636 149 672 q 171 587 149 600 q 225 574 193 574 q 303 583 268 574 l 303 688 z "},"º":{"ha":497,"x_min":46,"x_max":453,"o":"m 453 718 q 398 550 453 601 q 250 499 343 499 q 100 550 154 499 q 46 718 46 601 q 100 885 46 835 q 250 936 154 936 q 399 885 344 936 q 453 718 453 835 m 349 718 q 321 828 349 797 q 249 860 293 860 q 177 828 204 860 q 150 718 150 797 q 177 606 150 638 q 249 575 204 575 q 321 606 293 575 q 349 718 349 638 z "},"Ω":{"ha":963,"x_min":64,"x_max":899,"o":"m 250 99 q 129 240 172 151 q 86 469 86 328 q 113 682 86 593 q 190 828 139 771 q 313 911 240 885 q 481 938 386 938 q 647 911 574 938 q 772 828 721 885 q 850 682 824 771 q 876 469 876 593 q 833 240 876 328 q 713 99 789 151 l 899 99 l 899 0 l 535 0 l 535 97 q 627 155 588 124 q 694 229 667 186 q 734 331 721 272 q 747 469 747 389 q 731 641 747 571 q 681 755 714 711 q 597 817 647 799 q 481 836 547 836 q 365 817 414 836 q 282 755 315 799 q 232 641 249 711 q 215 469 215 571 q 229 331 215 389 q 269 229 243 272 q 335 155 296 186 q 428 97 375 124 l 428 0 l 64 0 l 64 99 l 250 99 z "},"æ":{"ha":1119,"x_min":58,"x_max":1053,"o":"m 124 658 q 221 676 168 668 q 325 683 274 683 q 462 663 397 683 q 564 596 526 642 q 652 662 599 642 q 779 682 706 682 q 987 606 921 682 q 1053 404 1053 531 l 1053 294 l 617 294 q 629 205 618 243 q 665 142 640 167 q 732 104 690 117 q 836 92 774 92 q 885 94 858 92 q 938 100 913 96 q 987 109 964 104 q 1025 118 1010 114 l 1038 15 q 940 -5 997 4 q 822 -14 882 -14 q 690 0 750 -14 q 585 46 629 14 q 469 3 532 19 q 333 -14 407 -14 q 226 -3 276 -14 q 139 33 176 8 q 80 100 101 58 q 58 204 58 142 q 81 302 58 263 q 140 365 103 342 q 226 397 178 388 q 326 407 275 407 q 406 403 365 407 q 478 393 446 399 l 478 461 q 465 519 478 496 q 431 555 453 542 q 381 573 410 568 q 318 578 351 578 q 222 570 272 578 q 132 554 172 563 l 124 658 m 500 124 q 474 296 475 194 q 410 303 444 299 q 343 307 376 307 q 285 303 313 307 q 238 287 258 299 q 205 253 217 275 q 193 197 193 232 q 232 111 193 138 q 325 85 271 85 q 419 94 372 85 q 500 124 467 104 m 918 392 q 775 585 918 585 q 660 535 696 585 q 618 392 624 486 l 918 392 z "},"ø":{"ha":774,"x_min":69,"x_max":704,"o":"m 704 335 q 622 68 704 150 q 386 -14 539 -14 q 233 13 296 -14 l 153 -117 l 83 -78 l 167 54 q 69 335 69 136 q 151 601 69 519 q 386 683 233 683 q 544 653 479 683 l 619 769 l 688 729 l 613 610 q 704 335 704 525 m 558 335 q 535 490 558 436 l 297 113 q 388 93 332 93 q 460 104 429 93 q 514 143 492 115 q 547 217 536 171 q 558 335 558 264 m 215 335 q 240 175 215 229 l 483 554 q 440 572 464 567 q 388 576 415 576 q 314 565 346 576 q 260 526 282 554 q 226 452 238 499 q 215 335 215 406 z "},"¿":{"ha":542,"x_min":11,"x_max":518,"o":"m 518 -233 q 416 -262 478 -250 q 283 -275 354 -275 q 175 -262 225 -275 q 88 -222 125 -249 q 31 -153 51 -194 q 11 -56 11 -112 q 27 36 11 -3 q 67 106 43 75 q 119 161 92 136 q 172 214 147 186 q 212 274 196 242 q 228 349 228 306 l 228 431 l 349 431 l 349 343 q 334 246 349 288 q 297 172 319 204 q 249 113 275 139 q 201 63 224 88 q 165 11 179 38 q 150 -47 150 -15 q 188 -137 150 -111 q 300 -164 226 -164 q 404 -153 351 -164 q 492 -126 457 -142 l 518 -233 m 375 607 q 351 551 375 571 q 288 531 328 531 q 226 551 250 531 q 203 607 203 571 q 226 663 203 643 q 288 683 250 683 q 351 663 328 683 q 375 607 375 643 z "},"¡":{"ha":417,"x_min":122,"x_max":294,"o":"m 135 -261 l 154 431 l 265 431 l 285 -261 l 135 -261 m 122 608 q 146 664 122 644 q 210 683 169 683 q 272 664 249 683 q 294 608 294 644 q 272 552 294 572 q 210 532 249 532 q 146 552 169 532 q 122 608 122 572 z "},"¬":{"ha":840,"x_min":93,"x_max":746,"o":"m 746 629 l 746 257 l 640 257 l 640 533 l 93 533 l 93 629 l 746 629 z "},"√":{"ha":840,"x_min":38,"x_max":801,"o":"m 265 669 l 431 139 l 686 924 l 801 924 l 497 0 l 367 0 l 172 575 l 38 575 l 38 669 l 265 669 z "},"ƒ":{"ha":840,"x_min":93,"x_max":756,"o":"m 269 532 l 269 678 q 345 877 269 817 q 550 938 421 938 q 655 933 600 938 q 756 918 710 928 l 740 807 q 655 821 700 814 q 569 828 610 828 q 508 822 536 828 q 458 799 479 815 q 426 756 438 783 q 415 688 415 729 l 415 532 l 725 532 l 725 435 l 415 435 l 415 0 l 269 0 l 269 435 l 93 435 l 93 532 l 269 532 z "},"≈":{"ha":840,"x_min":74,"x_max":764,"o":"m 164 497 q 119 515 142 507 q 74 533 97 524 q 138 626 94 589 q 256 663 181 663 q 336 651 292 663 q 426 628 381 640 q 510 604 471 615 q 575 593 550 593 q 638 610 617 593 q 675 664 658 628 l 764 628 q 697 533 743 569 q 576 497 651 497 q 497 508 540 497 q 409 533 453 519 q 327 558 365 547 q 264 569 289 569 q 202 551 224 569 q 164 497 181 532 m 164 219 q 119 238 142 229 q 74 256 97 246 q 138 348 94 311 q 256 385 181 385 q 336 374 292 385 q 426 350 381 363 q 510 326 471 338 q 575 315 550 315 q 638 333 617 315 q 675 386 658 350 l 764 350 q 697 256 743 292 q 576 219 651 219 q 497 231 540 219 q 409 256 453 242 q 327 281 365 269 q 264 292 289 292 q 202 273 224 292 q 164 219 181 254 z "},"Δ":{"ha":840,"x_min":42,"x_max":797,"o":"m 489 924 l 797 0 l 42 0 l 349 924 l 489 924 m 194 90 l 646 90 l 419 796 l 194 90 z "},"«":{"ha":799,"x_min":75,"x_max":724,"o":"m 413 628 l 226 376 l 413 125 l 286 125 l 75 376 l 286 628 l 413 628 m 724 628 l 557 376 l 724 125 l 597 125 l 406 376 l 597 628 l 724 628 z "},"»":{"ha":799,"x_min":75,"x_max":724,"o":"m 513 628 l 724 376 l 513 125 l 385 125 l 574 376 l 385 628 l 513 628 m 201 628 l 393 376 l 201 125 l 75 125 l 243 376 l 75 628 l 201 628 z "},"…":{"ha":1169,"x_min":100,"x_max":1069,"o":"m 190 147 q 256 126 232 147 q 281 68 281 106 q 256 9 281 31 q 190 -12 232 -12 q 125 9 150 -12 q 100 68 100 31 q 125 126 100 106 q 190 147 150 147 m 583 147 q 650 126 625 147 q 675 68 675 106 q 650 9 675 31 q 583 -12 625 -12 q 518 9 543 -12 q 493 68 493 31 q 518 126 493 106 q 583 147 543 147 m 978 147 q 1044 126 1019 147 q 1069 68 1069 106 q 1044 9 1069 31 q 978 -12 1019 -12 q 913 9 938 -12 q 888 68 888 31 q 913 126 888 106 q 978 147 938 147 z "}," ":{"ha":374,"x_min":0,"x_max":0,"o":""},"À":{"ha":940,"x_min":118,"x_max":822,"o":"m 261 0 l 118 0 l 118 600 q 135 737 118 675 q 194 844 153 799 q 302 913 235 889 q 469 938 369 938 q 638 913 569 938 q 747 844 706 889 q 805 737 788 799 q 822 600 822 675 l 822 0 l 676 0 l 676 342 l 261 342 l 261 0 m 676 451 l 676 604 q 667 694 676 653 q 633 765 657 735 q 569 811 608 794 q 469 828 529 828 q 369 811 408 828 q 305 765 329 794 q 271 694 281 735 q 261 604 261 653 l 261 451 l 676 451 m 419 1272 l 539 1049 l 425 1049 l 264 1272 l 419 1272 z "},"Ã":{"ha":940,"x_min":118,"x_max":822,"o":"m 261 0 l 118 0 l 118 600 q 135 737 118 675 q 194 844 153 799 q 302 913 235 889 q 469 938 369 938 q 638 913 569 938 q 747 844 706 889 q 805 737 788 799 q 822 600 822 675 l 822 0 l 676 0 l 676 342 l 261 342 l 261 0 m 676 451 l 676 604 q 667 694 676 653 q 633 765 657 735 q 569 811 608 794 q 469 828 529 828 q 369 811 408 828 q 305 765 329 794 q 271 694 281 735 q 261 604 261 653 l 261 451 l 676 451 m 264 1117 q 307 1194 275 1160 q 394 1228 339 1228 q 443 1221 421 1228 q 485 1205 465 1214 q 524 1189 506 1196 q 558 1182 542 1182 q 592 1198 583 1182 q 608 1233 600 1214 l 697 1206 q 649 1122 681 1156 q 565 1089 618 1089 q 522 1096 543 1089 q 480 1112 500 1103 q 442 1128 460 1121 q 408 1135 424 1135 q 370 1121 381 1135 q 353 1088 360 1107 l 264 1117 z "},"Õ":{"ha":957,"x_min":81,"x_max":874,"o":"m 874 461 q 848 243 874 333 q 772 95 822 153 q 648 11 722 38 q 478 -15 574 -15 q 306 11 381 -15 q 182 95 232 38 q 106 243 132 153 q 81 461 81 333 q 106 679 81 589 q 182 827 132 769 q 306 911 232 885 q 478 938 381 938 q 648 911 574 938 q 772 827 722 885 q 848 679 822 769 q 874 461 874 589 m 721 461 q 706 634 721 564 q 660 747 690 704 q 583 809 629 790 q 478 828 538 828 q 372 809 417 828 q 295 747 326 790 q 249 634 264 704 q 233 461 233 564 q 249 288 233 358 q 295 175 264 218 q 372 113 326 132 q 478 94 417 94 q 583 113 538 94 q 660 175 629 132 q 706 288 690 218 q 721 461 721 358 m 263 1115 q 306 1192 274 1158 q 393 1226 338 1226 q 442 1219 419 1226 q 484 1203 464 1213 q 522 1188 504 1194 q 557 1181 540 1181 q 590 1197 582 1181 q 607 1232 599 1213 l 696 1204 q 648 1121 679 1154 q 564 1088 617 1088 q 520 1094 542 1088 q 478 1110 499 1101 q 440 1126 458 1119 q 407 1133 422 1133 q 369 1119 379 1133 q 351 1086 358 1106 l 263 1115 z "},"Œ":{"ha":1376,"x_min":81,"x_max":1294,"o":"m 1275 924 l 1275 814 l 868 814 l 868 528 l 1235 528 l 1235 418 l 868 418 l 868 217 q 904 133 868 156 q 993 110 940 110 l 1294 110 l 1294 0 l 1038 0 q 938 3 983 0 q 858 19 893 7 q 799 51 824 31 q 761 108 775 72 q 645 15 717 44 q 474 -15 574 -15 q 305 11 378 -15 q 182 94 232 38 q 106 242 132 151 q 81 460 81 332 q 106 678 81 588 q 182 827 132 769 q 306 911 232 885 q 476 938 381 938 q 626 914 563 938 q 733 839 690 890 l 733 924 l 1275 924 m 478 828 q 371 809 417 828 q 294 747 325 790 q 248 634 264 704 q 232 461 232 564 q 248 288 232 358 q 294 175 264 218 q 371 113 325 132 q 478 94 417 94 q 583 113 538 94 q 660 175 629 132 q 706 288 690 218 q 721 461 721 358 q 706 634 721 564 q 660 747 690 704 q 583 809 629 790 q 478 828 538 828 z "},"œ":{"ha":1210,"x_min":69,"x_max":1143,"o":"m 707 294 q 719 206 708 244 q 754 143 729 168 q 821 106 779 118 q 926 93 863 93 q 975 95 949 93 q 1028 101 1001 97 q 1077 110 1054 106 q 1114 118 1100 114 l 1126 15 q 1029 -5 1086 4 q 911 -14 972 -14 q 743 11 813 -14 q 633 103 674 36 q 535 14 597 42 q 386 -14 474 -14 q 151 68 233 -14 q 69 335 69 150 q 151 601 69 519 q 386 683 233 683 q 534 656 474 683 q 631 568 594 628 q 724 657 664 631 q 869 683 785 683 q 992 663 940 683 q 1077 607 1043 643 q 1127 519 1111 571 q 1143 404 1143 468 l 1143 294 l 707 294 m 558 335 q 547 452 558 406 q 514 526 536 499 q 460 565 492 554 q 388 576 429 576 q 314 565 346 576 q 260 526 282 554 q 226 452 238 499 q 215 335 215 406 q 226 217 215 264 q 260 143 238 171 q 314 104 282 115 q 388 93 346 93 q 460 104 429 93 q 514 143 492 115 q 547 217 536 171 q 558 335 558 264 m 1007 392 q 864 585 1007 585 q 749 536 785 585 q 707 392 714 488 l 1007 392 z "},"–":{"ha":819,"x_min":86,"x_max":733,"o":"m 733 426 l 733 326 l 86 326 l 86 426 l 733 426 z "},"—":{"ha":1118,"x_min":86,"x_max":1032,"o":"m 1032 426 l 1032 326 l 86 326 l 86 426 l 1032 426 z "},"“":{"ha":651,"x_min":75,"x_max":561,"o":"m 365 628 l 454 924 l 561 924 l 497 628 l 365 628 m 75 628 l 197 924 l 304 924 l 213 628 l 75 628 z "},"”":{"ha":654,"x_min":90,"x_max":579,"o":"m 286 924 l 197 628 l 90 628 l 154 924 l 286 924 m 579 924 l 457 628 l 350 628 l 442 924 l 579 924 z "},"‘":{"ha":386,"x_min":75,"x_max":296,"o":"m 75 628 l 189 924 l 296 924 l 211 628 l 75 628 z "},"’":{"ha":386,"x_min":90,"x_max":311,"o":"m 311 924 l 197 628 l 90 628 l 175 924 l 311 924 z "},"÷":{"ha":840,"x_min":93,"x_max":746,"o":"m 504 686 q 483 634 504 653 q 424 615 461 615 q 365 634 386 615 q 343 686 343 653 q 365 738 343 719 q 424 756 386 756 q 483 738 461 756 q 504 686 504 719 m 746 492 l 746 394 l 93 394 l 93 492 l 746 492 m 504 201 q 483 149 504 167 q 424 131 461 131 q 365 149 386 131 q 343 201 343 167 q 365 253 343 235 q 424 271 386 271 q 483 253 461 271 q 504 201 504 235 z "},"◊":{"ha":840,"x_min":85,"x_max":754,"o":"m 465 924 l 754 463 l 465 0 l 374 0 l 85 463 l 374 924 l 465 924 m 211 463 l 419 122 l 628 463 l 419 800 l 211 463 z "},"ÿ":{"ha":801,"x_min":106,"x_max":683,"o":"m 683 669 l 683 -3 q 663 -131 683 -79 q 603 -215 642 -183 q 507 -261 564 -247 q 378 -275 450 -275 q 252 -265 318 -275 q 139 -242 186 -254 l 154 -137 q 261 -158 200 -149 q 374 -168 322 -168 q 503 -135 463 -168 q 543 -22 543 -101 l 543 17 q 469 5 507 10 q 394 0 431 0 q 283 12 336 0 q 191 51 231 24 q 128 126 151 79 q 106 242 106 172 l 106 669 l 246 669 l 246 240 q 258 176 246 203 q 290 135 269 150 q 338 113 311 119 q 397 106 365 106 q 476 112 436 106 q 543 126 517 118 l 543 669 l 683 669 m 350 903 q 330 853 350 871 q 271 835 310 835 q 210 853 231 835 q 190 903 190 871 q 210 953 190 935 q 271 971 231 971 q 330 953 310 971 q 350 903 350 935 m 606 903 q 585 853 606 871 q 525 835 564 835 q 466 853 486 835 q 446 903 446 871 q 466 953 446 935 q 525 971 486 971 q 585 953 564 971 q 606 903 606 935 z "},"Ÿ":{"ha":828,"x_min":-14,"x_max":821,"o":"m 388 1160 q 367 1110 388 1128 q 308 1092 347 1092 q 248 1110 268 1092 q 228 1160 228 1128 q 248 1210 228 1192 q 308 1228 268 1228 q 367 1210 347 1228 q 388 1160 388 1192 m 643 1160 q 622 1110 643 1128 q 563 1092 601 1092 q 503 1110 524 1092 q 483 1160 483 1128 q 503 1210 483 1192 q 563 1228 524 1228 q 622 1210 601 1228 q 643 1160 643 1192 m 338 315 l -14 924 l 160 924 l 431 453 q 518 555 478 499 q 590 672 558 611 q 642 797 621 732 q 674 924 663 861 l 821 924 q 779 754 810 840 q 703 589 749 668 q 602 440 658 510 q 483 318 546 369 l 483 0 l 338 0 l 338 315 z "},"⁄":{"ha":740,"x_min":15,"x_max":725,"o":"m 725 924 l 129 0 l 15 0 l 610 924 l 725 924 z "},"€":{"ha":840,"x_min":49,"x_max":760,"o":"m 333 292 q 397 140 346 185 q 536 94 449 94 q 640 101 585 94 q 744 122 696 108 l 760 17 q 648 -8 711 0 q 522 -15 585 -15 q 291 61 374 -15 q 181 292 208 138 l 49 292 l 49 378 l 168 378 q 166 416 167 397 q 165 458 165 435 l 165 510 l 49 510 l 49 596 l 175 596 q 279 854 193 771 q 524 938 365 938 q 653 931 592 938 q 758 915 714 925 l 739 803 q 636 821 694 814 q 528 828 578 828 q 387 774 436 828 q 326 596 338 719 l 692 596 l 657 510 l 319 510 q 318 483 318 497 q 318 456 318 469 q 319 415 318 435 q 321 378 319 396 l 615 378 l 582 292 l 333 292 z "},"‹":{"ha":493,"x_min":75,"x_max":418,"o":"m 418 628 l 226 376 l 418 125 l 292 125 l 75 376 l 292 628 l 418 628 z "},"›":{"ha":493,"x_min":74,"x_max":417,"o":"m 200 628 l 417 376 l 200 125 l 74 125 l 265 376 l 74 628 l 200 628 z "},"ﬁ":{"ha":813,"x_min":40,"x_max":696,"o":"m 147 669 l 147 781 q 171 893 147 846 q 235 970 194 940 q 331 1015 275 1000 q 451 1029 386 1029 q 573 1022 514 1029 q 668 1004 632 1014 l 653 896 q 565 913 617 906 q 460 919 513 919 q 336 889 383 919 q 289 782 289 858 l 289 669 l 696 669 l 696 0 l 556 0 l 556 568 l 289 568 l 289 0 l 147 0 l 147 568 l 40 568 l 40 669 l 147 669 z "},"ﬂ":{"ha":858,"x_min":40,"x_max":694,"o":"m 147 669 l 147 781 q 172 896 147 849 q 238 973 196 943 q 335 1016 279 1003 q 456 1029 392 1029 q 576 1023 518 1029 q 694 1006 635 1017 l 694 0 l 556 0 l 556 914 q 513 918 536 917 q 465 919 489 919 q 401 914 432 919 q 344 894 369 908 q 304 852 319 879 q 289 782 289 825 l 289 669 l 449 669 l 449 568 l 289 568 l 289 0 l 147 0 l 147 568 l 40 568 l 40 669 l 147 669 z "},"‡":{"ha":624,"x_min":46,"x_max":578,"o":"m 372 924 l 372 729 l 578 729 l 578 631 l 372 631 l 372 507 l 578 507 l 578 407 l 372 407 l 372 206 l 249 206 l 249 407 l 46 407 l 46 507 l 249 507 l 249 631 l 46 631 l 46 729 l 249 729 l 249 924 l 372 924 z "},"·":{"ha":382,"x_min":100,"x_max":281,"o":"m 190 454 q 256 433 232 454 q 281 375 281 413 q 256 316 281 338 q 190 294 232 294 q 125 316 150 294 q 100 375 100 338 q 125 433 100 413 q 190 454 150 454 z "},"‚":{"ha":386,"x_min":90,"x_max":311,"o":"m 311 74 l 197 -222 l 90 -222 l 175 74 l 311 74 z "},"„":{"ha":653,"x_min":90,"x_max":578,"o":"m 286 74 l 196 -222 l 90 -222 l 153 74 l 286 74 m 578 74 l 454 -222 l 349 -222 l 440 74 l 578 74 z "},"‰":{"ha":1724,"x_min":65,"x_max":1657,"o":"m 1438 394 q 1396 387 1415 394 q 1361 360 1376 379 q 1337 311 1346 342 q 1328 233 1328 281 q 1337 156 1328 188 q 1361 106 1346 125 q 1396 79 1376 88 q 1438 71 1415 71 q 1478 78 1458 71 q 1512 105 1497 86 q 1535 155 1526 124 q 1544 232 1544 186 q 1535 310 1544 279 q 1512 360 1526 342 q 1478 387 1497 379 q 1438 394 1458 394 m 1438 476 q 1525 463 1485 476 q 1594 421 1565 450 q 1640 345 1624 392 q 1657 232 1657 299 q 1595 45 1657 103 q 1438 -12 1533 -12 q 1350 1 1390 -12 q 1281 45 1310 15 q 1235 122 1251 75 q 1218 233 1218 168 q 1235 347 1218 300 q 1281 422 1251 393 q 1350 463 1310 450 q 1438 476 1390 476 m 286 856 q 244 848 264 856 q 210 822 225 840 q 185 774 194 804 q 176 696 176 743 q 185 617 176 649 q 210 567 194 586 q 244 540 225 549 q 286 532 264 532 q 327 540 308 532 q 360 567 346 549 q 383 617 375 586 q 392 694 392 649 q 383 773 392 742 q 360 822 375 804 q 327 848 346 840 q 286 856 308 856 m 286 938 q 374 924 333 938 q 443 883 414 911 q 489 808 472 854 q 506 694 506 761 q 489 583 506 629 q 443 507 472 536 q 374 464 414 478 q 286 450 333 450 q 197 464 238 450 q 128 508 157 478 q 82 584 99 538 q 65 696 65 631 q 82 808 65 763 q 128 883 99 854 q 197 924 157 911 q 286 938 238 938 m 908 394 q 867 387 888 394 q 833 360 847 379 q 809 311 818 342 q 800 233 800 281 q 809 156 800 188 q 833 106 818 125 q 867 79 847 88 q 908 71 888 71 q 950 78 931 71 q 984 105 969 86 q 1007 155 999 124 q 1015 232 1015 186 q 1007 310 1015 279 q 984 360 999 342 q 950 387 969 379 q 908 394 931 394 m 908 476 q 996 463 956 476 q 1065 421 1036 450 q 1111 345 1094 392 q 1128 232 1128 299 q 1066 45 1128 103 q 908 -12 1004 -12 q 821 1 861 -12 q 751 45 781 15 q 706 122 722 75 q 689 233 689 168 q 706 347 689 300 q 751 422 722 393 q 821 463 781 450 q 908 476 861 476 m 949 924 l 351 0 l 235 0 l 831 924 l 949 924 z "},"Â":{"ha":940,"x_min":118,"x_max":822,"o":"m 261 0 l 118 0 l 118 600 q 135 737 118 675 q 194 844 153 799 q 302 913 235 889 q 469 938 369 938 q 638 913 569 938 q 747 844 706 889 q 805 737 788 799 q 822 600 822 675 l 822 0 l 676 0 l 676 342 l 261 342 l 261 0 m 676 451 l 676 604 q 667 694 676 653 q 633 765 657 735 q 569 811 608 794 q 469 828 529 828 q 369 811 408 828 q 305 765 329 794 q 271 694 281 735 q 261 604 261 653 l 261 451 l 676 451 m 546 1272 l 688 1049 l 568 1049 l 482 1192 l 394 1049 l 274 1049 l 415 1272 l 546 1272 z "},"Ê":{"ha":786,"x_min":132,"x_max":704,"o":"m 686 924 l 686 814 l 278 814 l 278 528 l 646 528 l 646 418 l 278 418 l 278 218 q 312 133 278 157 q 404 110 346 110 l 704 110 l 704 0 l 399 0 q 203 52 274 0 q 132 219 132 104 l 132 924 l 686 924 m 472 1272 l 614 1049 l 494 1049 l 408 1192 l 321 1049 l 200 1049 l 342 1272 l 472 1272 z "},"Á":{"ha":940,"x_min":118,"x_max":822,"o":"m 261 0 l 118 0 l 118 600 q 135 737 118 675 q 194 844 153 799 q 302 913 235 889 q 469 938 369 938 q 638 913 569 938 q 747 844 706 889 q 805 737 788 799 q 822 600 822 675 l 822 0 l 676 0 l 676 342 l 261 342 l 261 0 m 676 451 l 676 604 q 667 694 676 653 q 633 765 657 735 q 569 811 608 794 q 469 828 529 828 q 369 811 408 828 q 305 765 329 794 q 271 694 281 735 q 261 604 261 653 l 261 451 l 676 451 m 697 1272 l 538 1049 l 422 1049 l 542 1272 l 697 1272 z "},"Ë":{"ha":786,"x_min":132,"x_max":704,"o":"m 686 924 l 686 814 l 278 814 l 278 528 l 646 528 l 646 418 l 278 418 l 278 218 q 312 133 278 157 q 404 110 346 110 l 704 110 l 704 0 l 399 0 q 203 52 274 0 q 132 219 132 104 l 132 924 l 686 924 m 363 1160 q 342 1110 363 1128 q 283 1092 322 1092 q 223 1110 243 1092 q 203 1160 203 1128 q 223 1210 203 1192 q 283 1228 243 1228 q 342 1210 322 1228 q 363 1160 363 1192 m 618 1160 q 597 1110 618 1128 q 538 1092 576 1092 q 478 1110 499 1092 q 458 1160 458 1128 q 478 1210 458 1192 q 538 1228 499 1228 q 597 1210 576 1228 q 618 1160 618 1192 z "},"È":{"ha":786,"x_min":132,"x_max":704,"o":"m 686 924 l 686 814 l 278 814 l 278 528 l 646 528 l 646 418 l 278 418 l 278 218 q 312 133 278 157 q 404 110 346 110 l 704 110 l 704 0 l 399 0 q 203 52 274 0 q 132 219 132 104 l 132 924 l 686 924 m 371 1272 l 490 1049 l 376 1049 l 215 1272 l 371 1272 z "},"Í":{"ha":432,"x_min":143,"x_max":435,"o":"m 289 924 l 289 0 l 143 0 l 143 924 l 289 924 m 435 1272 l 275 1049 l 160 1049 l 279 1272 l 435 1272 z "},"Î":{"ha":432,"x_min":7,"x_max":421,"o":"m 289 924 l 289 0 l 143 0 l 143 924 l 289 924 m 279 1272 l 421 1049 l 301 1049 l 215 1192 l 128 1049 l 7 1049 l 149 1272 l 279 1272 z "},"Ï":{"ha":432,"x_min":10,"x_max":425,"o":"m 289 924 l 289 0 l 143 0 l 143 924 l 289 924 m 169 1160 q 149 1110 169 1128 q 90 1092 129 1092 q 30 1110 50 1092 q 10 1160 10 1128 q 30 1210 10 1192 q 90 1228 50 1228 q 149 1210 129 1228 q 169 1160 169 1192 m 425 1160 q 404 1110 425 1128 q 344 1092 383 1092 q 285 1110 306 1092 q 265 1160 265 1128 q 285 1210 265 1192 q 344 1228 306 1228 q 404 1210 383 1228 q 425 1160 425 1192 z "},"Ì":{"ha":432,"x_min":-7,"x_max":289,"o":"m 289 924 l 289 0 l 143 0 l 143 924 l 289 924 m 149 1272 l 268 1049 l 154 1049 l -7 1272 l 149 1272 z "},"Ó":{"ha":957,"x_min":81,"x_max":874,"o":"m 874 461 q 848 243 874 333 q 772 95 822 153 q 648 11 722 38 q 478 -15 574 -15 q 306 11 381 -15 q 182 95 232 38 q 106 243 132 153 q 81 461 81 333 q 106 679 81 589 q 182 827 132 769 q 306 911 232 885 q 478 938 381 938 q 648 911 574 938 q 772 827 722 885 q 848 679 822 769 q 874 461 874 589 m 721 461 q 706 634 721 564 q 660 747 690 704 q 583 809 629 790 q 478 828 538 828 q 372 809 417 828 q 295 747 326 790 q 249 634 264 704 q 233 461 233 564 q 249 288 233 358 q 295 175 264 218 q 372 113 326 132 q 478 94 417 94 q 583 113 538 94 q 660 175 629 132 q 706 288 690 218 q 721 461 721 358 m 688 1272 l 528 1049 l 413 1049 l 532 1272 l 688 1272 z "},"Ô":{"ha":957,"x_min":81,"x_max":874,"o":"m 874 461 q 848 243 874 333 q 772 95 822 153 q 648 11 722 38 q 478 -15 574 -15 q 306 11 381 -15 q 182 95 232 38 q 106 243 132 153 q 81 461 81 333 q 106 679 81 589 q 182 827 132 769 q 306 911 232 885 q 478 938 381 938 q 648 911 574 938 q 772 827 722 885 q 848 679 822 769 q 874 461 874 589 m 721 461 q 706 634 721 564 q 660 747 690 704 q 583 809 629 790 q 478 828 538 828 q 372 809 417 828 q 295 747 326 790 q 249 634 264 704 q 233 461 233 564 q 249 288 233 358 q 295 175 264 218 q 372 113 326 132 q 478 94 417 94 q 583 113 538 94 q 660 175 629 132 q 706 288 690 218 q 721 461 721 358 m 542 1272 l 683 1049 l 564 1049 l 478 1192 l 390 1049 l 269 1049 l 411 1272 l 542 1272 z "},"Ò":{"ha":957,"x_min":81,"x_max":874,"o":"m 874 461 q 848 243 874 333 q 772 95 822 153 q 648 11 722 38 q 478 -15 574 -15 q 306 11 381 -15 q 182 95 232 38 q 106 243 132 153 q 81 461 81 333 q 106 679 81 589 q 182 827 132 769 q 306 911 232 885 q 478 938 381 938 q 648 911 574 938 q 772 827 722 885 q 848 679 822 769 q 874 461 874 589 m 721 461 q 706 634 721 564 q 660 747 690 704 q 583 809 629 790 q 478 828 538 828 q 372 809 417 828 q 295 747 326 790 q 249 634 264 704 q 233 461 233 564 q 249 288 233 358 q 295 175 264 218 q 372 113 326 132 q 478 94 417 94 q 583 113 538 94 q 660 175 629 132 q 706 288 690 218 q 721 461 721 358 m 415 1272 l 535 1049 l 421 1049 l 260 1272 l 415 1272 z "},"Ú":{"ha":979,"x_min":126,"x_max":847,"o":"m 272 924 l 272 311 q 324 154 272 214 q 496 94 376 94 q 613 103 560 94 q 701 121 665 111 l 701 924 l 847 924 l 847 42 q 699 4 786 24 q 492 -15 613 -15 q 322 8 392 -15 q 209 76 253 32 q 146 181 165 119 q 126 317 126 242 l 126 924 l 272 924 m 703 1272 l 543 1049 l 428 1049 l 547 1272 l 703 1272 z "},"Û":{"ha":979,"x_min":126,"x_max":847,"o":"m 272 924 l 272 311 q 324 154 272 214 q 496 94 376 94 q 613 103 560 94 q 701 121 665 111 l 701 924 l 847 924 l 847 42 q 699 4 786 24 q 492 -15 613 -15 q 322 8 392 -15 q 209 76 253 32 q 146 181 165 119 q 126 317 126 242 l 126 924 l 272 924 m 554 1272 l 696 1049 l 576 1049 l 490 1192 l 403 1049 l 282 1049 l 424 1272 l 554 1272 z "},"Ù":{"ha":979,"x_min":126,"x_max":847,"o":"m 272 924 l 272 311 q 324 154 272 214 q 496 94 376 94 q 613 103 560 94 q 701 121 665 111 l 701 924 l 847 924 l 847 42 q 699 4 786 24 q 492 -15 613 -15 q 322 8 392 -15 q 209 76 253 32 q 146 181 165 119 q 126 317 126 242 l 126 924 l 272 924 m 424 1272 l 543 1049 l 429 1049 l 268 1272 l 424 1272 z "},"ı":{"ha":379,"x_min":119,"x_max":260,"o":"m 260 669 l 260 0 l 119 0 l 119 669 l 260 669 z "},"ˆ":{"ha":764,"x_min":174,"x_max":588,"o":"m 446 1014 l 588 790 l 468 790 l 382 933 l 294 790 l 174 790 l 315 1014 l 446 1014 z "},"˜":{"ha":764,"x_min":165,"x_max":599,"o":"m 165 858 q 208 935 176 901 q 296 969 240 969 q 344 963 322 969 q 387 947 367 956 q 425 931 407 938 q 460 924 443 924 q 493 940 485 924 q 510 975 501 956 l 599 947 q 551 864 582 897 q 467 831 519 831 q 423 838 444 831 q 381 853 401 844 q 343 869 361 863 q 310 876 325 876 q 272 863 282 876 q 254 829 261 849 l 165 858 z "},"¯":{"ha":764,"x_min":200,"x_max":564,"o":"m 564 947 l 564 856 l 200 856 l 200 947 l 564 947 z "},"˘":{"ha":764,"x_min":175,"x_max":589,"o":"m 281 993 q 306 926 282 950 q 382 901 331 901 q 458 926 433 901 q 483 993 482 950 l 589 993 q 572 910 588 944 q 528 853 556 876 q 463 820 500 831 q 382 810 425 810 q 301 820 338 810 q 236 853 264 831 q 192 910 208 876 q 175 993 176 944 l 281 993 z "},"˙":{"ha":764,"x_min":300,"x_max":464,"o":"m 464 903 q 443 852 464 871 q 382 833 422 833 q 321 852 342 833 q 300 903 300 871 q 321 954 300 935 q 382 974 342 974 q 443 954 422 974 q 464 903 464 935 z "},"˚":{"ha":764,"x_min":233,"x_max":529,"o":"m 529 900 q 490 812 529 842 q 381 782 450 782 q 273 812 313 782 q 233 900 233 842 q 273 990 233 960 q 381 1019 313 1019 q 490 990 450 1019 q 529 900 529 960 m 439 900 q 426 940 439 928 q 381 953 413 953 q 324 900 324 953 q 381 847 324 847 q 426 860 413 847 q 439 900 439 874 z "},"¸":{"ha":764,"x_min":254,"x_max":497,"o":"m 454 -64 q 485 -116 472 -89 q 497 -169 497 -143 q 467 -247 497 -218 q 367 -275 438 -275 q 306 -269 339 -275 q 254 -257 274 -264 l 272 -174 q 307 -183 288 -179 q 340 -186 326 -186 q 375 -177 367 -186 q 383 -149 383 -168 q 374 -108 383 -129 q 351 -64 364 -86 l 454 -64 z "},"˝":{"ha":764,"x_min":207,"x_max":617,"o":"m 617 1014 l 490 790 l 388 790 l 472 1014 l 617 1014 m 390 1014 l 307 790 l 207 790 l 261 1014 l 390 1014 z "},"˛":{"ha":764,"x_min":258,"x_max":501,"o":"m 440 0 q 394 -56 418 -21 q 369 -122 369 -90 q 383 -153 369 -144 q 419 -161 397 -161 q 451 -158 432 -161 q 486 -149 471 -156 l 501 -235 q 396 -254 456 -254 q 299 -230 340 -254 q 258 -147 258 -206 q 283 -58 258 -96 q 333 0 308 -19 l 440 0 z "},"ˇ":{"ha":764,"x_min":174,"x_max":588,"o":"m 315 790 l 174 1014 l 294 1014 l 382 869 l 468 1014 l 588 1014 l 446 790 l 315 790 z "},"¦":{"ha":410,"x_min":147,"x_max":263,"o":"m 263 1111 l 263 554 l 147 554 l 147 1111 l 263 1111 m 263 279 l 263 -278 l 147 -278 l 147 279 l 263 279 z "},"²":{"ha":458,"x_min":60,"x_max":390,"o":"m 68 918 q 211 938 129 938 q 337 904 288 938 q 386 800 386 871 q 357 706 386 746 q 281 622 328 667 l 193 540 l 390 540 l 390 461 l 60 461 l 60 529 l 194 663 q 263 735 242 708 q 283 794 283 763 q 260 844 283 831 q 199 857 236 857 q 134 851 167 857 q 78 839 101 846 l 68 918 z "},"³":{"ha":458,"x_min":51,"x_max":394,"o":"m 376 924 l 376 853 l 238 731 l 243 731 q 299 722 272 731 q 348 698 326 714 q 382 658 369 682 q 394 600 394 633 q 341 479 394 518 q 207 440 288 440 q 120 449 161 440 q 51 468 79 457 l 65 547 q 126 530 89 538 q 200 522 164 522 q 265 538 240 522 q 290 597 290 553 q 261 650 290 638 q 188 663 232 663 l 125 663 l 125 726 l 250 846 l 56 846 l 56 924 l 376 924 z "},"¹":{"ha":435,"x_min":61,"x_max":276,"o":"m 200 924 l 276 924 l 276 460 l 174 460 l 174 833 l 61 806 l 61 890 l 200 924 z "},"¼":{"ha":1108,"x_min":61,"x_max":1051,"o":"m 986 476 l 986 178 l 1051 178 l 1051 101 l 986 101 l 986 0 l 886 0 l 886 101 l 671 101 l 671 168 l 854 476 l 986 476 m 886 178 l 886 372 l 768 178 l 886 178 m 883 924 l 288 0 l 174 0 l 768 924 l 883 924 m 200 924 l 276 924 l 276 460 l 174 460 l 174 833 l 61 806 l 61 890 l 200 924 z "},"½":{"ha":1108,"x_min":61,"x_max":1011,"o":"m 878 924 l 282 0 l 168 0 l 763 924 l 878 924 m 200 924 l 276 924 l 276 460 l 174 460 l 174 833 l 61 806 l 61 890 l 200 924 m 689 457 q 832 476 750 476 q 958 443 908 476 q 1007 339 1007 410 q 978 245 1007 285 q 901 161 949 206 l 814 79 l 1011 79 l 1011 0 l 681 0 l 681 68 l 815 201 q 883 274 863 247 q 904 333 904 301 q 881 383 904 369 q 819 396 857 396 q 755 390 788 396 q 699 378 722 385 l 689 457 z "},"¾":{"ha":1108,"x_min":57,"x_max":1053,"o":"m 988 476 l 988 178 l 1053 178 l 1053 101 l 988 101 l 988 0 l 888 0 l 888 101 l 672 101 l 672 168 l 856 476 l 988 476 m 888 178 l 888 372 l 769 178 l 888 178 m 935 924 l 339 0 l 225 0 l 819 924 l 935 924 m 382 924 l 382 853 l 243 731 l 249 731 q 305 722 278 731 q 353 698 332 714 q 388 658 375 682 q 400 600 400 633 q 347 479 400 518 q 213 440 293 440 q 126 449 167 440 q 57 468 85 457 l 71 547 q 132 530 94 538 q 206 522 169 522 q 271 538 246 522 q 296 597 296 553 q 267 650 296 638 q 193 663 238 663 l 131 663 l 131 726 l 256 846 l 61 846 l 61 924 l 382 924 z "},"Ð":{"ha":961,"x_min":28,"x_max":881,"o":"m 28 522 l 154 522 l 154 924 l 467 924 q 642 897 565 924 q 772 815 719 871 q 853 674 825 760 q 881 469 881 588 q 858 267 881 357 q 785 114 836 176 q 651 18 733 51 q 447 -15 568 -15 q 305 -6 378 -15 q 154 19 232 3 l 154 413 l 28 413 l 28 522 m 300 522 l 524 522 l 524 413 l 300 413 l 300 107 q 451 94 368 94 q 664 184 597 94 q 731 469 731 274 q 713 628 731 563 q 661 735 694 693 q 578 795 628 776 q 467 814 529 814 l 300 814 l 300 522 z "},"×":{"ha":840,"x_min":117,"x_max":722,"o":"m 121 647 l 194 718 l 418 513 l 647 722 l 722 650 l 497 442 l 719 236 l 647 164 l 418 372 l 190 164 l 117 235 l 340 442 l 121 647 z "},"Ý":{"ha":828,"x_min":-14,"x_max":821,"o":"m 633 1272 l 474 1049 l 358 1049 l 478 1272 l 633 1272 m 338 315 l -14 924 l 160 924 l 431 453 q 518 555 478 499 q 590 672 558 611 q 642 797 621 732 q 674 924 663 861 l 821 924 q 779 754 810 840 q 703 589 749 668 q 602 440 658 510 q 483 318 546 369 l 483 0 l 338 0 l 338 315 z "},"Þ":{"ha":861,"x_min":143,"x_max":794,"o":"m 289 924 l 289 765 l 442 765 q 595 751 529 765 q 706 701 661 736 q 772 611 750 667 q 794 472 794 556 q 771 333 794 390 q 702 240 747 275 q 594 188 657 204 q 451 172 531 172 q 289 188 378 172 l 289 0 l 143 0 l 143 924 l 289 924 m 289 297 q 436 283 367 283 q 600 331 553 283 q 647 472 647 378 q 635 560 647 525 q 599 617 624 596 q 535 647 574 638 q 442 656 496 656 l 289 656 l 289 297 z "},"ð":{"ha":774,"x_min":69,"x_max":711,"o":"m 468 1014 q 515 960 494 986 q 556 903 536 935 l 711 932 l 711 844 l 604 824 q 682 594 660 708 q 704 356 704 481 q 624 80 704 174 q 386 -14 543 -14 q 254 6 313 -14 q 155 67 196 25 q 92 174 114 108 q 69 335 69 240 q 150 599 69 514 q 375 683 231 683 q 557 614 507 683 q 526 708 546 654 q 483 800 507 761 l 231 754 l 231 843 l 436 881 q 388 947 413 915 q 331 1014 363 978 l 468 1014 m 558 332 q 551 435 558 389 q 525 512 544 481 q 472 560 506 543 q 386 576 439 576 q 313 565 344 576 q 260 526 282 554 q 226 452 238 499 q 215 335 215 406 q 226 217 215 264 q 260 143 238 171 q 313 104 282 115 q 386 93 344 93 q 458 104 426 93 q 513 143 490 115 q 547 217 535 171 q 558 332 558 263 z "},"ý":{"ha":801,"x_min":106,"x_max":683,"o":"m 683 669 l 683 -3 q 663 -131 683 -79 q 603 -215 642 -183 q 507 -261 564 -247 q 378 -275 450 -275 q 252 -265 318 -275 q 139 -242 186 -254 l 154 -137 q 261 -158 200 -149 q 374 -168 322 -168 q 503 -135 463 -168 q 543 -22 543 -101 l 543 17 q 469 5 507 10 q 394 0 431 0 q 283 12 336 0 q 191 51 231 24 q 128 126 151 79 q 106 242 106 172 l 106 669 l 246 669 l 246 240 q 258 176 246 203 q 290 135 269 150 q 338 113 311 119 q 397 106 365 106 q 476 112 436 106 q 543 126 517 118 l 543 669 l 683 669 m 603 1014 l 443 790 l 328 790 l 447 1014 l 603 1014 z "},"þ":{"ha":794,"x_min":119,"x_max":725,"o":"m 260 1014 l 260 665 q 338 678 299 674 q 413 683 376 683 q 536 666 479 683 q 635 608 593 649 q 701 502 678 568 q 725 340 725 436 q 701 166 725 235 q 635 58 676 97 q 538 3 593 18 q 421 -12 483 -12 q 338 -8 381 -12 q 260 3 296 -3 l 260 -261 l 119 -261 l 119 1014 l 260 1014 m 260 110 q 336 97 299 103 q 411 92 374 92 q 480 102 449 92 q 533 140 511 113 q 567 217 556 168 q 579 340 579 265 q 567 457 579 411 q 532 529 554 503 q 478 566 510 556 q 410 576 447 576 q 331 569 375 576 q 260 556 286 563 l 260 110 z "},"Ā":{"ha":940,"x_min":118,"x_max":822,"o":"m 261 0 l 118 0 l 118 600 q 135 737 118 675 q 194 844 153 799 q 302 913 235 889 q 469 938 369 938 q 638 913 569 938 q 747 844 706 889 q 805 737 788 799 q 822 600 822 675 l 822 0 l 676 0 l 676 342 l 261 342 l 261 0 m 676 451 l 676 604 q 667 694 676 653 q 633 765 657 735 q 569 811 608 794 q 469 828 529 828 q 369 811 408 828 q 305 765 329 794 q 271 694 281 735 q 261 604 261 653 l 261 451 l 676 451 m 663 1206 l 663 1114 l 299 1114 l 299 1206 l 663 1206 z "},"ā":{"ha":718,"x_min":58,"x_max":618,"o":"m 478 294 q 414 303 449 300 q 343 307 379 307 q 285 303 313 307 q 238 287 258 299 q 206 253 218 275 q 194 197 194 232 q 235 109 194 133 q 335 85 276 85 q 413 90 376 85 q 478 103 450 96 l 478 294 m 124 660 q 222 676 168 669 q 326 683 275 683 q 438 673 385 683 q 531 637 492 663 q 594 569 571 611 q 618 465 618 528 l 618 33 q 491 2 565 18 q 332 -14 417 -14 q 224 -3 274 -14 q 137 34 174 8 q 79 101 100 60 q 58 206 58 143 q 81 303 58 264 q 142 365 104 342 q 229 399 179 389 q 333 408 279 408 q 413 405 378 408 q 478 396 449 401 l 478 461 q 433 555 478 531 q 319 579 388 579 q 222 571 272 579 q 133 554 172 563 l 124 660 m 549 947 l 549 856 l 185 856 l 185 947 l 549 947 z "},"Ă":{"ha":940,"x_min":118,"x_max":822,"o":"m 261 0 l 118 0 l 118 600 q 135 737 118 675 q 194 844 153 799 q 302 913 235 889 q 469 938 369 938 q 638 913 569 938 q 747 844 706 889 q 805 737 788 799 q 822 600 822 675 l 822 0 l 676 0 l 676 342 l 261 342 l 261 0 m 676 451 l 676 604 q 667 694 676 653 q 633 765 657 735 q 569 811 608 794 q 469 828 529 828 q 369 811 408 828 q 305 765 329 794 q 271 694 281 735 q 261 604 261 653 l 261 451 l 676 451 m 379 1251 q 405 1184 381 1208 q 481 1160 429 1160 q 556 1184 532 1160 q 582 1251 581 1208 l 688 1251 q 670 1169 686 1203 q 626 1112 654 1135 q 561 1078 599 1089 q 481 1068 524 1068 q 399 1078 436 1068 q 335 1112 363 1089 q 291 1169 307 1135 q 274 1251 275 1203 l 379 1251 z "},"ă":{"ha":718,"x_min":58,"x_max":618,"o":"m 478 294 q 414 303 449 300 q 343 307 379 307 q 285 303 313 307 q 238 287 258 299 q 206 253 218 275 q 194 197 194 232 q 235 109 194 133 q 335 85 276 85 q 413 90 376 85 q 478 103 450 96 l 478 294 m 124 660 q 222 676 168 669 q 326 683 275 683 q 438 673 385 683 q 531 637 492 663 q 594 569 571 611 q 618 465 618 528 l 618 33 q 491 2 565 18 q 332 -14 417 -14 q 224 -3 274 -14 q 137 34 174 8 q 79 101 100 60 q 58 206 58 143 q 81 303 58 264 q 142 365 104 342 q 229 399 179 389 q 333 408 279 408 q 413 405 378 408 q 478 396 449 401 l 478 461 q 433 555 478 531 q 319 579 388 579 q 222 571 272 579 q 133 554 172 563 l 124 660 m 265 993 q 291 926 267 950 q 367 901 315 901 q 442 926 418 901 q 468 993 467 950 l 574 993 q 556 910 572 944 q 513 853 540 876 q 447 820 485 831 q 367 810 410 810 q 285 820 322 810 q 221 853 249 831 q 177 910 193 876 q 160 993 161 944 l 265 993 z "},"Ą":{"ha":940,"x_min":118,"x_max":883,"o":"m 676 0 l 676 342 l 261 342 l 261 0 l 118 0 l 118 600 q 135 737 118 675 q 194 844 153 799 q 302 913 235 889 q 469 938 369 938 q 638 913 569 938 q 747 844 706 889 q 805 737 788 799 q 822 600 822 675 l 822 0 q 776 -56 800 -21 q 751 -122 751 -90 q 765 -153 751 -144 q 801 -161 779 -161 q 833 -158 814 -161 q 868 -149 853 -156 l 883 -235 q 778 -254 838 -254 q 681 -230 722 -254 q 640 -147 640 -206 q 665 -58 640 -96 q 715 0 690 -19 l 676 0 m 676 451 l 676 604 q 667 694 676 653 q 633 765 657 735 q 569 811 608 794 q 469 828 529 828 q 369 811 408 828 q 305 765 329 794 q 271 694 281 735 q 261 604 261 653 l 261 451 l 676 451 z "},"ą":{"ha":718,"x_min":58,"x_max":679,"o":"m 124 660 q 222 676 168 669 q 326 683 275 683 q 438 673 385 683 q 531 637 492 663 q 594 569 571 611 q 618 465 618 528 l 618 33 q 572 -22 596 13 q 547 -89 547 -57 q 561 -119 547 -111 q 597 -128 575 -128 q 629 -125 610 -128 q 664 -115 649 -122 l 679 -201 q 574 -221 633 -221 q 477 -197 518 -221 q 436 -114 436 -172 q 449 -49 436 -78 q 478 0 461 -21 q 408 -10 444 -6 q 332 -14 371 -14 q 224 -3 274 -14 q 137 34 174 8 q 79 101 100 60 q 58 206 58 143 q 81 303 58 264 q 142 365 104 342 q 229 399 179 389 q 333 408 279 408 q 413 405 378 408 q 478 396 449 401 l 478 461 q 433 555 478 531 q 319 579 388 579 q 222 571 272 579 q 133 554 172 563 l 124 660 m 478 294 q 414 303 449 300 q 343 307 379 307 q 285 303 313 307 q 238 287 258 299 q 206 253 218 275 q 194 197 194 232 q 235 109 194 133 q 335 85 276 85 q 413 90 376 85 q 478 103 450 96 l 478 294 z "},"Ć":{"ha":801,"x_min":81,"x_max":733,"o":"m 713 803 q 603 821 664 814 q 490 828 543 828 q 377 810 425 828 q 297 751 329 793 q 249 640 265 710 q 233 464 233 569 q 250 283 233 354 q 299 169 267 211 q 381 111 332 128 q 496 94 431 94 q 609 103 549 94 q 722 124 669 113 l 733 14 q 614 -8 678 -1 q 492 -15 550 -15 q 319 8 396 -15 q 190 88 243 32 q 108 235 136 143 q 81 463 81 326 q 108 690 81 599 q 190 837 136 782 q 321 915 243 892 q 497 938 399 938 q 618 931 557 938 q 729 914 679 924 l 713 803 m 654 1272 l 494 1049 l 379 1049 l 499 1272 l 654 1272 z "},"ć":{"ha":618,"x_min":69,"x_max":569,"o":"m 544 560 q 472 572 511 567 q 393 576 433 576 q 318 566 351 576 q 262 528 285 556 q 227 455 239 501 q 215 335 215 408 q 225 222 215 268 q 256 147 235 175 q 313 106 278 118 q 396 93 347 93 q 477 99 439 93 q 554 115 515 106 l 567 11 q 481 -7 526 0 q 388 -14 435 -14 q 258 4 317 -14 q 158 63 200 22 q 92 171 115 104 q 69 336 69 238 q 93 503 69 436 q 160 610 117 571 q 263 667 203 650 q 394 683 322 683 q 482 678 438 683 q 558 665 526 672 l 544 560 m 569 1014 l 410 790 l 294 790 l 414 1014 l 569 1014 z "},"Ĉ":{"ha":801,"x_min":81,"x_max":733,"o":"m 713 803 q 603 821 664 814 q 490 828 543 828 q 377 810 425 828 q 297 751 329 793 q 249 640 265 710 q 233 464 233 569 q 250 283 233 354 q 299 169 267 211 q 381 111 332 128 q 496 94 431 94 q 609 103 549 94 q 722 124 669 113 l 733 14 q 614 -8 678 -1 q 492 -15 550 -15 q 319 8 396 -15 q 190 88 243 32 q 108 235 136 143 q 81 463 81 326 q 108 690 81 599 q 190 837 136 782 q 321 915 243 892 q 497 938 399 938 q 618 931 557 938 q 729 914 679 924 l 713 803 m 501 1272 l 643 1049 l 524 1049 l 438 1192 l 350 1049 l 229 1049 l 371 1272 l 501 1272 z "},"ĉ":{"ha":618,"x_min":69,"x_max":567,"o":"m 544 560 q 472 572 511 567 q 393 576 433 576 q 318 566 351 576 q 262 528 285 556 q 227 455 239 501 q 215 335 215 408 q 225 222 215 268 q 256 147 235 175 q 313 106 278 118 q 396 93 347 93 q 477 99 439 93 q 554 115 515 106 l 567 11 q 481 -7 526 0 q 388 -14 435 -14 q 258 4 317 -14 q 158 63 200 22 q 92 171 115 104 q 69 336 69 238 q 93 503 69 436 q 160 610 117 571 q 263 667 203 650 q 394 683 322 683 q 482 678 438 683 q 558 665 526 672 l 544 560 m 417 1014 l 558 790 l 439 790 l 353 933 l 265 790 l 144 790 l 286 1014 l 417 1014 z "},"Ċ":{"ha":801,"x_min":81,"x_max":733,"o":"m 713 803 q 603 821 664 814 q 490 828 543 828 q 377 810 425 828 q 297 751 329 793 q 249 640 265 710 q 233 464 233 569 q 250 283 233 354 q 299 169 267 211 q 381 111 332 128 q 496 94 431 94 q 609 103 549 94 q 722 124 669 113 l 733 14 q 614 -8 678 -1 q 492 -15 550 -15 q 319 8 396 -15 q 190 88 243 32 q 108 235 136 143 q 81 463 81 326 q 108 690 81 599 q 190 837 136 782 q 321 915 243 892 q 497 938 399 938 q 618 931 557 938 q 729 914 679 924 l 713 803 m 519 1160 q 499 1109 519 1128 q 438 1090 478 1090 q 376 1109 397 1090 q 356 1160 356 1128 q 376 1211 356 1192 q 438 1231 397 1231 q 499 1211 478 1231 q 519 1160 519 1192 z "},"ċ":{"ha":618,"x_min":69,"x_max":567,"o":"m 544 560 q 472 572 511 567 q 393 576 433 576 q 318 566 351 576 q 262 528 285 556 q 227 455 239 501 q 215 335 215 408 q 225 222 215 268 q 256 147 235 175 q 313 106 278 118 q 396 93 347 93 q 477 99 439 93 q 554 115 515 106 l 567 11 q 481 -7 526 0 q 388 -14 435 -14 q 258 4 317 -14 q 158 63 200 22 q 92 171 115 104 q 69 336 69 238 q 93 503 69 436 q 160 610 117 571 q 263 667 203 650 q 394 683 322 683 q 482 678 438 683 q 558 665 526 672 l 544 560 m 435 903 q 414 852 435 871 q 353 833 393 833 q 292 852 313 833 q 271 903 271 871 q 292 954 271 935 q 353 974 313 974 q 414 954 393 974 q 435 903 435 935 z "},"Č":{"ha":801,"x_min":81,"x_max":733,"o":"m 713 803 q 603 821 664 814 q 490 828 543 828 q 377 810 425 828 q 297 751 329 793 q 249 640 265 710 q 233 464 233 569 q 250 283 233 354 q 299 169 267 211 q 381 111 332 128 q 496 94 431 94 q 609 103 549 94 q 722 124 669 113 l 733 14 q 614 -8 678 -1 q 492 -15 550 -15 q 319 8 396 -15 q 190 88 243 32 q 108 235 136 143 q 81 463 81 326 q 108 690 81 599 q 190 837 136 782 q 321 915 243 892 q 497 938 399 938 q 618 931 557 938 q 729 914 679 924 l 713 803 m 371 1049 l 229 1272 l 350 1272 l 438 1128 l 524 1272 l 643 1272 l 501 1049 l 371 1049 z "},"č":{"ha":618,"x_min":69,"x_max":567,"o":"m 544 560 q 472 572 511 567 q 393 576 433 576 q 318 566 351 576 q 262 528 285 556 q 227 455 239 501 q 215 335 215 408 q 225 222 215 268 q 256 147 235 175 q 313 106 278 118 q 396 93 347 93 q 477 99 439 93 q 554 115 515 106 l 567 11 q 481 -7 526 0 q 388 -14 435 -14 q 258 4 317 -14 q 158 63 200 22 q 92 171 115 104 q 69 336 69 238 q 93 503 69 436 q 160 610 117 571 q 263 667 203 650 q 394 683 322 683 q 482 678 438 683 q 558 665 526 672 l 544 560 m 288 790 l 146 1014 l 267 1014 l 354 869 l 440 1014 l 560 1014 l 418 790 l 288 790 z "},"Ď":{"ha":946,"x_min":139,"x_max":865,"o":"m 451 924 q 627 897 550 924 q 757 815 704 871 q 838 674 810 760 q 865 471 865 589 q 843 267 865 357 q 769 114 821 176 q 635 18 718 51 q 432 -15 553 -15 q 290 -7 363 -15 q 139 19 217 1 l 139 924 l 451 924 m 285 107 q 436 94 353 94 q 649 185 582 94 q 715 469 715 275 q 697 628 715 563 q 646 735 679 694 q 563 795 613 776 q 451 814 514 814 l 285 814 l 285 107 m 401 1049 l 260 1272 l 381 1272 l 468 1128 l 554 1272 l 674 1272 l 532 1049 l 401 1049 z "},"ď":{"ha":919,"x_min":69,"x_max":965,"o":"m 535 556 q 460 571 497 565 q 385 576 422 576 q 319 566 350 576 q 265 528 288 556 q 228 456 242 501 q 215 340 215 411 q 227 217 215 265 q 261 141 239 169 q 315 102 283 113 q 388 92 347 92 q 461 97 424 92 q 535 108 499 101 l 535 556 m 675 1014 l 675 26 q 532 -1 613 11 q 385 -14 451 -14 q 261 2 318 -14 q 161 59 204 18 q 94 168 118 100 q 69 340 69 236 q 94 503 69 438 q 160 608 118 568 q 258 666 201 649 q 379 683 314 683 q 457 678 419 683 q 535 664 494 672 l 535 1014 l 675 1014 m 965 924 l 851 628 l 744 628 l 829 924 l 965 924 z "},"Đ":{"ha":961,"x_min":28,"x_max":881,"o":"m 28 522 l 154 522 l 154 924 l 467 924 q 642 897 565 924 q 772 815 719 871 q 853 674 825 760 q 881 469 881 588 q 858 267 881 357 q 785 114 836 176 q 651 18 733 51 q 447 -15 568 -15 q 305 -6 378 -15 q 154 19 232 3 l 154 413 l 28 413 l 28 522 m 300 522 l 524 522 l 524 413 l 300 413 l 300 107 q 451 94 368 94 q 664 184 597 94 q 731 469 731 274 q 713 628 731 563 q 661 735 694 693 q 578 795 628 776 q 467 814 529 814 l 300 814 l 300 522 z "},"đ":{"ha":847,"x_min":69,"x_max":806,"o":"m 314 889 l 535 889 l 535 1014 l 675 1014 l 675 889 l 806 889 l 806 796 l 675 796 l 675 26 q 532 -1 613 11 q 385 -14 451 -14 q 261 2 318 -14 q 161 59 204 18 q 94 168 118 100 q 69 340 69 236 q 94 503 69 438 q 160 608 118 568 q 258 666 201 649 q 379 683 314 683 q 457 678 419 683 q 535 664 494 672 l 535 796 l 314 796 l 314 889 m 535 556 q 460 571 497 565 q 385 576 422 576 q 319 566 350 576 q 265 528 288 556 q 228 456 242 501 q 215 340 215 411 q 227 217 215 265 q 261 141 239 169 q 315 102 283 113 q 388 92 347 92 q 461 97 424 92 q 535 108 499 101 l 535 556 z "},"Ē":{"ha":786,"x_min":132,"x_max":704,"o":"m 686 924 l 686 814 l 278 814 l 278 528 l 646 528 l 646 418 l 278 418 l 278 218 q 312 133 278 157 q 404 110 346 110 l 704 110 l 704 0 l 399 0 q 203 52 274 0 q 132 219 132 104 l 132 924 l 686 924 m 593 1206 l 593 1114 l 229 1114 l 229 1206 l 593 1206 z "},"ē":{"ha":719,"x_min":69,"x_max":653,"o":"m 217 294 q 229 206 218 244 q 265 143 240 168 q 332 106 290 118 q 438 93 374 93 q 486 95 460 93 q 538 101 513 97 q 587 110 564 106 q 625 118 610 114 l 638 15 q 540 -5 597 4 q 422 -14 482 -14 q 278 1 343 -14 q 167 56 213 17 q 95 163 121 96 q 69 335 69 231 q 91 499 69 432 q 153 606 113 565 q 251 665 193 647 q 379 683 308 683 q 501 663 450 683 q 587 607 553 643 q 637 519 621 571 q 653 404 653 468 l 653 294 l 217 294 m 518 392 q 375 585 518 585 q 260 536 296 585 q 218 392 224 488 l 518 392 m 557 947 l 557 856 l 193 856 l 193 947 l 557 947 z "},"Ĕ":{"ha":786,"x_min":132,"x_max":704,"o":"m 686 924 l 686 814 l 278 814 l 278 528 l 646 528 l 646 418 l 278 418 l 278 218 q 312 133 278 157 q 404 110 346 110 l 704 110 l 704 0 l 399 0 q 203 52 274 0 q 132 219 132 104 l 132 924 l 686 924 m 310 1250 q 335 1183 311 1207 q 411 1158 360 1158 q 487 1183 463 1158 q 513 1250 511 1207 l 618 1250 q 601 1167 617 1201 q 557 1110 585 1133 q 492 1077 529 1088 q 411 1067 454 1067 q 330 1077 367 1067 q 265 1110 293 1088 q 222 1167 238 1133 q 204 1250 206 1201 l 310 1250 z "},"ĕ":{"ha":719,"x_min":69,"x_max":653,"o":"m 217 294 q 229 206 218 244 q 265 143 240 168 q 332 106 290 118 q 438 93 374 93 q 486 95 460 93 q 538 101 513 97 q 587 110 564 106 q 625 118 610 114 l 638 15 q 540 -5 597 4 q 422 -14 482 -14 q 278 1 343 -14 q 167 56 213 17 q 95 163 121 96 q 69 335 69 231 q 91 499 69 432 q 153 606 113 565 q 251 665 193 647 q 379 683 308 683 q 501 663 450 683 q 587 607 553 643 q 637 519 621 571 q 653 404 653 468 l 653 294 l 217 294 m 518 392 q 375 585 518 585 q 260 536 296 585 q 218 392 224 488 l 518 392 m 274 993 q 299 926 275 950 q 375 901 324 901 q 451 926 426 901 q 476 993 475 950 l 582 993 q 565 910 581 944 q 521 853 549 876 q 456 820 493 831 q 375 810 418 810 q 294 820 331 810 q 229 853 257 831 q 185 910 201 876 q 168 993 169 944 l 274 993 z "},"Ė":{"ha":786,"x_min":132,"x_max":704,"o":"m 686 924 l 686 814 l 278 814 l 278 528 l 646 528 l 646 418 l 278 418 l 278 218 q 312 133 278 157 q 404 110 346 110 l 704 110 l 704 0 l 399 0 q 203 52 274 0 q 132 219 132 104 l 132 924 l 686 924 m 494 1160 q 474 1109 494 1128 q 413 1090 453 1090 q 351 1109 372 1090 q 331 1160 331 1128 q 351 1211 331 1192 q 413 1231 372 1231 q 474 1211 453 1231 q 494 1160 494 1192 z "},"ė":{"ha":719,"x_min":69,"x_max":653,"o":"m 217 294 q 229 206 218 244 q 265 143 240 168 q 332 106 290 118 q 438 93 374 93 q 486 95 460 93 q 538 101 513 97 q 587 110 564 106 q 625 118 610 114 l 638 15 q 540 -5 597 4 q 422 -14 482 -14 q 278 1 343 -14 q 167 56 213 17 q 95 163 121 96 q 69 335 69 231 q 91 499 69 432 q 153 606 113 565 q 251 665 193 647 q 379 683 308 683 q 501 663 450 683 q 587 607 553 643 q 637 519 621 571 q 653 404 653 468 l 653 294 l 217 294 m 518 392 q 375 585 518 585 q 260 536 296 585 q 218 392 224 488 l 518 392 m 457 903 q 436 852 457 871 q 375 833 415 833 q 314 852 335 833 q 293 903 293 871 q 314 954 293 935 q 375 974 335 974 q 436 954 415 974 q 457 903 457 935 z "},"Ę":{"ha":786,"x_min":132,"x_max":719,"o":"m 399 0 q 203 52 274 0 q 132 219 132 104 l 132 924 l 686 924 l 686 814 l 278 814 l 278 528 l 646 528 l 646 418 l 278 418 l 278 218 q 312 133 278 157 q 404 110 346 110 l 704 110 l 704 0 l 658 0 q 612 -56 636 -21 q 588 -122 588 -90 q 601 -153 588 -144 q 638 -161 615 -161 q 669 -158 650 -161 q 704 -149 689 -156 l 719 -235 q 614 -254 674 -254 q 517 -230 558 -254 q 476 -147 476 -206 q 501 -58 476 -96 q 551 0 526 -19 l 399 0 z "},"ę":{"ha":719,"x_min":69,"x_max":678,"o":"m 217 294 q 229 206 218 244 q 265 143 240 168 q 332 106 290 118 q 438 93 374 93 q 486 95 460 93 q 538 101 513 97 q 587 110 564 106 q 625 118 610 114 l 638 15 q 583 -24 607 4 q 549 -80 558 -51 q 549 -131 539 -108 q 596 -153 558 -153 q 628 -150 608 -153 q 663 -140 647 -147 l 678 -226 q 572 -246 632 -246 q 476 -222 517 -246 q 435 -139 435 -197 q 451 -66 435 -99 q 488 -11 467 -33 q 456 -13 472 -12 q 422 -14 439 -14 q 278 1 343 -14 q 167 56 213 17 q 95 163 121 96 q 69 335 69 231 q 91 499 69 432 q 153 606 113 565 q 251 665 193 647 q 379 683 308 683 q 501 663 450 683 q 587 607 553 643 q 637 519 621 571 q 653 404 653 468 l 653 294 l 217 294 m 518 392 q 375 585 518 585 q 260 536 296 585 q 218 392 224 488 l 518 392 z "},"Ě":{"ha":786,"x_min":132,"x_max":704,"o":"m 686 924 l 686 814 l 278 814 l 278 528 l 646 528 l 646 418 l 278 418 l 278 218 q 312 133 278 157 q 404 110 346 110 l 704 110 l 704 0 l 399 0 q 203 52 274 0 q 132 219 132 104 l 132 924 l 686 924 m 344 1049 l 203 1272 l 324 1272 l 411 1128 l 497 1272 l 617 1272 l 475 1049 l 344 1049 z "},"ě":{"ha":719,"x_min":69,"x_max":653,"o":"m 217 294 q 229 206 218 244 q 265 143 240 168 q 332 106 290 118 q 438 93 374 93 q 486 95 460 93 q 538 101 513 97 q 587 110 564 106 q 625 118 610 114 l 638 15 q 540 -5 597 4 q 422 -14 482 -14 q 278 1 343 -14 q 167 56 213 17 q 95 163 121 96 q 69 335 69 231 q 91 499 69 432 q 153 606 113 565 q 251 665 193 647 q 379 683 308 683 q 501 663 450 683 q 587 607 553 643 q 637 519 621 571 q 653 404 653 468 l 653 294 l 217 294 m 518 392 q 375 585 518 585 q 260 536 296 585 q 218 392 224 488 l 518 392 m 308 790 l 167 1014 l 288 1014 l 375 869 l 461 1014 l 581 1014 l 439 790 l 308 790 z "},"Ĝ":{"ha":951,"x_min":81,"x_max":844,"o":"m 808 797 q 684 818 757 808 q 524 828 611 828 q 394 808 449 828 q 303 745 339 789 q 251 633 268 701 q 233 465 233 564 q 251 285 233 357 q 303 172 268 214 q 388 112 338 129 q 503 94 438 94 q 555 96 528 94 q 608 100 582 97 q 658 106 635 103 q 699 113 682 108 l 699 404 l 497 404 l 497 517 l 844 517 l 844 31 q 685 -2 776 11 q 507 -15 594 -15 q 328 8 407 -15 q 194 86 250 31 q 110 235 139 142 q 81 467 81 328 q 110 685 81 596 q 197 831 140 775 q 335 913 253 888 q 522 938 417 938 q 607 935 564 938 q 690 929 650 933 q 763 920 729 925 q 821 911 797 915 l 808 797 m 536 1272 l 678 1049 l 558 1049 l 472 1192 l 385 1049 l 264 1049 l 406 1272 l 536 1272 z "},"ĝ":{"ha":794,"x_min":69,"x_max":676,"o":"m 676 -4 q 656 -132 676 -81 q 595 -215 635 -183 q 499 -261 556 -247 q 371 -275 443 -275 q 244 -265 311 -275 q 132 -243 178 -256 l 147 -137 q 254 -159 193 -149 q 367 -169 315 -169 q 496 -134 456 -169 q 536 -19 536 -99 l 536 18 q 457 6 500 11 q 374 0 414 0 q 257 14 313 0 q 160 66 201 28 q 94 171 118 104 q 69 343 69 238 q 96 504 69 439 q 167 609 122 569 q 272 666 211 649 q 399 683 332 683 q 540 668 469 683 q 676 632 611 653 l 676 -4 m 536 556 q 472 569 508 563 q 400 576 435 576 q 329 567 363 576 q 271 531 296 557 q 231 459 246 504 q 217 342 217 414 q 228 221 217 267 q 263 149 240 175 q 316 115 285 124 q 385 107 347 107 q 458 113 421 107 q 536 125 496 118 l 536 556 m 442 1014 l 583 790 l 464 790 l 378 933 l 290 790 l 169 790 l 311 1014 l 442 1014 z "},"Ğ":{"ha":951,"x_min":81,"x_max":844,"o":"m 808 797 q 684 818 757 808 q 524 828 611 828 q 394 808 449 828 q 303 745 339 789 q 251 633 268 701 q 233 465 233 564 q 251 285 233 357 q 303 172 268 214 q 388 112 338 129 q 503 94 438 94 q 555 96 528 94 q 608 100 582 97 q 658 106 635 103 q 699 113 682 108 l 699 404 l 497 404 l 497 517 l 844 517 l 844 31 q 685 -2 776 11 q 507 -15 594 -15 q 328 8 407 -15 q 194 86 250 31 q 110 235 139 142 q 81 467 81 328 q 110 685 81 596 q 197 831 140 775 q 335 913 253 888 q 522 938 417 938 q 607 935 564 938 q 690 929 650 933 q 763 920 729 925 q 821 911 797 915 l 808 797 m 372 1250 q 398 1183 374 1207 q 474 1158 422 1158 q 549 1183 525 1158 q 575 1250 574 1207 l 681 1250 q 663 1167 679 1201 q 619 1110 647 1133 q 554 1077 592 1088 q 474 1067 517 1067 q 392 1077 429 1067 q 328 1110 356 1088 q 284 1167 300 1133 q 267 1250 268 1201 l 372 1250 z "},"ğ":{"ha":794,"x_min":69,"x_max":676,"o":"m 676 -4 q 656 -132 676 -81 q 595 -215 635 -183 q 499 -261 556 -247 q 371 -275 443 -275 q 244 -265 311 -275 q 132 -243 178 -256 l 147 -137 q 254 -159 193 -149 q 367 -169 315 -169 q 496 -134 456 -169 q 536 -19 536 -99 l 536 18 q 457 6 500 11 q 374 0 414 0 q 257 14 313 0 q 160 66 201 28 q 94 171 118 104 q 69 343 69 238 q 96 504 69 439 q 167 609 122 569 q 272 666 211 649 q 399 683 332 683 q 540 668 469 683 q 676 632 611 653 l 676 -4 m 536 556 q 472 569 508 563 q 400 576 435 576 q 329 567 363 576 q 271 531 296 557 q 231 459 246 504 q 217 342 217 414 q 228 221 217 267 q 263 149 240 175 q 316 115 285 124 q 385 107 347 107 q 458 113 421 107 q 536 125 496 118 l 536 556 m 275 993 q 301 926 276 950 q 376 901 325 901 q 452 926 428 901 q 478 993 476 950 l 583 993 q 566 910 582 944 q 522 853 550 876 q 457 820 494 831 q 376 810 419 810 q 295 820 332 810 q 231 853 258 831 q 187 910 203 876 q 169 993 171 944 l 275 993 z "},"Ġ":{"ha":951,"x_min":81,"x_max":844,"o":"m 808 797 q 684 818 757 808 q 524 828 611 828 q 394 808 449 828 q 303 745 339 789 q 251 633 268 701 q 233 465 233 564 q 251 285 233 357 q 303 172 268 214 q 388 112 338 129 q 503 94 438 94 q 555 96 528 94 q 608 100 582 97 q 658 106 635 103 q 699 113 682 108 l 699 404 l 497 404 l 497 517 l 844 517 l 844 31 q 685 -2 776 11 q 507 -15 594 -15 q 328 8 407 -15 q 194 86 250 31 q 110 235 139 142 q 81 467 81 328 q 110 685 81 596 q 197 831 140 775 q 335 913 253 888 q 522 938 417 938 q 607 935 564 938 q 690 929 650 933 q 763 920 729 925 q 821 911 797 915 l 808 797 m 554 1160 q 533 1109 554 1128 q 472 1090 513 1090 q 411 1109 432 1090 q 390 1160 390 1128 q 411 1211 390 1192 q 472 1231 432 1231 q 533 1211 513 1231 q 554 1160 554 1192 z "},"ġ":{"ha":794,"x_min":69,"x_max":676,"o":"m 676 -4 q 656 -132 676 -81 q 595 -215 635 -183 q 499 -261 556 -247 q 371 -275 443 -275 q 244 -265 311 -275 q 132 -243 178 -256 l 147 -137 q 254 -159 193 -149 q 367 -169 315 -169 q 496 -134 456 -169 q 536 -19 536 -99 l 536 18 q 457 6 500 11 q 374 0 414 0 q 257 14 313 0 q 160 66 201 28 q 94 171 118 104 q 69 343 69 238 q 96 504 69 439 q 167 609 122 569 q 272 666 211 649 q 399 683 332 683 q 540 668 469 683 q 676 632 611 653 l 676 -4 m 536 556 q 472 569 508 563 q 400 576 435 576 q 329 567 363 576 q 271 531 296 557 q 231 459 246 504 q 217 342 217 414 q 228 221 217 267 q 263 149 240 175 q 316 115 285 124 q 385 107 347 107 q 458 113 421 107 q 536 125 496 118 l 536 556 m 460 903 q 439 852 460 871 q 378 833 418 833 q 317 852 338 833 q 296 903 296 871 q 317 954 296 935 q 378 974 338 974 q 439 954 418 974 q 460 903 460 935 z "},"Ģ":{"ha":951,"x_min":81,"x_max":844,"o":"m 808 797 q 684 818 757 808 q 524 828 611 828 q 394 808 449 828 q 303 745 339 789 q 251 633 268 701 q 233 465 233 564 q 251 285 233 357 q 303 172 268 214 q 388 112 338 129 q 503 94 438 94 q 555 96 528 94 q 608 100 582 97 q 658 106 635 103 q 699 113 682 108 l 699 404 l 497 404 l 497 517 l 844 517 l 844 31 q 685 -2 776 11 q 507 -15 594 -15 q 328 8 407 -15 q 194 86 250 31 q 110 235 139 142 q 81 467 81 328 q 110 685 81 596 q 197 831 140 775 q 335 913 253 888 q 522 938 417 938 q 607 935 564 938 q 690 929 650 933 q 763 920 729 925 q 821 911 797 915 l 808 797 m 607 -64 l 465 -261 l 351 -261 l 454 -64 l 607 -64 z "},"ģ":{"ha":794,"x_min":69,"x_max":676,"o":"m 676 -4 q 656 -132 676 -81 q 595 -215 635 -183 q 499 -261 556 -247 q 371 -275 443 -275 q 244 -265 311 -275 q 132 -243 178 -256 l 147 -137 q 254 -159 193 -149 q 367 -169 315 -169 q 496 -134 456 -169 q 536 -19 536 -99 l 536 18 q 457 6 500 11 q 374 0 414 0 q 257 14 313 0 q 160 66 201 28 q 94 171 118 104 q 69 343 69 238 q 96 504 69 439 q 167 609 122 569 q 272 666 211 649 q 399 683 332 683 q 540 668 469 683 q 676 632 611 653 l 676 -4 m 536 556 q 472 569 508 563 q 400 576 435 576 q 329 567 363 576 q 271 531 296 557 q 231 459 246 504 q 217 342 217 414 q 228 221 217 267 q 263 149 240 175 q 316 115 285 124 q 385 107 347 107 q 458 113 421 107 q 536 125 496 118 l 536 556 m 296 790 l 456 1014 l 571 1014 l 451 790 l 296 790 z "},"Ĥ":{"ha":1039,"x_min":143,"x_max":896,"o":"m 289 924 l 289 533 l 750 533 l 750 924 l 896 924 l 896 0 l 750 0 l 750 418 l 289 418 l 289 0 l 143 0 l 143 924 l 289 924 m 583 1272 l 725 1049 l 606 1049 l 519 1192 l 432 1049 l 311 1049 l 453 1272 l 583 1272 z "},"ĥ":{"ha":815,"x_min":-21,"x_max":710,"o":"m 118 1014 l 258 1014 l 258 661 q 342 676 299 669 q 429 683 386 683 q 539 672 488 683 q 628 632 590 660 q 688 559 665 604 q 710 447 710 514 l 710 0 l 569 0 l 569 442 q 558 507 569 481 q 524 549 546 533 q 474 570 503 564 q 413 576 446 576 q 332 569 374 576 q 258 556 290 563 l 258 0 l 118 0 l 118 1014 m 251 1310 l 393 1086 l 274 1086 l 188 1229 l 100 1086 l -21 1086 l 121 1310 l 251 1310 z "},"Ħ":{"ha":1040,"x_min":28,"x_max":1033,"o":"m 300 924 l 300 774 l 761 774 l 761 924 l 907 924 l 907 774 l 1033 774 l 1033 683 l 907 683 l 907 0 l 761 0 l 761 418 l 300 418 l 300 0 l 154 0 l 154 683 l 28 683 l 28 774 l 154 774 l 154 924 l 300 924 m 761 533 l 761 683 l 300 683 l 300 533 l 761 533 z "},"ħ":{"ha":853,"x_min":19,"x_max":747,"o":"m 156 794 l 19 794 l 19 889 l 156 889 l 156 1014 l 296 1014 l 296 889 l 517 889 l 517 794 l 296 794 l 296 661 q 380 676 336 669 q 467 683 424 683 q 576 672 525 683 q 665 632 628 660 q 725 559 703 604 q 747 447 747 514 l 747 0 l 607 0 l 607 442 q 564 547 607 518 q 450 576 521 576 q 369 569 411 576 q 296 556 328 563 l 296 0 l 156 0 l 156 794 z "},"Ĩ":{"ha":432,"x_min":0,"x_max":433,"o":"m 289 924 l 289 0 l 143 0 l 143 924 l 289 924 m 0 1115 q 43 1192 11 1158 q 131 1226 75 1226 q 179 1219 157 1226 q 222 1203 201 1213 q 260 1188 242 1194 q 294 1181 278 1181 q 328 1197 319 1181 q 344 1232 336 1213 l 433 1204 q 385 1121 417 1154 q 301 1088 354 1088 q 258 1094 279 1088 q 216 1110 236 1101 q 178 1126 196 1119 q 144 1133 160 1133 q 106 1119 117 1133 q 89 1086 96 1106 l 0 1115 z "},"ĩ":{"ha":379,"x_min":-31,"x_max":403,"o":"m -31 858 q 13 935 -19 901 q 100 969 44 969 q 149 963 126 969 q 191 947 171 956 q 229 931 211 938 q 264 924 247 924 q 297 940 289 924 q 314 975 306 956 l 403 947 q 355 864 386 897 q 271 831 324 831 q 227 838 249 831 q 185 853 206 844 q 147 869 165 863 q 114 876 129 876 q 76 863 86 876 q 58 829 65 849 l -31 858 m 260 669 l 260 0 l 119 0 l 119 669 l 260 669 z "},"Ī":{"ha":432,"x_min":35,"x_max":399,"o":"m 289 924 l 289 0 l 143 0 l 143 924 l 289 924 m 399 1206 l 399 1114 l 35 1114 l 35 1206 l 399 1206 z "},"ī":{"ha":379,"x_min":7,"x_max":371,"o":"m 371 947 l 371 856 l 7 856 l 7 947 l 371 947 m 260 669 l 260 0 l 119 0 l 119 669 l 260 669 z "},"Ĭ":{"ha":432,"x_min":10,"x_max":424,"o":"m 289 924 l 289 0 l 143 0 l 143 924 l 289 924 m 115 1251 q 141 1184 117 1208 q 217 1160 165 1160 q 292 1184 268 1160 q 318 1251 317 1208 l 424 1251 q 406 1169 422 1203 q 363 1112 390 1135 q 297 1078 335 1089 q 217 1068 260 1068 q 135 1078 172 1068 q 71 1112 99 1089 q 27 1169 43 1135 q 10 1251 11 1203 l 115 1251 z "},"ĭ":{"ha":379,"x_min":-18,"x_max":396,"o":"m 88 993 q 113 926 89 950 q 189 901 138 901 q 265 926 240 901 q 290 993 289 950 l 396 993 q 378 910 394 944 q 335 853 363 876 q 269 820 307 831 q 189 810 232 810 q 108 820 144 810 q 43 853 71 831 q -1 910 15 876 q -18 993 -17 944 l 88 993 m 260 669 l 260 0 l 119 0 l 119 669 l 260 669 z "},"Į":{"ha":432,"x_min":107,"x_max":350,"o":"m 143 0 l 143 924 l 289 924 l 289 0 q 242 -56 267 -21 q 218 -122 218 -90 q 232 -153 218 -144 q 268 -161 246 -161 q 300 -158 281 -161 q 335 -149 319 -156 l 350 -235 q 244 -254 304 -254 q 148 -230 189 -254 q 107 -147 107 -206 q 132 -58 107 -96 q 182 0 157 -19 l 143 0 z "},"į":{"ha":379,"x_min":78,"x_max":321,"o":"m 119 0 l 119 669 l 260 669 l 260 0 q 213 -56 238 -21 q 189 -122 189 -90 q 203 -153 189 -144 q 239 -161 217 -161 q 271 -158 251 -161 q 306 -149 290 -156 l 321 -235 q 215 -254 275 -254 q 119 -230 160 -254 q 78 -147 78 -206 q 103 -58 78 -96 q 153 0 128 -19 l 119 0 m 278 919 q 255 861 278 882 q 189 840 232 840 q 124 861 147 840 q 100 919 100 882 q 124 979 100 958 q 189 1000 147 1000 q 278 919 278 1000 z "},"İ":{"ha":432,"x_min":135,"x_max":299,"o":"m 289 924 l 289 0 l 143 0 l 143 924 l 289 924 m 299 1160 q 278 1109 299 1128 q 217 1090 257 1090 q 156 1109 176 1090 q 135 1160 135 1128 q 156 1211 135 1192 q 217 1231 176 1231 q 278 1211 257 1231 q 299 1160 299 1192 z "},"Ĵ":{"ha":425,"x_min":-39,"x_max":419,"o":"m 289 924 l 289 106 q 270 -10 289 42 q 217 -108 251 -62 q 135 -194 183 -153 q 31 -276 88 -235 l -39 -189 q 43 -113 8 -149 q 100 -44 78 -78 q 133 26 122 -10 q 143 103 143 61 l 143 924 l 289 924 m 278 1272 l 419 1049 l 300 1049 l 214 1192 l 126 1049 l 6 1049 l 147 1272 l 278 1272 z "},"ĵ":{"ha":379,"x_min":-35,"x_max":396,"o":"m 260 669 l 260 93 q 249 -17 260 31 q 211 -107 238 -65 q 140 -189 185 -149 q 31 -276 96 -229 l -35 -200 q 44 -123 14 -157 q 92 -56 75 -89 q 114 13 108 -22 q 119 92 119 47 l 119 669 l 260 669 m 254 1014 l 396 790 l 276 790 l 190 933 l 103 790 l -18 790 l 124 1014 l 254 1014 z "},"Ķ":{"ha":869,"x_min":143,"x_max":868,"o":"m 289 924 l 289 432 l 706 924 l 867 924 l 508 503 q 597 461 558 488 q 666 399 636 435 q 721 319 696 364 q 769 221 746 274 l 868 0 l 706 0 l 625 186 q 538 329 589 269 q 408 399 486 389 l 289 267 l 289 0 l 143 0 l 143 924 l 289 924 m 590 -64 l 449 -261 l 335 -261 l 438 -64 l 590 -64 z "},"ķ":{"ha":749,"x_min":119,"x_max":721,"o":"m 260 1014 l 260 358 l 557 669 l 711 669 l 454 400 q 581 323 533 381 q 657 186 629 265 l 721 0 l 569 0 l 510 172 q 446 272 486 242 q 353 308 406 303 l 260 219 l 260 0 l 119 0 l 119 1014 l 260 1014 m 510 -64 l 368 -261 l 254 -261 l 357 -64 l 510 -64 z "},"Ĺ":{"ha":715,"x_min":143,"x_max":683,"o":"m 289 924 l 289 110 l 683 110 l 683 0 l 143 0 l 143 924 l 289 924 m 431 1272 l 271 1049 l 156 1049 l 275 1272 l 431 1272 z "},"ĺ":{"ha":379,"x_min":119,"x_max":406,"o":"m 260 1014 l 260 0 l 119 0 l 119 1014 l 260 1014 m 406 1307 l 246 1083 l 131 1083 l 250 1307 l 406 1307 z "},"Ļ":{"ha":715,"x_min":143,"x_max":683,"o":"m 289 924 l 289 110 l 683 110 l 683 0 l 143 0 l 143 924 l 289 924 m 513 -64 l 371 -261 l 257 -261 l 360 -64 l 513 -64 z "},"ļ":{"ha":379,"x_min":11,"x_max":267,"o":"m 260 1014 l 260 0 l 119 0 l 119 1014 l 260 1014 m 267 -64 l 125 -261 l 11 -261 l 114 -64 l 267 -64 z "},"Ľ":{"ha":715,"x_min":7,"x_max":683,"o":"m 289 924 l 289 110 l 683 110 l 683 0 l 143 0 l 143 924 l 289 924 m 149 1049 l 7 1272 l 128 1272 l 215 1128 l 301 1272 l 421 1272 l 279 1049 l 149 1049 z "},"ľ":{"ha":514,"x_min":119,"x_max":560,"o":"m 260 1014 l 260 0 l 119 0 l 119 1014 l 260 1014 m 560 924 l 446 628 l 339 628 l 424 924 l 560 924 z "},"Ł":{"ha":697,"x_min":28,"x_max":694,"o":"m 300 924 l 300 529 l 560 631 l 560 518 l 300 417 l 300 110 l 694 110 l 694 0 l 154 0 l 154 360 l 28 310 l 28 422 l 154 472 l 154 924 l 300 924 z "},"ł":{"ha":404,"x_min":28,"x_max":376,"o":"m 272 1014 l 272 592 l 376 633 l 376 529 l 272 489 l 272 0 l 132 0 l 132 433 l 28 393 l 28 496 l 132 538 l 132 1014 l 272 1014 z "},"Ń":{"ha":1049,"x_min":143,"x_max":906,"o":"m 260 924 l 764 383 l 764 924 l 906 924 l 906 0 l 764 0 l 764 208 l 283 717 l 283 0 l 143 0 l 143 924 l 260 924 m 699 1272 l 539 1049 l 424 1049 l 543 1272 l 699 1272 z "},"ń":{"ha":815,"x_min":118,"x_max":710,"o":"m 118 632 q 178 649 144 640 q 251 666 213 658 q 333 678 290 674 q 417 683 375 683 q 533 672 479 683 q 626 633 586 660 q 688 560 665 606 q 710 447 710 514 l 710 0 l 569 0 l 569 442 q 558 507 569 481 q 525 549 546 533 q 475 570 504 564 q 413 576 446 576 q 332 570 374 576 q 258 556 290 564 l 258 0 l 118 0 l 118 632 m 621 1014 l 461 790 l 346 790 l 465 1014 l 621 1014 z "},"Ņ":{"ha":1049,"x_min":143,"x_max":906,"o":"m 260 924 l 764 383 l 764 924 l 906 924 l 906 0 l 764 0 l 764 208 l 283 717 l 283 0 l 143 0 l 143 924 l 260 924 m 626 -64 l 485 -261 l 371 -261 l 474 -64 l 626 -64 z "},"ņ":{"ha":815,"x_min":118,"x_max":710,"o":"m 118 632 q 178 649 144 640 q 251 666 213 658 q 333 678 290 674 q 417 683 375 683 q 533 672 479 683 q 626 633 586 660 q 688 560 665 606 q 710 447 710 514 l 710 0 l 569 0 l 569 442 q 558 507 569 481 q 525 549 546 533 q 475 570 504 564 q 413 576 446 576 q 332 570 374 576 q 258 556 290 564 l 258 0 l 118 0 l 118 632 m 510 -64 l 368 -261 l 254 -261 l 357 -64 l 510 -64 z "},"Ň":{"ha":1049,"x_min":143,"x_max":906,"o":"m 260 924 l 764 383 l 764 924 l 906 924 l 906 0 l 764 0 l 764 208 l 283 717 l 283 0 l 143 0 l 143 924 l 260 924 m 457 1049 l 315 1272 l 436 1272 l 524 1128 l 610 1272 l 729 1272 l 588 1049 l 457 1049 z "},"ň":{"ha":815,"x_min":118,"x_max":710,"o":"m 118 632 q 178 649 144 640 q 251 666 213 658 q 333 678 290 674 q 417 683 375 683 q 533 672 479 683 q 626 633 586 660 q 688 560 665 606 q 710 447 710 514 l 710 0 l 569 0 l 569 442 q 558 507 569 481 q 525 549 546 533 q 475 570 504 564 q 413 576 446 576 q 332 570 374 576 q 258 556 290 564 l 258 0 l 118 0 l 118 632 m 347 790 l 206 1014 l 326 1014 l 414 869 l 500 1014 l 619 1014 l 478 790 l 347 790 z "},"Ŋ":{"ha":1049,"x_min":143,"x_max":906,"o":"m 260 924 l 764 382 l 764 924 l 906 924 l 906 106 q 887 -10 906 42 q 834 -108 868 -62 q 752 -194 800 -153 q 647 -276 704 -235 l 579 -189 q 661 -113 626 -149 q 719 -44 696 -78 q 753 26 742 -10 q 764 103 764 61 l 764 207 l 283 717 l 283 0 l 143 0 l 143 924 l 260 924 z "},"ŋ":{"ha":815,"x_min":118,"x_max":710,"o":"m 118 632 q 178 649 144 640 q 251 666 213 658 q 333 678 290 674 q 417 683 375 683 q 533 672 479 683 q 626 633 586 660 q 688 560 665 606 q 710 447 710 514 l 710 93 q 699 -17 710 31 q 660 -107 688 -65 q 589 -189 633 -149 q 479 -276 544 -229 l 414 -200 q 493 -123 463 -157 q 540 -56 524 -89 q 563 13 557 -22 q 569 92 569 47 l 569 442 q 558 507 569 481 q 525 549 546 533 q 475 570 504 564 q 413 576 446 576 q 332 570 374 576 q 258 556 290 564 l 258 0 l 118 0 l 118 632 z "},"Ō":{"ha":954,"x_min":81,"x_max":874,"o":"m 874 461 q 848 243 874 333 q 772 95 822 153 q 648 11 722 38 q 478 -15 574 -15 q 306 11 381 -15 q 182 95 232 38 q 106 243 132 153 q 81 461 81 333 q 106 679 81 589 q 182 827 132 769 q 306 911 232 885 q 478 938 381 938 q 648 911 574 938 q 772 827 722 885 q 848 679 822 769 q 874 461 874 589 m 721 461 q 706 634 721 564 q 660 747 690 704 q 583 809 629 790 q 478 828 538 828 q 372 809 417 828 q 295 747 326 790 q 249 634 264 704 q 233 461 233 564 q 249 288 233 358 q 295 175 264 218 q 372 113 326 132 q 478 94 417 94 q 583 113 538 94 q 660 175 629 132 q 706 288 690 218 q 721 461 721 358 m 658 1206 l 658 1114 l 294 1114 l 294 1206 l 658 1206 z "},"ō":{"ha":774,"x_min":69,"x_max":704,"o":"m 704 335 q 622 68 704 150 q 386 -14 539 -14 q 151 68 233 -14 q 69 335 69 150 q 151 601 69 519 q 386 683 233 683 q 622 601 539 683 q 704 335 704 519 m 558 335 q 547 452 558 406 q 514 526 536 499 q 460 565 492 554 q 388 576 429 576 q 314 565 346 576 q 260 526 282 554 q 226 452 238 499 q 215 335 215 406 q 226 217 215 264 q 260 143 238 171 q 314 104 282 115 q 388 93 346 93 q 460 104 429 93 q 514 143 492 115 q 547 217 536 171 q 558 335 558 264 m 568 947 l 568 856 l 204 856 l 204 947 l 568 947 z "},"Ŏ":{"ha":954,"x_min":81,"x_max":874,"o":"m 874 461 q 848 243 874 333 q 772 95 822 153 q 648 11 722 38 q 478 -15 574 -15 q 306 11 381 -15 q 182 95 232 38 q 106 243 132 153 q 81 461 81 333 q 106 679 81 589 q 182 827 132 769 q 306 911 232 885 q 478 938 381 938 q 648 911 574 938 q 772 827 722 885 q 848 679 822 769 q 874 461 874 589 m 721 461 q 706 634 721 564 q 660 747 690 704 q 583 809 629 790 q 478 828 538 828 q 372 809 417 828 q 295 747 326 790 q 249 634 264 704 q 233 461 233 564 q 249 288 233 358 q 295 175 264 218 q 372 113 326 132 q 478 94 417 94 q 583 113 538 94 q 660 175 629 132 q 706 288 690 218 q 721 461 721 358 m 376 1250 q 402 1183 378 1207 q 478 1158 426 1158 q 553 1183 529 1158 q 579 1250 578 1207 l 685 1250 q 667 1167 683 1201 q 624 1110 651 1133 q 558 1077 596 1088 q 478 1067 521 1067 q 397 1077 433 1067 q 332 1110 360 1088 q 288 1167 304 1133 q 271 1250 272 1201 l 376 1250 z "},"ŏ":{"ha":774,"x_min":69,"x_max":704,"o":"m 704 335 q 622 68 704 150 q 386 -14 539 -14 q 151 68 233 -14 q 69 335 69 150 q 151 601 69 519 q 386 683 233 683 q 622 601 539 683 q 704 335 704 519 m 558 335 q 547 452 558 406 q 514 526 536 499 q 460 565 492 554 q 388 576 429 576 q 314 565 346 576 q 260 526 282 554 q 226 452 238 499 q 215 335 215 406 q 226 217 215 264 q 260 143 238 171 q 314 104 282 115 q 388 93 346 93 q 460 104 429 93 q 514 143 492 115 q 547 217 536 171 q 558 335 558 264 m 285 993 q 310 926 286 950 q 386 901 335 901 q 462 926 438 901 q 488 993 486 950 l 593 993 q 576 910 592 944 q 532 853 560 876 q 467 820 504 831 q 386 810 429 810 q 305 820 342 810 q 240 853 268 831 q 197 910 213 876 q 179 993 181 944 l 285 993 z "},"Ő":{"ha":954,"x_min":81,"x_max":874,"o":"m 874 461 q 848 243 874 333 q 772 95 822 153 q 648 11 722 38 q 478 -15 574 -15 q 306 11 381 -15 q 182 95 232 38 q 106 243 132 153 q 81 461 81 333 q 106 679 81 589 q 182 827 132 769 q 306 911 232 885 q 478 938 381 938 q 648 911 574 938 q 772 827 722 885 q 848 679 822 769 q 874 461 874 589 m 721 461 q 706 634 721 564 q 660 747 690 704 q 583 809 629 790 q 478 828 538 828 q 372 809 417 828 q 295 747 326 790 q 249 634 264 704 q 233 461 233 564 q 249 288 233 358 q 295 175 264 218 q 372 113 326 132 q 478 94 417 94 q 583 113 538 94 q 660 175 629 132 q 706 288 690 218 q 721 461 721 358 m 749 1272 l 622 1049 l 519 1049 l 604 1272 l 749 1272 m 522 1272 l 439 1049 l 339 1049 l 393 1272 l 522 1272 z "},"ő":{"ha":774,"x_min":69,"x_max":704,"o":"m 704 335 q 622 68 704 150 q 386 -14 539 -14 q 151 68 233 -14 q 69 335 69 150 q 151 601 69 519 q 386 683 233 683 q 622 601 539 683 q 704 335 704 519 m 558 335 q 547 452 558 406 q 514 526 536 499 q 460 565 492 554 q 388 576 429 576 q 314 565 346 576 q 260 526 282 554 q 226 452 238 499 q 215 335 215 406 q 226 217 215 264 q 260 143 238 171 q 314 104 282 115 q 388 93 346 93 q 460 104 429 93 q 514 143 492 115 q 547 217 536 171 q 558 335 558 264 m 651 1014 l 525 790 l 422 790 l 507 1014 l 651 1014 m 425 1014 l 342 790 l 242 790 l 296 1014 l 425 1014 z "},"Ŕ":{"ha":890,"x_min":143,"x_max":828,"o":"m 442 924 q 595 910 529 924 q 706 863 661 896 q 772 774 750 829 q 794 638 794 719 q 781 541 794 582 q 743 471 767 500 q 687 422 719 442 q 615 390 654 403 q 694 332 667 371 q 746 228 722 293 l 828 0 l 676 0 l 604 196 q 578 256 592 229 q 544 303 564 283 q 497 335 525 324 q 431 346 469 346 q 362 348 397 346 q 289 357 326 350 l 289 0 l 143 0 l 143 924 l 442 924 m 289 467 q 366 457 329 460 q 436 454 403 454 q 600 499 553 454 q 647 638 647 543 q 635 724 647 690 q 599 778 624 758 q 535 806 574 799 q 442 814 496 814 l 289 814 l 289 467 m 647 1272 l 488 1049 l 372 1049 l 492 1272 l 647 1272 z "},"ŕ":{"ha":507,"x_min":117,"x_max":503,"o":"m 117 632 q 290 670 203 658 q 481 682 376 682 l 481 571 q 449 572 465 572 q 415 572 432 572 q 329 567 371 572 q 257 553 288 561 l 257 0 l 117 0 l 117 632 m 503 1014 l 343 790 l 228 790 l 347 1014 l 503 1014 z "},"Ŗ":{"ha":890,"x_min":143,"x_max":828,"o":"m 442 924 q 595 910 529 924 q 706 863 661 896 q 772 774 750 829 q 794 638 794 719 q 781 541 794 582 q 743 471 767 500 q 687 422 719 442 q 615 390 654 403 q 694 332 667 371 q 746 228 722 293 l 828 0 l 676 0 l 604 196 q 578 256 592 229 q 544 303 564 283 q 497 335 525 324 q 431 346 469 346 q 362 348 397 346 q 289 357 326 350 l 289 0 l 143 0 l 143 924 l 442 924 m 289 467 q 366 457 329 460 q 436 454 403 454 q 600 499 553 454 q 647 638 647 543 q 635 724 647 690 q 599 778 624 758 q 535 806 574 799 q 442 814 496 814 l 289 814 l 289 467 m 583 -64 l 442 -261 l 328 -261 l 431 -64 l 583 -64 z "},"ŗ":{"ha":507,"x_min":7,"x_max":481,"o":"m 117 632 q 290 670 203 658 q 481 682 376 682 l 481 571 q 449 572 465 572 q 415 572 432 572 q 329 567 371 572 q 257 553 288 561 l 257 0 l 117 0 l 117 632 m 263 -64 l 121 -261 l 7 -261 l 110 -64 l 263 -64 z "},"Ř":{"ha":890,"x_min":143,"x_max":828,"o":"m 442 924 q 595 910 529 924 q 706 863 661 896 q 772 774 750 829 q 794 638 794 719 q 781 541 794 582 q 743 471 767 500 q 687 422 719 442 q 615 390 654 403 q 694 332 667 371 q 746 228 722 293 l 828 0 l 676 0 l 604 196 q 578 256 592 229 q 544 303 564 283 q 497 335 525 324 q 431 346 469 346 q 362 348 397 346 q 289 357 326 350 l 289 0 l 143 0 l 143 924 l 442 924 m 289 467 q 366 457 329 460 q 436 454 403 454 q 600 499 553 454 q 647 638 647 543 q 635 724 647 690 q 599 778 624 758 q 535 806 574 799 q 442 814 496 814 l 289 814 l 289 467 m 374 1049 l 232 1272 l 353 1272 l 440 1128 l 526 1272 l 646 1272 l 504 1049 l 374 1049 z "},"ř":{"ha":507,"x_min":92,"x_max":506,"o":"m 117 632 q 290 670 203 658 q 481 682 376 682 l 481 571 q 449 572 465 572 q 415 572 432 572 q 329 567 371 572 q 257 553 288 561 l 257 0 l 117 0 l 117 632 m 233 790 l 92 1014 l 213 1014 l 300 869 l 386 1014 l 506 1014 l 364 790 l 233 790 z "},"Ś":{"ha":764,"x_min":79,"x_max":693,"o":"m 640 804 q 592 813 619 808 q 534 820 564 817 q 474 826 504 824 q 421 828 444 828 q 344 824 379 828 q 285 810 310 821 q 246 778 260 799 q 232 726 232 758 q 266 654 232 689 q 351 585 300 619 q 463 512 403 550 q 574 429 522 474 q 659 331 625 385 q 693 213 693 278 q 670 106 693 150 q 606 35 647 63 q 505 -3 564 8 q 375 -15 446 -15 q 213 1 288 -15 q 86 33 139 17 l 104 142 q 226 110 157 126 q 374 94 294 94 q 495 117 447 94 q 543 200 543 139 q 509 282 543 243 q 423 358 475 321 q 311 435 371 396 q 199 517 251 474 q 113 608 147 560 q 79 717 79 657 q 106 822 79 779 q 179 890 133 864 q 288 926 225 915 q 421 938 350 938 q 485 935 451 938 q 549 931 518 933 q 607 924 581 928 q 653 915 633 919 l 640 804 m 546 1272 l 386 1049 l 271 1049 l 390 1272 l 546 1272 z "},"ś":{"ha":638,"x_min":68,"x_max":581,"o":"m 539 564 q 461 576 506 571 q 367 581 417 581 q 251 565 293 581 q 208 506 208 550 q 236 458 208 479 q 305 417 264 438 q 394 376 346 397 q 484 325 443 354 q 553 258 525 296 q 581 165 581 219 q 560 83 581 117 q 503 27 539 49 q 417 -4 467 6 q 310 -14 368 -14 q 181 -4 243 -14 q 76 21 119 6 l 92 126 q 137 114 111 119 q 192 103 163 108 q 250 96 221 99 q 307 93 279 93 q 403 108 371 93 q 435 165 435 122 q 408 220 435 197 q 340 264 381 243 q 251 306 299 285 q 163 353 204 326 q 95 415 122 379 q 68 501 68 451 q 92 591 68 556 q 156 647 115 626 q 252 675 197 667 q 368 683 307 683 q 469 678 419 683 q 551 668 519 674 l 539 564 m 518 1014 l 358 790 l 243 790 l 363 1014 l 518 1014 z "},"Ŝ":{"ha":764,"x_min":79,"x_max":693,"o":"m 640 804 q 592 813 619 808 q 534 820 564 817 q 474 826 504 824 q 421 828 444 828 q 344 824 379 828 q 285 810 310 821 q 246 778 260 799 q 232 726 232 758 q 266 654 232 689 q 351 585 300 619 q 463 512 403 550 q 574 429 522 474 q 659 331 625 385 q 693 213 693 278 q 670 106 693 150 q 606 35 647 63 q 505 -3 564 8 q 375 -15 446 -15 q 213 1 288 -15 q 86 33 139 17 l 104 142 q 226 110 157 126 q 374 94 294 94 q 495 117 447 94 q 543 200 543 139 q 509 282 543 243 q 423 358 475 321 q 311 435 371 396 q 199 517 251 474 q 113 608 147 560 q 79 717 79 657 q 106 822 79 779 q 179 890 133 864 q 288 926 225 915 q 421 938 350 938 q 485 935 451 938 q 549 931 518 933 q 607 924 581 928 q 653 915 633 919 l 640 804 m 424 1272 l 565 1049 l 446 1049 l 360 1192 l 272 1049 l 151 1049 l 293 1272 l 424 1272 z "},"ŝ":{"ha":638,"x_min":68,"x_max":581,"o":"m 539 564 q 461 576 506 571 q 367 581 417 581 q 251 565 293 581 q 208 506 208 550 q 236 458 208 479 q 305 417 264 438 q 394 376 346 397 q 484 325 443 354 q 553 258 525 296 q 581 165 581 219 q 560 83 581 117 q 503 27 539 49 q 417 -4 467 6 q 310 -14 368 -14 q 181 -4 243 -14 q 76 21 119 6 l 92 126 q 137 114 111 119 q 192 103 163 108 q 250 96 221 99 q 307 93 279 93 q 403 108 371 93 q 435 165 435 122 q 408 220 435 197 q 340 264 381 243 q 251 306 299 285 q 163 353 204 326 q 95 415 122 379 q 68 501 68 451 q 92 591 68 556 q 156 647 115 626 q 252 675 197 667 q 368 683 307 683 q 469 678 419 683 q 551 668 519 674 l 539 564 m 390 1014 l 532 790 l 413 790 l 326 933 l 239 790 l 118 790 l 260 1014 l 390 1014 z "},"Ş":{"ha":764,"x_min":79,"x_max":693,"o":"m 640 804 q 592 813 619 808 q 534 820 564 817 q 474 826 504 824 q 421 828 444 828 q 344 824 379 828 q 285 810 310 821 q 246 778 260 799 q 232 726 232 758 q 266 654 232 689 q 351 585 300 619 q 463 512 403 550 q 574 429 522 474 q 659 331 625 385 q 693 213 693 278 q 670 106 693 150 q 606 35 647 63 q 505 -3 564 8 q 375 -15 446 -15 q 213 1 288 -15 q 86 33 139 17 l 104 142 q 226 110 157 126 q 374 94 294 94 q 495 117 447 94 q 543 200 543 139 q 509 282 543 243 q 423 358 475 321 q 311 435 371 396 q 199 517 251 474 q 113 608 147 560 q 79 717 79 657 q 106 822 79 779 q 179 890 133 864 q 288 926 225 915 q 421 938 350 938 q 485 935 451 938 q 549 931 518 933 q 607 924 581 928 q 653 915 633 919 l 640 804 m 442 -64 q 472 -116 460 -89 q 485 -169 485 -143 q 455 -247 485 -218 q 354 -275 425 -275 q 294 -269 326 -275 q 242 -257 261 -264 l 260 -174 q 294 -183 275 -179 q 328 -186 314 -186 q 363 -177 354 -186 q 371 -149 371 -168 q 361 -108 371 -129 q 339 -64 351 -86 l 442 -64 z "},"ş":{"ha":638,"x_min":68,"x_max":581,"o":"m 539 564 q 461 576 506 571 q 367 581 417 581 q 251 565 293 581 q 208 506 208 550 q 236 458 208 479 q 305 417 264 438 q 394 376 346 397 q 484 325 443 354 q 553 258 525 296 q 581 165 581 219 q 560 83 581 117 q 503 27 539 49 q 417 -4 467 6 q 310 -14 368 -14 q 181 -4 243 -14 q 76 21 119 6 l 92 126 q 137 114 111 119 q 192 103 163 108 q 250 96 221 99 q 307 93 279 93 q 403 108 371 93 q 435 165 435 122 q 408 220 435 197 q 340 264 381 243 q 251 306 299 285 q 163 353 204 326 q 95 415 122 379 q 68 501 68 451 q 92 591 68 556 q 156 647 115 626 q 252 675 197 667 q 368 683 307 683 q 469 678 419 683 q 551 668 519 674 l 539 564 m 400 -64 q 431 -116 418 -89 q 443 -169 443 -143 q 413 -247 443 -218 q 313 -275 383 -275 q 252 -269 285 -275 q 200 -257 219 -264 l 218 -174 q 253 -183 233 -179 q 286 -186 272 -186 q 321 -177 313 -186 q 329 -149 329 -168 q 319 -108 329 -129 q 297 -64 310 -86 l 400 -64 z "},"Š":{"ha":764,"x_min":79,"x_max":693,"o":"m 640 804 q 592 813 619 808 q 534 820 564 817 q 474 826 504 824 q 421 828 444 828 q 344 824 379 828 q 285 810 310 821 q 246 778 260 799 q 232 726 232 758 q 266 654 232 689 q 351 585 300 619 q 463 512 403 550 q 574 429 522 474 q 659 331 625 385 q 693 213 693 278 q 670 106 693 150 q 606 35 647 63 q 505 -3 564 8 q 375 -15 446 -15 q 213 1 288 -15 q 86 33 139 17 l 104 142 q 226 110 157 126 q 374 94 294 94 q 495 117 447 94 q 543 200 543 139 q 509 282 543 243 q 423 358 475 321 q 311 435 371 396 q 199 517 251 474 q 113 608 147 560 q 79 717 79 657 q 106 822 79 779 q 179 890 133 864 q 288 926 225 915 q 421 938 350 938 q 485 935 451 938 q 549 931 518 933 q 607 924 581 928 q 653 915 633 919 l 640 804 m 286 1049 l 144 1272 l 265 1272 l 353 1128 l 439 1272 l 558 1272 l 417 1049 l 286 1049 z "},"š":{"ha":638,"x_min":68,"x_max":581,"o":"m 539 564 q 461 576 506 571 q 367 581 417 581 q 251 565 293 581 q 208 506 208 550 q 236 458 208 479 q 305 417 264 438 q 394 376 346 397 q 484 325 443 354 q 553 258 525 296 q 581 165 581 219 q 560 83 581 117 q 503 27 539 49 q 417 -4 467 6 q 310 -14 368 -14 q 181 -4 243 -14 q 76 21 119 6 l 92 126 q 137 114 111 119 q 192 103 163 108 q 250 96 221 99 q 307 93 279 93 q 403 108 371 93 q 435 165 435 122 q 408 220 435 197 q 340 264 381 243 q 251 306 299 285 q 163 353 204 326 q 95 415 122 379 q 68 501 68 451 q 92 591 68 556 q 156 647 115 626 q 252 675 197 667 q 368 683 307 683 q 469 678 419 683 q 551 668 519 674 l 539 564 m 247 790 l 106 1014 l 226 1014 l 314 869 l 400 1014 l 519 1014 l 378 790 l 247 790 z "},"Ţ":{"ha":799,"x_min":24,"x_max":775,"o":"m 775 924 l 775 814 l 472 814 l 472 0 l 326 0 l 326 814 l 24 814 l 24 924 l 775 924 m 474 -64 l 332 -261 l 218 -261 l 321 -64 l 474 -64 z "},"ţ":{"ha":531,"x_min":36,"x_max":496,"o":"m 286 863 l 286 669 l 481 669 l 481 565 l 286 565 l 286 167 q 308 110 286 126 q 367 94 331 94 q 433 101 399 94 q 492 114 468 107 l 496 8 q 426 -8 464 -3 q 350 -14 389 -14 q 203 29 260 -14 q 146 171 146 72 l 146 565 l 36 565 l 36 669 l 146 669 l 178 863 l 286 863 m 429 -64 l 288 -261 l 174 -261 l 276 -64 l 429 -64 z "},"Ť":{"ha":799,"x_min":24,"x_max":775,"o":"m 775 924 l 775 814 l 472 814 l 472 0 l 326 0 l 326 814 l 24 814 l 24 924 l 775 924 m 332 1049 l 190 1272 l 311 1272 l 399 1128 l 485 1272 l 604 1272 l 463 1049 l 332 1049 z "},"ť":{"ha":558,"x_min":36,"x_max":556,"o":"m 556 924 l 463 729 l 368 729 l 432 924 l 556 924 m 286 863 l 286 669 l 481 669 l 481 565 l 286 565 l 286 167 q 308 110 286 126 q 367 94 331 94 q 433 101 399 94 q 492 114 468 107 l 496 8 q 426 -8 464 -3 q 350 -14 389 -14 q 203 29 260 -14 q 146 171 146 72 l 146 565 l 36 565 l 36 669 l 146 669 l 178 863 l 286 863 z "},"Ŧ":{"ha":790,"x_min":19,"x_max":771,"o":"m 78 504 l 322 504 l 322 814 l 19 814 l 19 924 l 771 924 l 771 814 l 468 814 l 468 504 l 711 504 l 711 394 l 468 394 l 468 0 l 322 0 l 322 394 l 78 394 l 78 504 z "},"ŧ":{"ha":546,"x_min":49,"x_max":508,"o":"m 299 863 l 299 669 l 493 669 l 493 565 l 299 565 l 299 394 l 464 394 l 464 292 l 299 292 l 299 167 q 321 110 299 126 q 379 94 343 94 q 446 101 411 94 q 504 114 481 107 l 508 8 q 439 -8 476 -3 q 363 -14 401 -14 q 215 29 272 -14 q 158 171 158 72 l 158 292 l 49 292 l 49 394 l 158 394 l 158 565 l 49 565 l 49 669 l 158 669 l 190 863 l 299 863 z "},"Ũ":{"ha":979,"x_min":126,"x_max":847,"o":"m 272 924 l 272 311 q 324 154 272 214 q 496 94 376 94 q 613 103 560 94 q 701 121 665 111 l 701 924 l 847 924 l 847 42 q 699 4 786 24 q 492 -15 613 -15 q 322 8 392 -15 q 209 76 253 32 q 146 181 165 119 q 126 317 126 242 l 126 924 l 272 924 m 272 1115 q 315 1192 283 1158 q 403 1226 347 1226 q 451 1219 429 1226 q 494 1203 474 1213 q 532 1188 514 1194 q 567 1181 550 1181 q 600 1197 592 1181 q 617 1232 608 1213 l 706 1204 q 658 1121 689 1154 q 574 1088 626 1088 q 530 1094 551 1088 q 488 1110 508 1101 q 450 1126 468 1119 q 417 1133 432 1133 q 378 1119 389 1133 q 361 1086 368 1106 l 272 1115 z "},"ũ":{"ha":801,"x_min":106,"x_max":683,"o":"m 683 36 q 551 1 628 17 q 394 -14 474 -14 q 283 -2 336 -14 q 191 38 231 10 q 128 112 151 65 q 106 228 106 158 l 106 669 l 246 669 l 246 226 q 258 163 246 189 q 290 122 269 138 q 338 99 311 106 q 397 93 365 93 q 476 99 436 93 q 543 113 517 106 l 543 669 l 683 669 l 683 36 m 181 858 q 224 935 192 901 q 311 969 256 969 q 360 963 338 969 q 402 947 382 956 q 440 931 422 938 q 475 924 458 924 q 508 940 500 924 q 525 975 517 956 l 614 947 q 566 864 597 897 q 482 831 535 831 q 438 838 460 831 q 397 853 417 844 q 358 869 376 863 q 325 876 340 876 q 287 863 297 876 q 269 829 276 849 l 181 858 z "},"Ū":{"ha":979,"x_min":126,"x_max":847,"o":"m 272 924 l 272 311 q 324 154 272 214 q 496 94 376 94 q 613 103 560 94 q 701 121 665 111 l 701 924 l 847 924 l 847 42 q 699 4 786 24 q 492 -15 613 -15 q 322 8 392 -15 q 209 76 253 32 q 146 181 165 119 q 126 317 126 242 l 126 924 l 272 924 m 671 1206 l 671 1114 l 307 1114 l 307 1206 l 671 1206 z "},"ū":{"ha":801,"x_min":106,"x_max":683,"o":"m 683 36 q 551 1 628 17 q 394 -14 474 -14 q 283 -2 336 -14 q 191 38 231 10 q 128 112 151 65 q 106 228 106 158 l 106 669 l 246 669 l 246 226 q 258 163 246 189 q 290 122 269 138 q 338 99 311 106 q 397 93 365 93 q 476 99 436 93 q 543 113 517 106 l 543 669 l 683 669 l 683 36 m 585 947 l 585 856 l 221 856 l 221 947 l 585 947 z "},"Ŭ":{"ha":979,"x_min":126,"x_max":847,"o":"m 272 924 l 272 311 q 324 154 272 214 q 496 94 376 94 q 613 103 560 94 q 701 121 665 111 l 701 924 l 847 924 l 847 42 q 699 4 786 24 q 492 -15 613 -15 q 322 8 392 -15 q 209 76 253 32 q 146 181 165 119 q 126 317 126 242 l 126 924 l 272 924 m 386 1250 q 412 1183 388 1207 q 488 1158 436 1158 q 563 1183 539 1158 q 589 1250 588 1207 l 694 1250 q 677 1167 693 1201 q 633 1110 661 1133 q 568 1077 606 1088 q 488 1067 531 1067 q 406 1077 443 1067 q 342 1110 369 1088 q 298 1167 314 1133 q 281 1250 282 1201 l 386 1250 z "},"ŭ":{"ha":801,"x_min":106,"x_max":683,"o":"m 683 36 q 551 1 628 17 q 394 -14 474 -14 q 283 -2 336 -14 q 191 38 231 10 q 128 112 151 65 q 106 228 106 158 l 106 669 l 246 669 l 246 226 q 258 163 246 189 q 290 122 269 138 q 338 99 311 106 q 397 93 365 93 q 476 99 436 93 q 543 113 517 106 l 543 669 l 683 669 l 683 36 m 303 993 q 328 926 304 950 q 404 901 353 901 q 480 926 456 901 q 506 993 504 950 l 611 993 q 594 910 610 944 q 550 853 578 876 q 485 820 522 831 q 404 810 447 810 q 323 820 360 810 q 258 853 286 831 q 215 910 231 876 q 197 993 199 944 l 303 993 z "},"Ů":{"ha":979,"x_min":126,"x_max":847,"o":"m 272 924 l 272 311 q 324 154 272 214 q 496 94 376 94 q 613 103 560 94 q 701 121 665 111 l 701 924 l 847 924 l 847 42 q 699 4 786 24 q 492 -15 613 -15 q 322 8 392 -15 q 209 76 253 32 q 146 181 165 119 q 126 317 126 242 l 126 924 l 272 924 m 638 1160 q 598 1072 638 1101 q 489 1042 558 1042 q 381 1072 421 1042 q 342 1160 342 1101 q 381 1249 342 1219 q 489 1279 421 1279 q 598 1249 558 1279 q 638 1160 638 1219 m 547 1160 q 534 1200 547 1188 q 489 1213 521 1213 q 432 1160 432 1213 q 489 1107 432 1107 q 534 1120 521 1107 q 547 1160 547 1133 z "},"ů":{"ha":801,"x_min":106,"x_max":683,"o":"m 683 36 q 551 1 628 17 q 394 -14 474 -14 q 283 -2 336 -14 q 191 38 231 10 q 128 112 151 65 q 106 228 106 158 l 106 669 l 246 669 l 246 226 q 258 163 246 189 q 290 122 269 138 q 338 99 311 106 q 397 93 365 93 q 476 99 436 93 q 543 113 517 106 l 543 669 l 683 669 l 683 36 m 551 900 q 512 812 551 842 q 403 782 472 782 q 295 812 335 782 q 256 900 256 842 q 295 990 256 960 q 403 1019 335 1019 q 512 990 472 1019 q 551 900 551 960 m 461 900 q 448 940 461 928 q 403 953 435 953 q 346 900 346 953 q 403 847 346 847 q 448 860 435 847 q 461 900 461 874 z "},"Ű":{"ha":979,"x_min":126,"x_max":847,"o":"m 272 924 l 272 311 q 324 154 272 214 q 496 94 376 94 q 613 103 560 94 q 701 121 665 111 l 701 924 l 847 924 l 847 42 q 699 4 786 24 q 492 -15 613 -15 q 322 8 392 -15 q 209 76 253 32 q 146 181 165 119 q 126 317 126 242 l 126 924 l 272 924 m 738 1272 l 611 1049 l 508 1049 l 593 1272 l 738 1272 m 511 1272 l 428 1049 l 328 1049 l 382 1272 l 511 1272 z "},"ű":{"ha":801,"x_min":106,"x_max":683,"o":"m 683 36 q 551 1 628 17 q 394 -14 474 -14 q 283 -2 336 -14 q 191 38 231 10 q 128 112 151 65 q 106 228 106 158 l 106 669 l 246 669 l 246 226 q 258 163 246 189 q 290 122 269 138 q 338 99 311 106 q 397 93 365 93 q 476 99 436 93 q 543 113 517 106 l 543 669 l 683 669 l 683 36 m 663 1014 l 536 790 l 433 790 l 518 1014 l 663 1014 m 436 1014 l 353 790 l 253 790 l 307 1014 l 436 1014 z "},"Ų":{"ha":979,"x_min":126,"x_max":908,"o":"m 272 924 l 272 311 q 324 154 272 214 q 496 94 376 94 q 613 103 560 94 q 701 121 665 111 l 701 924 l 847 924 l 847 40 q 801 -15 825 19 q 776 -82 776 -50 q 790 -112 776 -104 q 826 -121 804 -121 q 858 -118 839 -121 q 893 -108 878 -115 l 908 -194 q 803 -214 863 -214 q 706 -190 747 -214 q 665 -107 665 -165 q 677 -44 665 -72 q 706 6 689 -15 q 607 -9 660 -3 q 492 -15 554 -15 q 322 8 392 -15 q 209 76 253 32 q 146 181 165 119 q 126 317 126 242 l 126 924 l 272 924 z "},"ų":{"ha":801,"x_min":106,"x_max":744,"o":"m 683 35 q 637 -21 661 14 q 613 -87 613 -56 q 626 -118 613 -110 q 663 -126 640 -126 q 694 -124 675 -126 q 729 -114 714 -121 l 744 -200 q 639 -219 699 -219 q 542 -195 583 -219 q 501 -112 501 -171 q 513 -49 501 -78 q 542 0 525 -21 q 468 -10 506 -6 q 394 -14 431 -14 q 283 -2 336 -14 q 191 38 231 10 q 128 112 151 65 q 106 228 106 158 l 106 669 l 246 669 l 246 226 q 258 163 246 189 q 290 122 269 138 q 338 99 311 106 q 397 93 365 93 q 476 99 436 93 q 543 113 517 106 l 543 669 l 683 669 l 683 35 z "},"Ŵ":{"ha":1264,"x_min":14,"x_max":1250,"o":"m 694 1272 l 836 1049 l 717 1049 l 631 1192 l 543 1049 l 422 1049 l 564 1272 l 694 1272 m 268 0 l 14 924 l 163 924 l 357 163 l 568 744 l 704 744 l 911 157 q 1031 499 979 313 q 1113 924 1083 686 l 1250 924 q 1147 443 1214 667 q 976 0 1081 219 l 840 0 l 633 589 l 413 0 l 268 0 z "},"ŵ":{"ha":1163,"x_min":19,"x_max":1143,"o":"m 646 1014 l 788 790 l 668 790 l 582 933 l 494 790 l 374 790 l 515 1014 l 646 1014 m 19 669 l 164 669 l 335 119 l 515 669 l 664 669 l 863 113 q 956 357 914 218 q 1017 669 997 496 l 1143 669 q 1069 319 1121 482 q 933 0 1018 157 l 775 0 l 589 525 l 413 0 l 239 0 l 19 669 z "},"Ŷ":{"ha":828,"x_min":-14,"x_max":821,"o":"m 490 1272 l 632 1049 l 513 1049 l 426 1192 l 339 1049 l 218 1049 l 360 1272 l 490 1272 m 338 315 l -14 924 l 160 924 l 431 453 q 518 555 478 499 q 590 672 558 611 q 642 797 621 732 q 674 924 663 861 l 821 924 q 779 754 810 840 q 703 589 749 668 q 602 440 658 510 q 483 318 546 369 l 483 0 l 338 0 l 338 315 z "},"ŷ":{"ha":801,"x_min":106,"x_max":683,"o":"m 683 669 l 683 -3 q 663 -131 683 -79 q 603 -215 642 -183 q 507 -261 564 -247 q 378 -275 450 -275 q 252 -265 318 -275 q 139 -242 186 -254 l 154 -137 q 261 -158 200 -149 q 374 -168 322 -168 q 503 -135 463 -168 q 543 -22 543 -101 l 543 17 q 469 5 507 10 q 394 0 431 0 q 283 12 336 0 q 191 51 231 24 q 128 126 151 79 q 106 242 106 172 l 106 669 l 246 669 l 246 240 q 258 176 246 203 q 290 135 269 150 q 338 113 311 119 q 397 106 365 106 q 476 112 436 106 q 543 126 517 118 l 543 669 l 683 669 m 454 1014 l 596 790 l 476 790 l 390 933 l 303 790 l 182 790 l 324 1014 l 454 1014 z "},"Ź":{"ha":842,"x_min":69,"x_max":778,"o":"m 765 924 l 765 822 l 254 110 l 778 110 l 778 0 l 69 0 l 69 100 l 585 814 l 86 814 l 86 924 l 765 924 m 631 1272 l 471 1049 l 356 1049 l 475 1272 l 631 1272 z "},"ź":{"ha":683,"x_min":57,"x_max":632,"o":"m 618 669 l 618 579 l 232 104 l 632 104 l 632 0 l 57 0 l 57 92 l 447 565 l 69 565 l 69 669 l 618 669 m 557 1014 l 397 790 l 282 790 l 401 1014 l 557 1014 z "},"Ż":{"ha":842,"x_min":69,"x_max":778,"o":"m 765 924 l 765 822 l 254 110 l 778 110 l 778 0 l 69 0 l 69 100 l 585 814 l 86 814 l 86 924 l 765 924 m 503 1160 q 482 1109 503 1128 q 421 1090 461 1090 q 360 1109 381 1090 q 339 1160 339 1128 q 360 1211 339 1192 q 421 1231 381 1231 q 482 1211 461 1231 q 503 1160 503 1192 z "},"ż":{"ha":683,"x_min":57,"x_max":632,"o":"m 618 669 l 618 579 l 232 104 l 632 104 l 632 0 l 57 0 l 57 92 l 447 565 l 69 565 l 69 669 l 618 669 m 429 903 q 408 852 429 871 q 347 833 388 833 q 286 852 307 833 q 265 903 265 871 q 286 954 265 935 q 347 974 307 974 q 408 954 388 974 q 429 903 429 935 z "},"Ž":{"ha":842,"x_min":69,"x_max":778,"o":"m 765 924 l 765 822 l 254 110 l 778 110 l 778 0 l 69 0 l 69 100 l 585 814 l 86 814 l 86 924 l 765 924 m 354 1049 l 213 1272 l 333 1272 l 421 1128 l 507 1272 l 626 1272 l 485 1049 l 354 1049 z "},"ž":{"ha":683,"x_min":57,"x_max":632,"o":"m 618 669 l 618 579 l 232 104 l 632 104 l 632 0 l 57 0 l 57 92 l 447 565 l 69 565 l 69 669 l 618 669 m 279 790 l 138 1014 l 258 1014 l 346 869 l 432 1014 l 551 1014 l 410 790 l 279 790 z "},"ſ":{"ha":494,"x_min":40,"x_max":549,"o":"m 149 669 l 149 792 q 222 972 149 914 q 417 1029 294 1029 q 485 1026 449 1029 q 549 1018 521 1022 l 533 913 q 481 919 510 917 q 428 922 453 922 q 328 895 368 922 q 289 792 289 868 l 289 0 l 149 0 l 149 565 l 40 565 l 40 669 l 149 669 z "},"Ǻ":{"ha":940,"x_min":118,"x_max":822,"o":"m 618 1158 q 578 1070 618 1100 q 469 1040 539 1040 q 362 1070 401 1040 q 322 1158 322 1100 q 349 1235 322 1207 q 421 1274 375 1264 l 500 1413 l 635 1413 l 525 1271 q 594 1232 569 1260 q 618 1158 618 1204 m 528 1158 q 515 1199 528 1186 q 469 1211 501 1211 q 413 1158 413 1211 q 469 1106 413 1106 q 515 1119 501 1106 q 528 1158 528 1132 m 261 0 l 118 0 l 118 600 q 135 737 118 675 q 194 844 153 799 q 302 913 235 889 q 469 938 369 938 q 638 913 569 938 q 747 844 706 889 q 805 737 788 799 q 822 600 822 675 l 822 0 l 676 0 l 676 342 l 261 342 l 261 0 m 676 451 l 676 604 q 667 694 676 653 q 633 765 657 735 q 569 811 608 794 q 469 828 529 828 q 369 811 408 828 q 305 765 329 794 q 271 694 281 735 q 261 604 261 653 l 261 451 l 676 451 z "},"ǻ":{"ha":718,"x_min":58,"x_max":618,"o":"m 515 900 q 476 812 515 842 q 367 782 436 782 q 259 812 299 782 q 219 900 219 842 q 246 977 219 949 q 318 1015 272 1006 l 397 1154 l 532 1154 l 422 1013 q 491 974 467 1001 q 515 900 515 946 m 425 900 q 412 940 425 928 q 367 953 399 953 q 310 900 310 953 q 367 847 310 847 q 412 860 399 847 q 425 900 425 874 m 478 294 q 414 303 449 300 q 343 307 379 307 q 285 303 313 307 q 238 287 258 299 q 206 253 218 275 q 194 197 194 232 q 235 109 194 133 q 335 85 276 85 q 413 90 376 85 q 478 103 450 96 l 478 294 m 124 660 q 222 676 168 669 q 326 683 275 683 q 438 673 385 683 q 531 637 492 663 q 594 569 571 611 q 618 465 618 528 l 618 33 q 491 2 565 18 q 332 -14 417 -14 q 224 -3 274 -14 q 137 34 174 8 q 79 101 100 60 q 58 206 58 143 q 81 303 58 264 q 142 365 104 342 q 229 399 179 389 q 333 408 279 408 q 413 405 378 408 q 478 396 449 401 l 478 461 q 433 555 478 531 q 319 579 388 579 q 222 571 272 579 q 133 554 172 563 l 124 660 z "},"Ǽ":{"ha":1333,"x_min":118,"x_max":1250,"o":"m 1231 924 l 1231 814 l 824 814 l 824 528 l 1190 528 l 1190 418 l 824 418 l 824 217 q 860 133 824 156 q 950 110 897 110 l 1250 110 l 1250 0 l 944 0 q 742 57 806 0 q 678 231 678 114 l 678 418 l 263 418 l 263 0 l 118 0 l 118 600 q 135 737 118 675 q 194 844 153 799 q 302 913 235 889 q 469 938 369 938 q 599 917 547 938 q 682 863 651 897 l 682 924 l 1231 924 m 678 528 l 678 588 q 669 686 678 642 q 636 762 660 731 q 572 810 613 793 q 469 828 532 828 q 367 810 407 828 q 304 762 328 793 q 272 686 281 731 q 263 588 263 642 l 263 528 l 678 528 m 979 1272 l 819 1049 l 704 1049 l 824 1272 l 979 1272 z "},"ǽ":{"ha":1119,"x_min":58,"x_max":1053,"o":"m 124 658 q 221 676 168 668 q 325 683 274 683 q 462 663 397 683 q 564 596 526 642 q 652 662 599 642 q 779 682 706 682 q 987 606 921 682 q 1053 404 1053 531 l 1053 294 l 617 294 q 629 205 618 243 q 665 142 640 167 q 732 104 690 117 q 836 92 774 92 q 885 94 858 92 q 938 100 913 96 q 987 109 964 104 q 1025 118 1010 114 l 1038 15 q 940 -5 997 4 q 822 -14 882 -14 q 690 0 750 -14 q 585 46 629 14 q 469 3 532 19 q 333 -14 407 -14 q 226 -3 276 -14 q 139 33 176 8 q 80 100 101 58 q 58 204 58 142 q 81 302 58 263 q 140 365 103 342 q 226 397 178 388 q 326 407 275 407 q 406 403 365 407 q 478 393 446 399 l 478 461 q 465 519 478 496 q 431 555 453 542 q 381 573 410 568 q 318 578 351 578 q 222 570 272 578 q 132 554 172 563 l 124 658 m 500 124 q 474 296 475 194 q 410 303 444 299 q 343 307 376 307 q 285 303 313 307 q 238 287 258 299 q 205 253 217 275 q 193 197 193 232 q 232 111 193 138 q 325 85 271 85 q 419 94 372 85 q 500 124 467 104 m 918 392 q 775 585 918 585 q 660 535 696 585 q 618 392 624 486 l 918 392 m 792 1014 l 632 790 l 517 790 l 636 1014 l 792 1014 z "},"Ǿ":{"ha":954,"x_min":81,"x_max":874,"o":"m 686 1272 l 526 1049 l 411 1049 l 531 1272 l 686 1272 m 874 461 q 848 243 874 333 q 772 95 822 153 q 648 11 722 38 q 478 -15 574 -15 q 351 -2 408 -15 q 250 39 294 11 l 171 -82 l 99 -36 l 183 94 q 81 461 81 208 q 106 679 81 589 q 182 827 132 769 q 306 911 232 885 q 478 938 381 938 q 601 925 544 938 q 701 885 657 913 l 781 1008 l 853 963 l 768 832 q 847 683 821 774 q 874 461 874 592 m 721 461 q 710 599 721 540 q 681 697 700 657 l 319 146 q 390 106 350 118 q 478 94 429 94 q 583 113 538 94 q 660 175 629 132 q 706 288 690 218 q 721 461 721 358 m 233 461 q 272 228 233 307 l 631 779 q 478 828 574 828 q 372 809 417 828 q 295 747 326 790 q 249 634 264 704 q 233 461 233 564 z "},"ǿ":{"ha":774,"x_min":69,"x_max":704,"o":"m 601 1014 l 442 790 l 326 790 l 446 1014 l 601 1014 m 704 335 q 622 68 704 150 q 386 -14 539 -14 q 233 13 296 -14 l 153 -117 l 83 -78 l 167 54 q 69 335 69 136 q 151 601 69 519 q 386 683 233 683 q 544 653 479 683 l 619 769 l 688 729 l 613 610 q 704 335 704 525 m 558 335 q 535 490 558 436 l 297 113 q 388 93 332 93 q 460 104 429 93 q 514 143 492 115 q 547 217 536 171 q 558 335 558 264 m 215 335 q 240 175 215 229 l 483 554 q 440 572 464 567 q 388 576 415 576 q 314 565 346 576 q 260 526 282 554 q 226 452 238 499 q 215 335 215 406 z "},"Ș":{"ha":764,"x_min":79,"x_max":693,"o":"m 640 804 q 592 813 619 808 q 534 820 564 817 q 474 826 504 824 q 421 828 444 828 q 344 824 379 828 q 285 810 310 821 q 246 778 260 799 q 232 726 232 758 q 266 654 232 689 q 351 585 300 619 q 463 512 403 550 q 574 429 522 474 q 659 331 625 385 q 693 213 693 278 q 670 106 693 150 q 606 35 647 63 q 505 -3 564 8 q 375 -15 446 -15 q 213 1 288 -15 q 86 33 139 17 l 104 142 q 226 110 157 126 q 374 94 294 94 q 495 117 447 94 q 543 200 543 139 q 509 282 543 243 q 423 358 475 321 q 311 435 371 396 q 199 517 251 474 q 113 608 147 560 q 79 717 79 657 q 106 822 79 779 q 179 890 133 864 q 288 926 225 915 q 421 938 350 938 q 485 935 451 938 q 549 931 518 933 q 607 924 581 928 q 653 915 633 919 l 640 804 m 468 -64 l 326 -261 l 213 -261 l 315 -64 l 468 -64 z "},"ș":{"ha":638,"x_min":68,"x_max":581,"o":"m 539 564 q 461 576 506 571 q 367 581 417 581 q 251 565 293 581 q 208 506 208 550 q 236 458 208 479 q 305 417 264 438 q 394 376 346 397 q 484 325 443 354 q 553 258 525 296 q 581 165 581 219 q 560 83 581 117 q 503 27 539 49 q 417 -4 467 6 q 310 -14 368 -14 q 181 -4 243 -14 q 76 21 119 6 l 92 126 q 137 114 111 119 q 192 103 163 108 q 250 96 221 99 q 307 93 279 93 q 403 108 371 93 q 435 165 435 122 q 408 220 435 197 q 340 264 381 243 q 251 306 299 285 q 163 353 204 326 q 95 415 122 379 q 68 501 68 451 q 92 591 68 556 q 156 647 115 626 q 252 675 197 667 q 368 683 307 683 q 469 678 419 683 q 551 668 519 674 l 539 564 m 450 -64 l 308 -261 l 194 -261 l 297 -64 l 450 -64 z "},"Ẁ":{"ha":1264,"x_min":14,"x_max":1250,"o":"m 567 1272 l 686 1049 l 572 1049 l 411 1272 l 567 1272 m 268 0 l 14 924 l 163 924 l 357 163 l 568 744 l 704 744 l 911 157 q 1031 499 979 313 q 1113 924 1083 686 l 1250 924 q 1147 443 1214 667 q 976 0 1081 219 l 840 0 l 633 589 l 413 0 l 268 0 z "},"ẁ":{"ha":1163,"x_min":19,"x_max":1143,"o":"m 521 1014 l 640 790 l 526 790 l 365 1014 l 521 1014 m 19 669 l 164 669 l 335 119 l 515 669 l 664 669 l 863 113 q 956 357 914 218 q 1017 669 997 496 l 1143 669 q 1069 319 1121 482 q 933 0 1018 157 l 775 0 l 589 525 l 413 0 l 239 0 l 19 669 z "},"Ẃ":{"ha":1264,"x_min":14,"x_max":1250,"o":"m 857 1272 l 697 1049 l 582 1049 l 701 1272 l 857 1272 m 268 0 l 14 924 l 163 924 l 357 163 l 568 744 l 704 744 l 911 157 q 1031 499 979 313 q 1113 924 1083 686 l 1250 924 q 1147 443 1214 667 q 976 0 1081 219 l 840 0 l 633 589 l 413 0 l 268 0 z "},"ẃ":{"ha":1163,"x_min":19,"x_max":1143,"o":"m 804 1014 l 644 790 l 529 790 l 649 1014 l 804 1014 m 19 669 l 164 669 l 335 119 l 515 669 l 664 669 l 863 113 q 956 357 914 218 q 1017 669 997 496 l 1143 669 q 1069 319 1121 482 q 933 0 1018 157 l 775 0 l 589 525 l 413 0 l 239 0 l 19 669 z "},"Ẅ":{"ha":1264,"x_min":14,"x_max":1250,"o":"m 582 1160 q 562 1110 582 1128 q 503 1092 542 1092 q 442 1110 463 1092 q 422 1160 422 1128 q 442 1210 422 1192 q 503 1228 463 1228 q 562 1210 542 1228 q 582 1160 582 1192 m 838 1160 q 817 1110 838 1128 q 757 1092 796 1092 q 698 1110 718 1092 q 678 1160 678 1128 q 698 1210 678 1192 q 757 1228 718 1228 q 817 1210 796 1228 q 838 1160 838 1192 m 268 0 l 14 924 l 163 924 l 357 163 l 568 744 l 704 744 l 911 157 q 1031 499 979 313 q 1113 924 1083 686 l 1250 924 q 1147 443 1214 667 q 976 0 1081 219 l 840 0 l 633 589 l 413 0 l 268 0 z "},"ẅ":{"ha":1163,"x_min":19,"x_max":1143,"o":"m 533 903 q 513 853 533 871 q 454 835 493 835 q 394 853 414 835 q 374 903 374 871 q 394 953 374 935 q 454 971 414 971 q 513 953 493 971 q 533 903 533 935 m 789 903 q 768 853 789 871 q 708 835 747 835 q 649 853 669 835 q 629 903 629 871 q 649 953 629 935 q 708 971 669 971 q 768 953 747 971 q 789 903 789 935 m 19 669 l 164 669 l 335 119 l 515 669 l 664 669 l 863 113 q 956 357 914 218 q 1017 669 997 496 l 1143 669 q 1069 319 1121 482 q 933 0 1018 157 l 775 0 l 589 525 l 413 0 l 239 0 l 19 669 z "},"Ỳ":{"ha":821,"x_min":-14,"x_max":821,"o":"m 376 1272 l 496 1049 l 382 1049 l 221 1272 l 376 1272 m 338 315 l -14 924 l 160 924 l 431 453 q 518 555 478 499 q 590 672 558 611 q 642 797 621 732 q 674 924 663 861 l 821 924 q 779 754 810 840 q 703 589 749 668 q 602 440 658 510 q 483 318 546 369 l 483 0 l 338 0 l 338 315 z "},"ỳ":{"ha":801,"x_min":106,"x_max":683,"o":"m 683 669 l 683 -3 q 663 -131 683 -79 q 603 -215 642 -183 q 507 -261 564 -247 q 378 -275 450 -275 q 252 -265 318 -275 q 139 -242 186 -254 l 154 -137 q 261 -158 200 -149 q 374 -168 322 -168 q 503 -135 463 -168 q 543 -22 543 -101 l 543 17 q 469 5 507 10 q 394 0 431 0 q 283 12 336 0 q 191 51 231 24 q 128 126 151 79 q 106 242 106 172 l 106 669 l 246 669 l 246 240 q 258 176 246 203 q 290 135 269 150 q 338 113 311 119 q 397 106 365 106 q 476 112 436 106 q 543 126 517 118 l 543 669 l 683 669 m 339 1014 l 458 790 l 344 790 l 183 1014 l 339 1014 z "},"−":{"ha":840,"x_min":93,"x_max":746,"o":"m 746 492 l 746 394 l 93 394 l 93 492 l 746 492 z "},"­":{"ha":544,"x_min":86,"x_max":457,"o":"m 457 431 l 457 322 l 86 322 l 86 431 l 457 431 z "}}}
